<svg width="19" height="21" viewBox="0 0 19 21" fill="none" xmlns="http://www.w3.org/2000/svg">
<path d="M15.1285 5.23934C15.9624 4.7654 16.6359 4.60742 17.149 4.7654C17.6942 4.89178 18.0791 5.14455 18.3036 5.5237C18.5281 5.87125 18.5601 6.29779 18.3998 6.80332C18.2394 7.30885 17.7423 7.79858 16.9085 8.27251C16.1067 8.71485 15.1125 9.0782 13.9258 9.36256C12.7713 9.61532 11.296 10.0103 9.5 10.5474L9.45189 10.4052C10.7347 9.20458 11.8091 8.16193 12.6751 7.27725C13.541 6.36098 14.3588 5.68167 15.1285 5.23934ZM9.54811 10.4052C11.2479 10.9107 12.7071 11.3057 13.9258 11.59C15.1445 11.8744 16.1548 12.2378 16.9566 12.6801C17.7904 13.154 18.2715 13.6596 18.3998 14.1967C18.5601 14.7022 18.512 15.1445 18.2555 15.5237C18.063 15.8712 17.7102 16.1082 17.1971 16.2346C16.684 16.361 16.0105 16.1872 15.1766 15.7133C14.3748 15.2709 13.557 14.6232 12.7232 13.7701C11.8893 12.8855 10.7989 11.8112 9.45189 10.5474L9.54811 10.4052ZM9.59621 10.5C10.0131 12.1746 10.398 13.6122 10.7508 14.8128C11.1036 16.0134 11.296 17.0561 11.3281 17.9408C11.296 18.8886 11.0875 19.5521 10.7027 19.9313C10.3178 20.3104 9.90089 20.5 9.45189 20.5C9.03497 20.5 8.65011 20.3262 8.29733 19.9787C7.94454 19.5995 7.76815 18.9202 7.76815 17.9408C7.76815 17.0245 7.94454 15.9976 8.29733 14.8602C8.65011 13.7227 9.03497 12.2694 9.45189 10.5H9.59621ZM9.45189 10.4526L9.54811 10.5948C8.26526 11.7638 7.19087 12.8065 6.32494 13.7227C5.45902 14.639 4.6412 15.3183 3.87149 15.7607C3.03764 16.2346 2.34811 16.4084 1.8029 16.282C1.28975 16.124 0.920935 15.8554 0.696436 15.4763C0.471938 15.1288 0.439866 14.718 0.600223 14.2441C0.760579 13.7385 1.25768 13.233 2.09154 12.7275C2.89332 12.2852 3.87149 11.9218 5.02606 11.6374C6.2127 11.3531 7.68797 10.9581 9.45189 10.4526ZM3.82339 5.28673C4.62517 5.72907 5.44298 6.39258 6.27684 7.27725C7.11069 8.13033 8.18508 9.18878 9.5 10.4526L9.45189 10.5948C7.78419 10.0893 6.32494 9.69431 5.07417 9.40995C3.85546 9.094 2.84521 8.73065 2.04343 8.31991C1.24165 7.84597 0.760579 7.35624 0.600223 6.85071C0.471938 6.31358 0.520045 5.85545 0.744543 5.4763C0.936971 5.12875 1.28975 4.89178 1.8029 4.7654C2.31604 4.63902 2.98953 4.8128 3.82339 5.28673ZM9.5 0.5C9.949 0.5 10.3499 0.689574 10.7027 1.06872C11.0555 1.44787 11.2318 2.11137 11.2318 3.05924C11.2318 3.94392 11.0555 4.97077 10.7027 6.13981C10.382 7.27725 9.9971 8.73065 9.54811 10.5H9.40379C8.98686 8.82543 8.60201 7.38784 8.24922 6.1872C7.89644 4.98657 7.72004 3.94392 7.72004 3.05924C7.72004 2.11137 7.91247 1.44787 8.29733 1.06872C8.68218 0.689574 9.08307 0.5 9.5 0.5Z" fill="#22252D" stroke="#22252D"/>
</svg>
