<svg width="80" height="91" viewBox="0 0 80 91" fill="none" xmlns="http://www.w3.org/2000/svg">
<path d="M40 0.5C42.1112 0.500001 43.9762 1.42301 45.582 3.19531L45.7354 3.37012C47.2883 5.22126 48.0049 8.27329 48.0049 12.3887C48.0049 16.3873 47.2289 21.0062 45.6914 26.2383C44.4706 30.6851 43.0371 36.2204 41.3857 42.8438C45.4243 38.9326 48.9457 35.4253 51.9492 32.3203L53.3965 30.8135C57.1668 26.7175 60.7461 23.6596 64.1357 21.6592L64.1377 21.6582L64.8154 21.2754C68.1514 19.4459 70.99 18.7895 73.2656 19.4951C75.7172 20.0795 77.5138 21.2649 78.5723 23.0889L78.7617 23.4131C79.596 24.9423 79.7097 26.7399 79.1689 28.7607L79.043 29.1973C78.2914 31.6302 76.0007 33.8919 72.3555 36.0195L72.3496 36.0225C68.8249 38.0194 64.4708 39.6508 59.2979 40.9238L59.2881 40.9268V40.9258C54.8975 41.9129 49.4259 43.3905 42.8711 45.3604C49.1634 47.2465 54.6374 48.7483 59.2949 49.8643L60.2803 50.1074C64.8311 51.2603 68.7025 52.6882 71.8867 54.3965L72.5586 54.7666L72.5635 54.7695L73.2324 55.1719C76.4885 57.1947 78.4855 59.4044 79.0518 61.834C79.7664 64.1718 79.5623 66.2758 78.3809 68.0928L78.1992 68.4053C77.3133 69.8333 75.8585 70.8165 73.9033 71.3877L73.4766 71.5039C71.0553 72.1162 67.9887 71.2566 64.3467 69.1309V69.1299C60.8205 67.1311 57.2398 64.2157 53.6045 60.3965L53.5986 60.3906C50.4442 56.9538 46.4371 52.868 41.5752 48.1338C43.1238 54.4156 44.5655 59.8892 45.9004 64.5547L46.1807 65.5527C47.5393 70.5042 48.2888 74.853 48.4209 78.5938L48.4219 78.6104L48.4209 78.6279C48.2851 82.7497 47.4265 85.8001 45.7334 87.6455L45.5674 87.8203C43.8278 89.5802 41.8994 90.4999 39.792 90.5C37.8251 90.5 36.0348 89.6522 34.4326 88.0312L34.4248 88.0234L34.418 88.0156C32.7573 86.1828 31.9951 82.9947 31.9951 78.6113C31.9951 74.4729 32.7706 69.8532 34.3096 64.7578L34.8877 62.7998C36.0732 58.6953 37.3386 53.7759 38.6865 48.041C34.6177 51.8978 31.0743 55.4273 28.0547 58.6289L26.6094 60.1797C22.8369 64.279 19.2557 67.3393 15.8643 69.3408L15.8623 69.3418C12.2122 71.4722 9.08201 72.3232 6.53027 71.7158L6.5127 71.7119L6.49512 71.707C4.17723 70.9742 2.46517 69.7106 1.41797 67.8945V67.8936C0.358506 66.1975 0.231047 64.2145 0.958984 62.0049H0.959961C1.71238 59.5813 3.99547 57.2528 7.63281 54.9883L7.6416 54.9824L7.65039 54.9775C11.173 52.9818 15.4558 51.3505 20.4902 50.0771L20.4932 50.0762L22.4766 49.5791C26.5983 48.53 31.4378 47.1987 36.9961 45.585C30.8709 43.7241 25.4419 42.241 20.708 41.1357L20.7002 41.1348L20.6924 41.1328C15.3882 39.7207 10.9725 38.0917 7.45508 36.2412L7.44141 36.2344L7.42871 36.2256C3.91944 34.0954 1.70638 31.834 0.957031 29.4082L0.951172 29.3916L0.947266 29.374C0.371756 26.8995 0.573976 24.7282 1.61914 22.9072L1.80078 22.5947C2.74993 21.0647 4.35243 20.0452 6.52344 19.4961L6.75195 19.4434C9.1366 18.9389 12.1249 19.8097 15.6533 21.8691H15.6523C19.1812 23.8693 22.7616 26.8562 26.3955 30.8145L27.7969 32.2783C30.7489 35.3452 34.3085 38.9445 38.4756 43.0771C37.1289 37.6071 35.8633 32.7465 34.6777 28.4951L34.0996 26.4453C32.5629 21.0747 31.7871 16.3867 31.7871 12.3887C31.7871 8.13316 32.6228 5.01093 34.4326 3.17969L34.7588 2.86035C36.3964 1.31545 38.1454 0.5 40 0.5Z" fill="#E8B008" stroke="#E8B008"/>
</svg>
