<svg width="334" height="275" viewBox="0 0 334 275" fill="none" xmlns="http://www.w3.org/2000/svg">
<path d="M189.665 1.15918C184.125 21.3445 177.548 46.7848 169.932 77.4805C191.758 56.4143 210.182 38.0006 225.2 22.2363C232.373 14.4389 239.369 7.54242 246.19 1.54883L246.332 1.4248H333.488L333.496 1.91602C333.553 5.35654 333.006 9.0389 331.865 12.96L331.629 13.7471C328.615 23.5102 319.309 32.8734 303.897 41.873L303.892 41.876C289.053 50.2868 270.67 57.1868 248.752 62.583L248.742 62.585C228.859 67.0572 203.807 73.884 173.583 83.0635C202.566 91.8367 227.621 98.7573 248.749 103.822L250.848 104.332C271.725 109.479 289.238 115.948 303.376 123.745L304.779 124.529L304.784 124.533L306.211 125.379C320.758 134.14 329.296 143.529 331.637 153.583C334.619 163.262 333.732 171.789 328.916 179.11C325.279 185.842 318.638 190.392 309.092 192.808C299.43 195.252 286.861 191.874 271.455 182.878L270.063 182.078C255.668 173.692 241.009 161.651 226.087 145.966L226.081 145.959C211.757 130.345 193.322 111.61 170.773 89.751C177.883 118.834 184.475 143.998 190.551 165.242L191.152 167.368C197.284 189.253 200.642 208.344 201.217 224.637L201.218 224.653V224.671C200.634 242.388 196.892 255.005 189.875 262.379L189.538 262.727C182.368 269.984 174.556 273.652 166.112 273.652C158.262 273.652 151.042 270.284 144.462 263.624L144.454 263.616L144.447 263.608C137.808 256.278 134.557 243.24 134.557 224.654C134.557 207.23 137.822 187.721 144.339 166.133L145.564 162.024C151.332 142.479 157.554 118.327 164.233 89.5654C143.786 108.83 126.323 126.235 111.844 141.78L108.806 145.062C92.814 162.447 77.6924 175.357 63.4395 183.772L63.4375 183.773C48.0208 192.776 35.1604 196.147 24.915 193.707L24.8975 193.703L24.8809 193.697C15.3291 190.676 8.41617 185.524 4.2002 178.219L3.81348 177.584C-0.070109 170.982 -0.525603 163.251 2.37402 154.446C5.38919 144.692 14.6869 135.033 30.0908 125.438L30.0996 125.433L30.1084 125.428C44.9451 117.018 63.0317 110.118 84.3584 104.722L84.3613 104.721L88.3311 103.735C108.087 98.7892 131.945 92.2268 159.906 84.0518C131.666 75.3677 106.782 68.511 85.2539 63.4824L85.2471 63.4805L85.2393 63.4785C62.7377 57.485 44.0659 50.5875 29.2344 42.7812L29.2217 42.7744L29.208 42.7666C14.3846 33.7643 5.38323 24.4014 2.37109 14.6455L2.36523 14.6289L2.36133 14.6113C1.31069 10.0918 0.893591 5.85243 1.11621 1.89648L1.14258 1.4248H86.4854L86.625 1.54395C93.6601 7.53773 100.756 14.4355 107.913 22.2363L110.739 25.1992C124.833 39.9312 142.411 57.7175 163.471 78.5605C156.268 49.0504 149.595 23.5504 143.449 2.06152L143.271 1.4375L143.92 1.4248L189.173 0.526367L189.842 0.513672L189.665 1.15918ZM166.459 82.2158L166.219 81.9658L165.771 82.2432C165.607 82.0809 165.443 81.9188 165.279 81.7568C165.334 81.9809 165.389 82.2051 165.443 82.4297C165.619 82.3779 165.795 82.3263 165.972 82.2744L166.326 82.1699L166.53 82.4785L166.704 82.7422L167.47 81.5811L167.676 81.2686L167.94 81.3496C168.001 81.1038 168.062 80.8584 168.123 80.6133C167.57 81.1456 167.016 81.6802 166.459 82.2158Z" fill="#E8B008" stroke="#E8B008"/>
</svg>
