<svg width="334" height="301" viewBox="0 0 334 301" fill="none" xmlns="http://www.w3.org/2000/svg">
<path d="M167 0.5C175.447 0.500004 182.97 4.17146 189.554 11.4414L189.862 11.7891C196.291 19.1693 199.443 31.7872 199.443 49.498C199.443 66.3221 196.178 85.8267 189.664 108.006L189.665 108.007C184.125 128.192 177.55 153.633 169.934 184.328C191.76 163.262 210.182 144.848 225.2 129.084C241.19 111.702 256.309 98.7943 270.561 90.3799L270.562 90.3789L271.999 89.5527C286.749 81.1978 298.845 78.3919 308.214 81.3467C318.352 83.7646 325.575 88.6139 329.8 95.9326L330.187 96.5693C333.947 102.979 334.49 110.705 331.898 119.692L331.629 120.596C328.615 130.359 319.309 139.721 303.897 148.721L303.892 148.725L303.891 148.724C289.052 157.134 270.669 164.035 248.752 169.431L248.742 169.434C228.858 173.906 203.804 180.731 173.578 189.911C202.563 198.685 227.62 205.605 248.749 210.67L250.848 211.181C271.725 216.327 289.238 222.796 303.376 230.594L304.779 231.378L304.784 231.381L306.211 232.228C320.757 240.989 329.296 250.377 331.637 260.431C334.618 270.107 333.733 278.633 328.921 285.952C325.285 292.688 318.641 297.239 309.092 299.655C299.431 302.1 286.861 298.722 271.455 289.727L270.063 288.927C255.668 280.541 241.01 268.499 226.087 252.813L226.081 252.808C211.758 237.195 193.322 218.461 170.774 196.603C177.883 225.685 184.475 250.847 190.551 272.09L191.229 274.49C191.452 275.287 191.671 276.079 191.886 276.868L192.058 277.5H143.013L143.195 276.862C143.564 275.576 143.946 274.283 144.339 272.981L145.511 269.057C151.293 249.48 157.531 225.267 164.231 196.417C143.728 215.735 126.224 233.181 111.722 248.759L108.806 251.909C99.6394 261.874 90.7605 270.369 82.168 277.388L82.0303 277.5H1.07617L0.995117 277.1C0.019772 272.288 0.489788 267.015 2.37402 261.294C5.38931 251.54 14.6871 241.881 30.0908 232.286L30.1084 232.276C44.9451 223.867 63.0316 216.966 84.3584 211.569H84.3613L88.3311 210.583C108.087 205.637 131.944 199.075 159.905 190.9C131.665 182.216 106.782 175.359 85.2539 170.33L85.2471 170.329L85.2393 170.327C62.7376 164.334 44.0659 157.436 29.2344 149.63L29.2217 149.622L29.208 149.614C14.6162 140.753 5.66576 131.542 2.5166 121.95L2.37109 121.493L2.36523 121.477L2.36133 121.459C-0.0256154 111.191 0.858063 102.373 5.07715 95.0518C8.71298 88.3143 15.3574 83.7616 24.9082 81.3447L25.3633 81.2344C34.963 79.0069 47.3793 82.4184 62.5449 91.2734L63.9375 92.0752C78.3346 100.48 92.9926 112.821 107.913 129.084L110.848 132.16C124.924 146.87 142.465 164.62 163.472 185.41C156.745 157.851 150.48 133.79 144.676 113.227L143.449 108.91C136.934 86.1305 133.67 66.3238 133.67 49.498C133.67 31.4983 137.221 18.7546 144.462 11.4258L145.134 10.7568C152.093 3.95067 159.384 0.5 167 0.5ZM166.434 192.92L166.093 192.813C166.046 193.018 165.998 193.222 165.951 193.426C166.212 193.181 166.472 192.936 166.733 192.691C166.676 192.636 166.62 192.581 166.562 192.526L166.434 192.92Z" fill="#E8B008" stroke="#E8B008"/>
</svg>
