<svg width="78" height="30" viewBox="0 0 78 30" fill="none" xmlns="http://www.w3.org/2000/svg">
<g clip-path="url(#clip0_141_4105)">
<path d="M18.5147 0C15.4686 0 12.5473 1.21005 10.3934 3.36396L3.36396 10.3934C1.21005 12.5473 0 15.4686 0 18.5147C0 24.8579 5.14214 30 11.4853 30C14.5314 30 17.4527 28.7899 19.6066 26.636L24.4689 21.7737C24.4689 21.7736 24.469 21.7738 24.4689 21.7737L38.636 7.6066C39.6647 6.57791 41.0599 6 42.5147 6C44.9503 6 47.0152 7.58741 47.7311 9.78407L52.2022 5.31296C50.1625 2.11834 46.586 0 42.5147 0C39.4686 0 36.5473 1.21005 34.3934 3.36396L15.364 22.3934C14.3353 23.4221 12.9401 24 11.4853 24C8.45584 24 6 21.5442 6 18.5147C6 17.0599 6.57791 15.6647 7.6066 14.636L14.636 7.6066C15.6647 6.57791 17.0599 6 18.5147 6C20.9504 6 23.0152 7.58748 23.7311 9.78421L28.2023 5.31307C26.1626 2.1184 22.5861 0 18.5147 0Z" fill="#394149"/>
<path d="M39.3636 22.3934C38.3349 23.4221 36.9397 24 35.4849 24C33.0496 24 30.985 22.413 30.2689 20.2167L25.7979 24.6877C27.8377 27.8819 31.4139 30 35.4849 30C38.531 30 41.4524 28.7899 43.6063 26.636L62.6357 7.6066C63.6644 6.57791 65.0596 6 66.5144 6C69.5438 6 71.9996 8.45584 71.9996 11.4853C71.9996 12.9401 71.4218 14.3353 70.3931 15.364L63.3636 22.3934C62.3349 23.4221 60.9397 24 59.4849 24C57.0494 24 54.9847 22.4127 54.2687 20.2162L49.7977 24.6873C51.8374 27.8818 55.4137 30 59.4849 30C62.531 30 65.4523 28.7899 67.6062 26.636L74.6357 19.6066C76.7896 17.4527 77.9996 14.5314 77.9996 11.4853C77.9996 5.14214 72.8576 0 66.5144 0C63.4683 0 60.547 1.21005 58.3931 3.36396L39.3636 22.3934Z" fill="#394149"/>
</g>
<defs>
<clipPath id="clip0_141_4105">
<rect width="78" height="30" fill="white"/>
</clipPath>
</defs>
</svg>
