<svg width="175" height="40" viewBox="0 0 175 40" fill="none" xmlns="http://www.w3.org/2000/svg">
<g clip-path="url(#clip0_141_4267)">
<path d="M170.394 7.66415L174.568 11.8668C174.714 11.9829 174.822 12.1396 174.878 12.3171C174.963 13.3515 174.18 13.4081 173.38 13.4659C173.034 13.4909 172.685 13.5162 172.402 13.621C170.998 14.0009 169.746 14.8033 168.815 15.9193C167.883 17.0353 167.318 18.4109 167.195 19.8593C167.105 20.0266 166.969 20.1643 166.802 20.2558C166.636 20.3474 166.447 20.3888 166.257 20.3753C166.037 20.3558 165.831 20.2595 165.675 20.1032L164.305 18.7238C164.315 18.8182 164.315 18.9117 164.315 18.9869V19.8968C164.315 19.9543 164.317 20.0097 164.31 20.065C164.301 20.127 164.28 20.1888 164.231 20.2532V20.3377C164.231 20.3808 164.236 20.4209 164.241 20.4616C164.251 20.5449 164.262 20.6307 164.231 20.7505C164.201 20.8622 164.198 20.9925 164.194 21.1088C164.193 21.1779 164.191 21.2421 164.184 21.2945C164.174 21.3672 164.174 21.4448 164.168 21.5223C164.162 21.5949 164.15 21.6674 164.118 21.7354C164.074 21.8306 164.059 21.9215 164.055 22.0139C164.052 22.0581 164.052 22.1026 164.052 22.1482L163.996 22.439L161.867 32.5891L161.698 33.3489L161.632 34.4559L160.694 39.2495L160.544 40H84.6248L84.2589 39.6341L84.1932 39.9531H76.0694L71.5478 35.4034L71.9793 33.3489H69.4277L67.8424 31.7448C65.8749 33.1775 63.4934 33.9285 61.06 33.8837C58.4442 33.9866 55.8941 33.0488 53.9681 31.2758L51.5009 28.7899L50.9662 31.2851C50.9006 31.6416 50.8161 31.9794 50.7223 32.3077L50.6379 32.6173L50.4972 33.0675C50.4856 33.1066 50.4699 33.1444 50.4503 33.1801C50.3106 33.5937 50.1446 33.9979 49.9531 34.3902C49.9581 34.4054 49.9581 34.4219 49.9531 34.4371C49.9285 34.4891 49.9003 34.5392 49.8686 34.5872C49.727 34.8675 49.5705 35.1399 49.3996 35.4034C49.3679 35.4513 49.3397 35.5015 49.3152 35.5535L49.212 35.666C48.9827 35.9949 48.732 36.3082 48.4615 36.6041C48.3873 36.6783 48.3131 36.748 48.2377 36.8164C48.1607 36.8864 48.0825 36.9551 48.0018 37.0262L47.7955 37.2232C47.6654 37.3313 47.5323 37.4356 47.3964 37.5361C47.2843 37.619 47.1703 37.6992 47.0544 37.7767C45.1211 38.9222 42.891 39.4674 40.6473 39.3433C37.5516 39.3433 35.075 38.4427 33.5084 36.8668L29.0994 32.4296C27.3383 33.4262 25.3442 33.9377 23.3208 33.9118C20.7129 33.9925 18.1782 33.042 16.2664 31.2664L13.7993 28.7805L13.0019 32.6173L12.8424 33.3771H4.54036L0 28.7992L0.234521 27.6923L5.22515 3.72418L5.37521 2.97372H13.7054L13.9212 3.18013V2.97372H70.0469L70.2533 3.18013V2.97372H78.3771L82.9174 7.55158L82.6923 8.64913L82.4484 9.8499H84.7842L85.1501 10.2158C86.1779 9.61344 87.3453 9.29005 88.5366 9.27769C89.4126 9.26039 90.2825 9.42678 91.0903 9.76608C91.8982 10.1054 92.626 10.61 93.227 11.2476L93.105 11.1069L95.3095 13.3302C96.651 10.8068 99.6622 9.27769 103.752 9.27769C106.923 9.27769 109.259 10.0844 110.675 11.5478L112.27 13.152L112.805 10.5722L112.964 9.82173H121.097L123.424 12.1576L123.752 10.5816L123.912 9.83112H139.916L140.347 10.2627C141.431 9.62306 142.672 9.29818 143.931 9.32458C144.688 9.29503 145.442 9.43365 146.14 9.73047C146.837 10.0273 147.46 10.475 147.964 11.0413C147.938 11.0118 147.913 10.9823 147.888 10.9533C147.843 10.8995 147.798 10.847 147.75 10.7984L148.565 11.6135C149.275 10.8782 150.129 10.2959 151.072 9.90235C152.016 9.50877 153.03 9.3121 154.052 9.32458C154.595 9.2912 155.137 9.3374 155.663 9.46033L154.775 8.56473C154.654 8.43528 154.572 8.27421 154.539 8.10021C154.506 7.92621 154.523 7.74631 154.587 7.58147C154.652 7.41657 154.762 7.27343 154.905 7.16854C155.048 7.06365 155.217 7.00129 155.394 6.98875H156.107C156.299 6.97043 156.49 6.94226 156.679 6.9043C157.676 6.69474 158.614 6.26624 159.425 5.6497C160.237 5.03323 160.901 4.24418 161.37 3.33959C161.411 3.26962 161.448 3.19765 161.482 3.12384V3.07695C161.805 2.38215 162.001 1.63581 162.064 0.872416C162.08 0.635203 162.187 0.413106 162.361 0.251186C162.535 0.0892079 162.764 -0.00056984 163.002 2.72188e-06H163.077C163.219 0.0135152 163.357 0.0594347 163.479 0.134211C163.601 0.209045 163.704 0.310732 163.781 0.431543C164.456 1.08821 168.208 4.90617 168.208 4.90617C168.521 5.24238 168.498 5.67885 168.474 6.12046C168.459 6.39352 168.444 6.66858 168.508 6.92308C168.679 6.95371 168.852 6.9769 169.024 6.99259C169.19 7.00753 169.356 7.01566 169.522 7.01687C169.716 7.02093 169.905 7.0854 170.061 7.2014C170.217 7.31735 170.334 7.4791 170.394 7.66415Z" fill="black"/>
<path d="M42.9362 10.7507H48.8649L45.5441 26.5011C44.9344 29.4842 43.7711 31.1916 42.0075 32.4017C40.2237 33.4368 38.1754 33.926 36.1164 33.8088C32.1952 33.8088 28.4334 32.1672 28.0582 28.1803H34.0244C34.212 29.1184 35.0751 29.6531 36.3884 29.6531C38.1614 29.6531 38.9775 28.5837 39.3434 26.9045L39.6998 25.169H39.5685C39.045 25.7445 38.41 26.2075 37.7021 26.53C36.9941 26.8525 36.2281 27.0278 35.4503 27.0452C31.9982 27.0452 29.2589 24.2966 29.3152 20.2722C29.3903 15.5818 32.4484 10.2535 37.5798 10.2535C38.5522 10.188 39.523 10.4023 40.3775 10.8711C41.232 11.3398 41.9343 12.0435 42.4015 12.8989H42.5047L42.9362 10.7507ZM37.8424 22.6456C40.122 22.6456 41.3884 20.019 41.4259 17.7582C41.4259 16.2479 40.8349 14.7 39.0901 14.7C36.7073 14.7 35.4972 17.3548 35.4597 19.6343C35.4597 21.1728 36.0507 22.6456 37.7955 22.6456M104.4 23.1522C104.4 24.1559 103.536 24.5593 102.401 24.5593C100.525 24.5593 99.8968 23.6212 99.8874 22.3079H93.9869C93.8837 27.2047 98.2552 28.4148 102.139 28.4148C107.101 28.4148 110.319 26.2666 110.385 21.9796C110.385 18.5555 107.467 17.5143 104.597 16.8482C102.392 16.3417 101.426 15.9758 101.435 15.1409C101.445 14.306 102.43 13.9683 103.396 13.9683C104.606 13.9683 105.431 14.3998 105.516 15.5068H111.248C111.182 11.4167 107.495 10.216 103.743 10.216C99.1839 10.216 95.6285 12.2891 95.5722 16.2103C95.5722 19.2966 97.6548 20.4317 100.797 21.2385C102.814 21.7732 104.418 21.942 104.4 23.1522ZM148.236 13.2929H148.133C147.878 12.3691 147.314 11.5604 146.536 11.0007C145.758 10.4411 144.812 10.1642 143.855 10.216C141.304 10.216 139.747 11.4824 138.274 13.3961H138.171L138.715 10.7507H132.748L129.174 27.8426H135.413L137.289 18.6212C137.72 16.6137 138.743 15.2066 140.291 15.2066C141.839 15.2066 142.045 16.4448 141.726 17.9552L139.662 27.8426H145.9L147.777 18.6212C148.208 16.4824 149.231 15.2066 150.778 15.2066C152.326 15.2066 152.533 16.3792 152.214 17.9552L150.15 27.8426H156.388L158.621 17.6831C159.559 13.3961 158.124 10.1784 154.006 10.1784C152.86 10.1737 151.732 10.4563 150.724 11.0004C149.716 11.5445 148.861 12.3327 148.236 13.2929ZM1.14453 27.8426H7.58918L12.5704 3.87451H6.13515L1.14453 27.8426ZM20.5441 10.2441C24.8968 10.2441 29.0526 12.6268 28.9869 18.0208C28.9306 23.9214 24.9156 28.3398 18.7805 28.3398C14.5591 28.3398 10.3378 25.9946 10.4128 20.6287C10.516 14.8689 14.4747 10.2441 20.5441 10.2441ZM18.9588 24.1559C21.7074 24.1559 22.7111 20.169 22.7111 17.8238C22.7111 16.1447 22.1952 14.503 20.3846 14.503C17.6642 14.503 16.7355 18.7244 16.7355 20.9008C16.7355 22.6456 17.2233 24.1559 18.9963 24.1559M14.7186 3.87451L13.7805 8.66813H67.8987L68.8368 3.87451H14.7186ZM58.2458 10.2441C62.5985 10.2441 66.7542 12.6268 66.6886 18.0208C66.6323 23.9214 62.6079 28.3398 56.4728 28.3398C52.2514 28.3398 48.03 25.9946 48.1145 20.6287C48.2458 14.8689 52.2045 10.2441 58.2458 10.2441ZM56.6886 24.1559C59.4372 24.1559 60.4409 20.169 60.4409 17.8238C60.4409 16.1447 59.9156 14.503 58.1051 14.503C55.394 14.503 54.4559 18.7244 54.4559 20.9008C54.4559 22.6456 54.9437 24.1559 56.7261 24.1559M71.0507 3.87451L70.1126 8.66813H76.3415L77.2796 3.87451H71.0507ZM66.0601 27.8426H72.2983L75.8724 10.7507H69.5966L66.0601 27.8426ZM85.9662 28.4148C84.9734 28.4853 83.9805 28.2778 83.0989 27.8155C82.2174 27.3532 81.4821 26.6544 80.9756 25.7976H80.8724L78.9963 34.4467H72.6829L77.7486 10.7507H83.6773L83.2083 13.0302C83.8274 12.1882 84.6294 11.4975 85.5539 11.01C86.4784 10.5226 87.5014 10.2511 88.546 10.216C92.2983 10.216 94.5028 13.4336 94.4372 17.6175C94.3527 22.8801 91.6229 28.4148 85.9287 28.4148H85.9662ZM85.7223 15.0565C83.3115 15.0565 81.8293 18.1428 81.7918 20.5162C81.7918 22.1672 82.3734 24.0058 84.3527 24.0058C86.9325 24.0058 87.9925 20.5912 88.0206 18.3116C88.0206 16.7638 87.5704 15.0565 85.7223 15.0565ZM121.792 25.1503H121.895L121.351 27.8614H127.279L130.854 10.7694H124.625L122.636 20.3191C122.233 22.2985 121.013 23.3398 119.475 23.3398C117.936 23.3398 117.598 21.8951 117.908 20.3848L119.925 10.7694H113.696L111.491 21.3229C110.553 25.9195 112.692 28.3961 116.276 28.3961C117.401 28.3851 118.504 28.0776 119.472 27.5044C120.44 26.9312 121.241 26.1127 121.792 25.1315V25.1503ZM155.253 34.5312L156.191 29.7375H82.2139L81.2758 34.5312H155.253Z" fill="white"/>
<path d="M161.96 15.4409C161.899 15.4362 161.839 15.4193 161.784 15.3912C161.728 15.3632 161.679 15.3245 161.639 15.2774C161.599 15.2303 161.569 15.1758 161.55 15.1169C161.531 15.058 161.524 14.996 161.529 14.9343C161.607 14.0989 161.508 13.2563 161.238 12.4619C160.968 11.6675 160.533 10.939 159.961 10.3244C159.39 9.70973 158.695 9.22271 157.923 8.89521C157.15 8.56772 156.317 8.40714 155.478 8.424C155.354 8.424 155.235 8.37459 155.147 8.28662C155.059 8.19866 155.009 8.07935 155.009 7.95495C155.009 7.83055 155.059 7.71126 155.147 7.6233C155.235 7.53533 155.354 7.48591 155.478 7.48591C155.703 7.50045 155.929 7.50045 156.154 7.48591C157.82 7.3084 159.372 6.55561 160.543 5.35708C161.715 4.15855 162.431 2.58925 162.57 0.919306C162.58 0.801523 162.633 0.691657 162.72 0.611654C162.807 0.531652 162.921 0.487416 163.039 0.487795C163.101 0.49253 163.161 0.509418 163.216 0.537479C163.271 0.56554 163.32 0.604223 163.36 0.651304C163.401 0.698386 163.431 0.752932 163.45 0.811808C163.469 0.870684 163.476 0.93272 163.471 0.994355C163.393 1.82902 163.492 2.67077 163.761 3.46455C164.031 4.25832 164.465 4.98625 165.035 5.60075C165.606 6.21524 166.299 6.70246 167.07 7.03055C167.842 7.35864 168.674 7.5202 169.512 7.50467C169.636 7.50467 169.756 7.5541 169.844 7.64206C169.932 7.73002 169.981 7.84932 169.981 7.97372C169.981 8.09812 169.932 8.21743 169.844 8.30539C169.756 8.39335 169.636 8.44276 169.512 8.44276C167.73 8.4722 166.021 9.15874 164.714 10.3707C163.407 11.5826 162.593 13.2345 162.43 15.0094C162.42 15.1272 162.367 15.2371 162.28 15.3171C162.193 15.3971 162.079 15.4413 161.96 15.4409Z" fill="white"/>
</g>
<defs>
<clipPath id="clip0_141_4267">
<rect width="175" height="40" fill="white"/>
</clipPath>
</defs>
</svg>
