<svg width="246" height="65" viewBox="0 0 246 65" fill="none" xmlns="http://www.w3.org/2000/svg">
<path d="M0.5 27.0043V0.53676H5.30748V27.0043H0.5Z" fill="#FFF9E6"/>
<path d="M8.86234 27.0043V0.53676H14.1836L23.7619 11.9693L33.3034 0.53676H38.6614V27.0043H33.7805V7.59477L23.7619 19.5419L13.7065 7.63153V27.0043H8.86234Z" fill="#FFF9E6"/>
<path d="M42.9086 27.0043V0.57352H64.1937C65.1234 0.57352 65.9796 0.806336 66.7625 1.27197C67.5454 1.7376 68.1693 2.36253 68.6342 3.14675C69.099 3.90647 69.3314 4.75196 69.3314 5.68323V12.8148C69.3314 13.746 69.099 14.6038 68.6342 15.388C68.1693 16.1722 67.5454 16.7971 66.7625 17.2628C65.9796 17.7039 65.1234 17.9245 64.1937 17.9245L47.7528 17.9612V27.0043H42.9086ZM48.1932 13.0353H63.9735C64.0958 13.0353 64.2059 12.9986 64.3038 12.925C64.4016 12.8515 64.4506 12.7535 64.4506 12.631V5.86703C64.4506 5.74449 64.4016 5.64647 64.3038 5.57295C64.2059 5.47492 64.0958 5.4259 63.9735 5.4259H48.1932C48.0709 5.4259 47.9608 5.47492 47.8629 5.57295C47.7895 5.64647 47.7528 5.74449 47.7528 5.86703V12.631C47.7528 12.7535 47.7895 12.8515 47.8629 12.925C47.9608 12.9986 48.0709 13.0353 48.1932 13.0353Z" fill="#FFF9E6"/>
<path d="M76.9653 27.0043C76.0356 27.0043 75.1793 26.7715 74.3964 26.3059C73.6379 25.8402 73.0263 25.2276 72.5615 24.4678C72.0966 23.6836 71.8642 22.8259 71.8642 21.8946V0.53676H76.7084V21.674C76.7084 21.7966 76.7451 21.9069 76.8185 22.0049C76.9163 22.0784 77.0264 22.1152 77.1487 22.1152H92.929C93.0514 22.1152 93.1615 22.0784 93.2593 22.0049C93.3572 21.9069 93.4061 21.7966 93.4061 21.674V0.53676H98.287V21.8946C98.287 22.8259 98.0546 23.6836 97.5897 24.4678C97.1249 25.2276 96.501 25.8402 95.7181 26.3059C94.9597 26.7715 94.1156 27.0043 93.1859 27.0043H76.9653Z" fill="#FFF9E6"/>
<path d="M102.365 27.0043V0.5H107.209V22.1152H119.613V27.0043H102.365Z" fill="#FFF9E6"/>
<path d="M128.579 27.0043C127.649 27.0043 126.793 26.7715 126.01 26.3059C125.251 25.8402 124.64 25.2276 124.175 24.4678C123.71 23.6836 123.478 22.8259 123.478 21.8946V19.8728H128.322V21.674C128.322 21.7966 128.358 21.9069 128.432 22.0049C128.53 22.0784 128.64 22.1152 128.762 22.1152H144.579C144.701 22.1152 144.799 22.0784 144.873 22.0049C144.97 21.9069 145.019 21.7966 145.019 21.674V16.6379C145.019 16.5153 144.97 16.4173 144.873 16.3438C144.799 16.2702 144.701 16.2335 144.579 16.2335H128.579C127.649 16.2335 126.793 16.0007 126.01 15.535C125.251 15.0694 124.64 14.4567 124.175 13.697C123.71 12.9128 123.478 12.0428 123.478 11.087V5.64647C123.478 4.7152 123.71 3.86971 124.175 3.10999C124.64 2.32577 125.251 1.70084 126.01 1.23521C126.793 0.769576 127.649 0.53676 128.579 0.53676H144.799C145.729 0.53676 146.573 0.769576 147.331 1.23521C148.114 1.70084 148.738 2.32577 149.203 3.10999C149.668 3.86971 149.9 4.7152 149.9 5.64647V7.66829H145.019V5.86703C145.019 5.74449 144.97 5.64647 144.873 5.57295C144.799 5.47492 144.701 5.4259 144.579 5.4259H128.762C128.64 5.4259 128.53 5.47492 128.432 5.57295C128.358 5.64647 128.322 5.74449 128.322 5.86703V10.9032C128.322 11.0258 128.358 11.1238 128.432 11.1973C128.53 11.2708 128.64 11.3076 128.762 11.3076H144.799C145.729 11.3076 146.573 11.5404 147.331 12.006C148.114 12.4717 148.738 13.0966 149.203 13.8808C149.668 14.6405 149.9 15.4983 149.9 16.4541V21.8946C149.9 22.8259 149.668 23.6836 149.203 24.4678C148.738 25.2276 148.114 25.8402 147.331 26.3059C146.573 26.7715 145.729 27.0043 144.799 27.0043H128.579Z" fill="#FFF9E6"/>
<path d="M153.98 27.0043V0.53676H178.311V5.4259H158.861V11.3076H174.494V16.2335H158.861V22.1152H178.311V27.0043H153.98Z" fill="#FFF9E6"/>
<path d="M0.5 64.5V38.0325H5.82126L15.3995 49.465L24.9411 38.0325H30.299V64.5H25.4182V45.0905L15.3995 57.0376L5.34418 45.1272V64.5H0.5Z" fill="#FFF9E6"/>
<path d="M34.6197 64.5V43.1422C34.6197 42.2109 34.8521 41.3654 35.317 40.6057C35.7818 39.8215 36.3934 39.1965 37.1519 38.7309C37.9348 38.2653 38.7911 38.0325 39.7208 38.0325H55.9047C56.8344 38.0325 57.6907 38.2653 58.4736 38.7309C59.2565 39.1965 59.8804 39.8215 60.3452 40.6057C60.8101 41.3654 61.0425 42.2109 61.0425 43.1422V64.5H56.1616V55.604H39.4639V64.5H34.6197ZM39.4639 50.7516H56.1616V43.3627C56.1616 43.2402 56.1127 43.1422 56.0148 43.0686C55.917 42.9706 55.8069 42.9216 55.6845 42.9216H39.9043C39.7819 42.9216 39.6718 42.9706 39.574 43.0686C39.5006 43.1422 39.4639 43.2402 39.4639 43.3627V50.7516Z" fill="#FFF9E6"/>
<path d="M86.2886 64.5L78.3251 54.979H84.6739L91.5732 63.1399V64.5H86.2886ZM65.2238 64.5V38.0692H86.5088C87.4385 38.0692 88.2948 38.302 89.0777 38.7677C89.8606 39.2333 90.4845 39.8582 90.9493 40.6424C91.4142 41.4022 91.6466 42.2477 91.6466 43.1789V50.3105C91.6466 51.2417 91.4142 52.0995 90.9493 52.8837C90.4845 53.6679 89.8606 54.2928 89.0777 54.7585C88.2948 55.1996 87.4385 55.4202 86.5088 55.4202L70.068 55.4569V64.5H65.2238ZM70.5084 50.531H86.2886C86.411 50.531 86.5211 50.4943 86.6189 50.4207C86.7168 50.3472 86.7657 50.2492 86.7657 50.1267V43.3627C86.7657 43.2402 86.7168 43.1422 86.6189 43.0686C86.5211 42.9706 86.411 42.9216 86.2886 42.9216H70.5084C70.386 42.9216 70.2759 42.9706 70.1781 43.0686C70.1047 43.1422 70.068 43.2402 70.068 43.3627V50.1267C70.068 50.2492 70.1047 50.3472 70.1781 50.4207C70.2759 50.4943 70.386 50.531 70.5084 50.531Z" fill="#FFF9E6"/>
<path d="M95.5438 64.5V38.0325H100.425V48.8033H106.627L115.654 38.0325H120.939V39.4294L111.03 51.2662L120.976 63.1031V64.5H115.654L106.627 53.7292H100.425V64.5H95.5438Z" fill="#FFF9E6"/>
<path d="M124.824 64.5V38.0325H149.155V42.9216H129.705V48.8033H145.339V53.7292H129.705V59.6109H149.155V64.5H124.824Z" fill="#FFF9E6"/>
<path d="M162.316 64.5V42.9216H151.527V38.0325H177.95V42.9216H167.197V64.5H162.316Z" fill="#FFF9E6"/>
<path d="M180.181 64.5V38.0325H184.988V64.5H180.181Z" fill="#FFF9E6"/>
<path d="M188.543 64.5V38.0325H193.864L210.085 57.3685V38.0325H214.966V64.5H209.645L193.387 45.1272V64.5H188.543Z" fill="#FFF9E6"/>
<path d="M224.178 64.5C223.249 64.5 222.392 64.2672 221.609 63.8016C220.851 63.3359 220.239 62.7232 219.774 61.9635C219.31 61.1793 219.077 60.3216 219.077 59.3903V43.1422C219.077 42.2109 219.31 41.3654 219.774 40.6057C220.239 39.8215 220.851 39.1965 221.609 38.7309C222.392 38.2653 223.249 38.0325 224.178 38.0325H240.362C241.292 38.0325 242.148 38.2653 242.931 38.7309C243.714 39.1965 244.338 39.8215 244.803 40.6057C245.268 41.3654 245.5 42.2109 245.5 43.1422V45.2007H240.619V43.3627C240.619 43.2402 240.57 43.1422 240.472 43.0686C240.374 42.9706 240.264 42.9216 240.142 42.9216H224.362C224.239 42.9216 224.129 42.9706 224.031 43.0686C223.958 43.1422 223.921 43.2402 223.921 43.3627V59.1697C223.921 59.2923 223.958 59.4025 224.031 59.5006C224.129 59.5741 224.239 59.6109 224.362 59.6109H240.142C240.264 59.6109 240.374 59.5741 240.472 59.5006C240.57 59.4025 240.619 59.2923 240.619 59.1697V54.3909H234.637V49.5017H245.5V59.3903C245.5 60.3216 245.268 61.1793 244.803 61.9635C244.338 62.7232 243.714 63.3359 242.931 63.8016C242.148 64.2672 241.292 64.5 240.362 64.5H224.178Z" fill="#FFF9E6"/>
<path d="M0.5 27.0043V0.53676H5.30748V27.0043H0.5Z" stroke="#FFF9E6" stroke-linejoin="bevel"/>
<path d="M8.86234 27.0043V0.53676H14.1836L23.7619 11.9693L33.3034 0.53676H38.6614V27.0043H33.7805V7.59477L23.7619 19.5419L13.7065 7.63153V27.0043H8.86234Z" stroke="#FFF9E6" stroke-linejoin="bevel"/>
<path d="M42.9086 27.0043V0.57352H64.1937C65.1234 0.57352 65.9796 0.806336 66.7625 1.27197C67.5454 1.7376 68.1693 2.36253 68.6342 3.14675C69.099 3.90647 69.3314 4.75196 69.3314 5.68323V12.8148C69.3314 13.746 69.099 14.6038 68.6342 15.388C68.1693 16.1722 67.5454 16.7971 66.7625 17.2628C65.9796 17.7039 65.1234 17.9245 64.1937 17.9245L47.7528 17.9612V27.0043H42.9086ZM48.1932 13.0353H63.9735C64.0958 13.0353 64.2059 12.9986 64.3038 12.925C64.4016 12.8515 64.4506 12.7535 64.4506 12.631V5.86703C64.4506 5.74449 64.4016 5.64647 64.3038 5.57295C64.2059 5.47492 64.0958 5.4259 63.9735 5.4259H48.1932C48.0709 5.4259 47.9608 5.47492 47.8629 5.57295C47.7895 5.64647 47.7528 5.74449 47.7528 5.86703V12.631C47.7528 12.7535 47.7895 12.8515 47.8629 12.925C47.9608 12.9986 48.0709 13.0353 48.1932 13.0353Z" stroke="#FFF9E6" stroke-linejoin="bevel"/>
<path d="M76.9653 27.0043C76.0356 27.0043 75.1793 26.7715 74.3964 26.3059C73.6379 25.8402 73.0263 25.2276 72.5615 24.4678C72.0966 23.6836 71.8642 22.8259 71.8642 21.8946V0.53676H76.7084V21.674C76.7084 21.7966 76.7451 21.9069 76.8185 22.0049C76.9163 22.0784 77.0264 22.1152 77.1487 22.1152H92.929C93.0514 22.1152 93.1615 22.0784 93.2593 22.0049C93.3572 21.9069 93.4061 21.7966 93.4061 21.674V0.53676H98.287V21.8946C98.287 22.8259 98.0546 23.6836 97.5897 24.4678C97.1249 25.2276 96.501 25.8402 95.7181 26.3059C94.9597 26.7715 94.1156 27.0043 93.1859 27.0043H76.9653Z" stroke="#FFF9E6" stroke-linejoin="bevel"/>
<path d="M102.365 27.0043V0.5H107.209V22.1152H119.613V27.0043H102.365Z" stroke="#FFF9E6" stroke-linejoin="bevel"/>
<path d="M128.579 27.0043C127.649 27.0043 126.793 26.7715 126.01 26.3059C125.251 25.8402 124.64 25.2276 124.175 24.4678C123.71 23.6836 123.478 22.8259 123.478 21.8946V19.8728H128.322V21.674C128.322 21.7966 128.358 21.9069 128.432 22.0049C128.53 22.0784 128.64 22.1152 128.762 22.1152H144.579C144.701 22.1152 144.799 22.0784 144.873 22.0049C144.97 21.9069 145.019 21.7966 145.019 21.674V16.6379C145.019 16.5153 144.97 16.4173 144.873 16.3438C144.799 16.2702 144.701 16.2335 144.579 16.2335H128.579C127.649 16.2335 126.793 16.0007 126.01 15.535C125.251 15.0694 124.64 14.4567 124.175 13.697C123.71 12.9128 123.478 12.0428 123.478 11.087V5.64647C123.478 4.7152 123.71 3.86971 124.175 3.10999C124.64 2.32577 125.251 1.70084 126.01 1.23521C126.793 0.769576 127.649 0.53676 128.579 0.53676H144.799C145.729 0.53676 146.573 0.769576 147.331 1.23521C148.114 1.70084 148.738 2.32577 149.203 3.10999C149.668 3.86971 149.9 4.7152 149.9 5.64647V7.66829H145.019V5.86703C145.019 5.74449 144.97 5.64647 144.873 5.57295C144.799 5.47492 144.701 5.4259 144.579 5.4259H128.762C128.64 5.4259 128.53 5.47492 128.432 5.57295C128.358 5.64647 128.322 5.74449 128.322 5.86703V10.9032C128.322 11.0258 128.358 11.1238 128.432 11.1973C128.53 11.2708 128.64 11.3076 128.762 11.3076H144.799C145.729 11.3076 146.573 11.5404 147.331 12.006C148.114 12.4717 148.738 13.0966 149.203 13.8808C149.668 14.6405 149.9 15.4983 149.9 16.4541V21.8946C149.9 22.8259 149.668 23.6836 149.203 24.4678C148.738 25.2276 148.114 25.8402 147.331 26.3059C146.573 26.7715 145.729 27.0043 144.799 27.0043H128.579Z" stroke="#FFF9E6" stroke-linejoin="bevel"/>
<path d="M153.98 27.0043V0.53676H178.311V5.4259H158.861V11.3076H174.494V16.2335H158.861V22.1152H178.311V27.0043H153.98Z" stroke="#FFF9E6" stroke-linejoin="bevel"/>
<path d="M0.5 64.5V38.0325H5.82126L15.3995 49.465L24.9411 38.0325H30.299V64.5H25.4182V45.0905L15.3995 57.0376L5.34418 45.1272V64.5H0.5Z" stroke="#FFF9E6" stroke-linejoin="bevel"/>
<path d="M34.6197 64.5V43.1422C34.6197 42.2109 34.8521 41.3654 35.317 40.6057C35.7818 39.8215 36.3934 39.1965 37.1519 38.7309C37.9348 38.2653 38.7911 38.0325 39.7208 38.0325H55.9047C56.8344 38.0325 57.6907 38.2653 58.4736 38.7309C59.2565 39.1965 59.8804 39.8215 60.3452 40.6057C60.8101 41.3654 61.0425 42.2109 61.0425 43.1422V64.5H56.1616V55.604H39.4639V64.5H34.6197ZM39.4639 50.7516H56.1616V43.3627C56.1616 43.2402 56.1127 43.1422 56.0148 43.0686C55.917 42.9706 55.8069 42.9216 55.6845 42.9216H39.9043C39.7819 42.9216 39.6718 42.9706 39.574 43.0686C39.5006 43.1422 39.4639 43.2402 39.4639 43.3627V50.7516Z" stroke="#FFF9E6" stroke-linejoin="bevel"/>
<path d="M86.2886 64.5L78.3251 54.979H84.6739L91.5732 63.1399V64.5H86.2886ZM65.2238 64.5V38.0692H86.5088C87.4385 38.0692 88.2948 38.302 89.0777 38.7677C89.8606 39.2333 90.4845 39.8582 90.9493 40.6424C91.4142 41.4022 91.6466 42.2477 91.6466 43.1789V50.3105C91.6466 51.2417 91.4142 52.0995 90.9493 52.8837C90.4845 53.6679 89.8606 54.2928 89.0777 54.7585C88.2948 55.1996 87.4385 55.4202 86.5088 55.4202L70.068 55.4569V64.5H65.2238ZM70.5084 50.531H86.2886C86.411 50.531 86.5211 50.4943 86.6189 50.4207C86.7168 50.3472 86.7657 50.2492 86.7657 50.1267V43.3627C86.7657 43.2402 86.7168 43.1422 86.6189 43.0686C86.5211 42.9706 86.411 42.9216 86.2886 42.9216H70.5084C70.386 42.9216 70.2759 42.9706 70.1781 43.0686C70.1047 43.1422 70.068 43.2402 70.068 43.3627V50.1267C70.068 50.2492 70.1047 50.3472 70.1781 50.4207C70.2759 50.4943 70.386 50.531 70.5084 50.531Z" stroke="#FFF9E6" stroke-linejoin="bevel"/>
<path d="M95.5438 64.5V38.0325H100.425V48.8033H106.627L115.654 38.0325H120.939V39.4294L111.03 51.2662L120.976 63.1031V64.5H115.654L106.627 53.7292H100.425V64.5H95.5438Z" stroke="#FFF9E6" stroke-linejoin="bevel"/>
<path d="M124.824 64.5V38.0325H149.155V42.9216H129.705V48.8033H145.339V53.7292H129.705V59.6109H149.155V64.5H124.824Z" stroke="#FFF9E6" stroke-linejoin="bevel"/>
<path d="M162.316 64.5V42.9216H151.527V38.0325H177.95V42.9216H167.197V64.5H162.316Z" stroke="#FFF9E6" stroke-linejoin="bevel"/>
<path d="M180.181 64.5V38.0325H184.988V64.5H180.181Z" stroke="#FFF9E6" stroke-linejoin="bevel"/>
<path d="M188.543 64.5V38.0325H193.864L210.085 57.3685V38.0325H214.966V64.5H209.645L193.387 45.1272V64.5H188.543Z" stroke="#FFF9E6" stroke-linejoin="bevel"/>
<path d="M224.178 64.5C223.249 64.5 222.392 64.2672 221.609 63.8016C220.851 63.3359 220.239 62.7232 219.774 61.9635C219.31 61.1793 219.077 60.3216 219.077 59.3903V43.1422C219.077 42.2109 219.31 41.3654 219.774 40.6057C220.239 39.8215 220.851 39.1965 221.609 38.7309C222.392 38.2653 223.249 38.0325 224.178 38.0325H240.362C241.292 38.0325 242.148 38.2653 242.931 38.7309C243.714 39.1965 244.338 39.8215 244.803 40.6057C245.268 41.3654 245.5 42.2109 245.5 43.1422V45.2007H240.619V43.3627C240.619 43.2402 240.57 43.1422 240.472 43.0686C240.374 42.9706 240.264 42.9216 240.142 42.9216H224.362C224.239 42.9216 224.129 42.9706 224.031 43.0686C223.958 43.1422 223.921 43.2402 223.921 43.3627V59.1697C223.921 59.2923 223.958 59.4025 224.031 59.5006C224.129 59.5741 224.239 59.6109 224.362 59.6109H240.142C240.264 59.6109 240.374 59.5741 240.472 59.5006C240.57 59.4025 240.619 59.2923 240.619 59.1697V54.3909H234.637V49.5017H245.5V59.3903C245.5 60.3216 245.268 61.1793 244.803 61.9635C244.338 62.7232 243.714 63.3359 242.931 63.8016C242.148 64.2672 241.292 64.5 240.362 64.5H224.178Z" stroke="#FFF9E6" stroke-linejoin="bevel"/>
</svg>
