<svg width="103" height="52" viewBox="0 0 103 52" fill="none" xmlns="http://www.w3.org/2000/svg">
<path d="M8.03122 11.1781C7.39592 9.5635 7.67172 7.707 8.25692 6.1456C8.87262 4.5026 9.94472 2.8641 11.5471 2C11.6266 3.7314 11.0977 5.442 10.5198 6.9845C10.0001 8.3719 9.36242 9.85 8.30942 10.9974C8.14762 11.8668 8.02362 12.7338 7.93642 13.5968C8.28542 12.6851 8.85132 11.8541 9.55742 11.1859C10.4665 10.3255 11.8188 9.6616 13.0882 10.0542C12.7164 11.4574 11.8689 12.8025 10.8652 13.7461C10.0752 14.4888 9.03232 15.4405 7.80392 15.4779C7.75332 16.7479 7.78192 18.0063 7.88642 19.2476C8.05972 18.3392 8.43102 17.4838 8.96752 16.8468C9.70452 15.9715 10.7973 14.9021 12.1929 15.081C12.1167 16.5012 11.5502 17.9563 10.7613 19.0497C10.1344 19.9186 9.30682 21.026 8.13212 21.3121C8.32022 22.5318 8.58222 23.7313 8.91462 24.905C8.91782 24.0063 9.11632 23.1242 9.51012 22.4167C10.0651 21.419 10.9295 20.1748 12.3267 20.0775C12.5315 21.4708 12.254 22.9939 11.6942 24.2053C11.2468 25.1736 10.6503 26.4084 9.56302 26.9193C10.0196 28.1821 10.5599 29.4096 11.1794 30.5944C10.9619 29.5732 10.9706 28.4971 11.228 27.5289C11.5827 26.1941 12.4632 24.792 13.8768 24.3851C14.3765 25.8587 14.3076 27.5033 14.0173 29.0011C13.7784 30.2343 13.309 31.6827 12.2568 32.4838C12.9447 33.5939 13.7057 34.6593 14.5356 35.673C14.0897 34.6788 13.8681 33.5915 13.987 32.596C14.1602 31.1458 14.5677 29.5944 16.049 28.8212C16.8894 30.2712 17.0841 31.8979 17.1555 33.5046C17.2132 34.8035 17.0261 36.4056 16.124 37.4623C17.1163 38.494 18.187 39.4596 19.3306 40.35C18.5923 39.4029 18.0753 38.2915 17.9658 37.1924C17.8112 35.6395 17.8868 33.93 19.2649 32.7904C20.4435 34.0214 21.1468 35.8343 21.4915 37.4089C21.7963 38.8011 22.1145 40.4489 21.3888 41.819C22.8442 42.769 24.3979 43.606 26.0406 44.3148C24.8847 43.4911 23.9385 42.361 23.4877 41.1942C22.897 39.6647 22.5316 37.8422 23.6823 36.3104C25.224 37.2979 26.3571 38.9827 27.2498 40.5193C28.0158 41.8378 28.8087 43.6576 28.4153 45.2279C29.3248 45.5365 30.2578 45.8075 31.2131 46.0387L31.1563 46.2732C30.1974 46.0411 29.2608 45.7692 28.3476 45.4597C27.7078 47.3504 25.6119 47.975 23.9169 48.2508C21.5018 48.6437 18.6261 47.8824 16.5643 46.3488C17.6525 44.8109 19.8728 44.6549 21.547 44.5372L21.5688 44.5357C23.4029 44.4068 25.3866 44.579 27.231 45.0582C25.1003 44.2471 23.1066 43.2273 21.2682 42.0284L21.2411 42.0712C20.2337 43.7047 18.2111 43.7684 16.6235 43.6651C14.4692 43.5249 11.982 42.215 10.5425 40.4043C11.8965 39.2163 13.8964 39.5488 15.446 39.8064L15.4535 39.8076C17.183 40.0951 19.0729 40.7223 20.6593 41.688C20.5082 41.569 20.3603 41.4431 20.2166 41.3111C18.6742 40.2114 17.2514 38.9813 15.9603 37.6401C15.9453 37.6551 15.9301 37.67 15.9148 37.6848C14.6594 38.9477 12.831 38.617 11.4041 38.206C9.49462 37.656 7.51432 35.9967 6.56532 34.0918C8.03592 33.2678 9.79412 33.9468 11.1617 34.4839C12.6627 35.0734 14.2508 36.0164 15.4719 37.2185C15.346 37.0597 15.2259 36.8938 15.1124 36.7221C13.9774 35.4411 12.9564 34.0694 12.0588 32.6223L12.0138 32.6505C10.5936 33.567 8.98452 32.9033 7.70922 32.2506C5.98012 31.3657 4.59062 29.4209 3.99022 27.5083C5.52412 27.017 7.03962 27.9813 8.21772 28.745C9.50622 29.5802 10.8114 30.7714 11.7073 32.1375C11.6415 32.0029 11.5802 31.8653 11.5237 31.7251C10.6629 30.2233 9.93162 28.6467 9.33962 27.0112L9.30912 27.0216L9.30662 27.0225C8.01532 27.5134 6.57732 26.7502 5.63982 25.9132C4.33682 24.75 3.41842 22.9617 3.20312 21.2146C4.54942 21.0402 5.81782 22.0818 6.68502 22.9702C7.68322 23.9927 8.57912 25.2012 9.12992 26.5435C9.08972 26.3977 9.05522 26.2496 9.02622 26.1C8.52502 24.5631 8.14532 22.9781 7.89502 21.3577L7.87552 21.3601L7.86892 21.3612C6.50372 21.5891 5.24152 20.5512 4.48742 19.5439C3.42942 18.1304 2.88402 16.1741 3.02072 14.401C4.38062 14.4961 5.41612 15.7898 6.08762 16.8363C6.86482 18.0478 7.50932 19.4189 7.79162 20.8533C7.78302 20.7392 7.77792 20.6244 7.77612 20.5093C7.56882 18.8601 7.49492 17.1771 7.56252 15.4733L7.55862 15.4731C6.17062 15.4231 5.14482 14.1344 4.61522 12.9913C3.85742 11.3555 3.73542 9.2878 4.24122 7.5452C5.56412 7.9165 6.30162 9.434 6.73692 10.6021C7.23882 11.9489 7.58912 13.4178 7.59192 14.8782C7.66412 13.653 7.80952 12.4181 8.03122 11.1781Z" fill="#394149"/>
<path d="M35.3685 8.15527V14.0051C35.3685 16.578 33.0383 17.8159 29.5066 17.8159C26.2055 17.8159 23.8389 16.5902 23.8389 13.7017V8.15527H27.1279V13.7017C27.1279 14.7333 28.0138 15.3765 29.6401 15.3765C31.1936 15.3765 32.116 14.709 32.116 13.7138V8.15527H35.3685Z" fill="#394149"/>
<path d="M46.3226 15.1459V17.6824H37.2324V8.15527H40.5214V15.1459H46.3226Z" fill="#394149"/>
<path d="M56.0965 10.5462V8.15527H44.7246V10.5462H48.7418V17.6824H52.0672V10.5462H56.0965Z" fill="#394149"/>
<path fill-rule="evenodd" clip-rule="evenodd" d="M67.7634 9.12627C68.2004 9.57527 68.4074 10.1943 68.4074 11.0559C68.4074 11.7963 68.2254 12.4274 67.9214 12.8521C67.5814 13.3133 67.0594 13.7017 66.4164 13.7988L69.2934 17.6824H65.6764L63.3094 14.3206H60.3606V17.6824H57.1201V8.15527H64.7054C66.2104 8.15527 67.1934 8.51937 67.7634 9.12627ZM65.1424 11.857C65.2274 11.7113 65.2514 11.5171 65.2514 11.3594C65.2514 11.1773 65.2274 10.9831 65.1424 10.8618C64.9724 10.5462 64.6324 10.4613 64.1224 10.4613H60.3727V12.1968H64.1834C64.7054 12.1968 65.0214 12.0997 65.1424 11.857Z" fill="#394149"/>
<path fill-rule="evenodd" clip-rule="evenodd" d="M73.6706 15.9227H78.8166L79.6536 17.6824H83.1616L78.3556 8.15527H74.4356L69.3506 17.6824H72.7846L73.6706 15.9227ZM77.7846 13.7866H74.7386L75.9406 11.4929L76.3046 10.619L76.6446 11.4807L77.7846 13.7866Z" fill="#394149"/>
<path fill-rule="evenodd" clip-rule="evenodd" d="M67.4156 19.4766C65.3796 19.4766 64.3086 20.4416 64.3086 21.8596C64.3086 23.4601 65.4326 24.272 67.4156 24.272C69.5986 24.272 70.5166 23.3306 70.5166 21.8596C70.5166 20.3651 69.4806 19.4766 67.4156 19.4766ZM67.4156 23.0894C66.2566 23.0894 65.9206 22.6128 65.9206 21.8773C65.9206 21.1536 66.2856 20.677 67.4096 20.677C68.6396 20.677 68.9156 21.2124 68.9156 21.8773C68.9156 22.5834 68.5806 23.0894 67.4156 23.0894Z" fill="#394149"/>
<path d="M61.2909 24.2017V21.4657H58.2195V22.4601H59.8611C59.8494 22.5366 59.7905 22.6837 59.714 22.7719C59.5434 22.972 59.0903 23.1485 58.5019 23.1485C57.89 23.1485 57.4958 22.9896 57.284 22.7425C57.1428 22.5601 57.0604 22.3012 57.0604 21.9129C57.0604 21.5069 57.1428 21.2304 57.3016 21.048C57.5311 20.7891 57.9194 20.6773 58.4902 20.6773C59.0021 20.6773 59.3551 20.7949 59.5199 20.942C59.6258 21.0303 59.7081 21.1539 59.7258 21.2362H61.2497C61.2439 21.0891 61.1968 20.8538 61.1144 20.6832C60.7496 19.9418 59.9023 19.5005 58.4608 19.5005C57.2075 19.5005 56.3661 19.8829 55.9013 20.4596C55.5953 20.8538 55.4541 21.348 55.4541 21.9011C55.4541 22.5131 55.6188 23.0367 55.8895 23.3839C56.3484 23.9782 57.1663 24.2723 58.1489 24.2723C59.0139 24.2723 59.6081 24.0664 59.9847 23.7546L60.0259 24.2017H61.2909Z" fill="#394149"/>
<path d="M45.263 21.4068C46.4574 21.5362 46.9693 21.9599 46.9693 22.766C46.9693 23.7427 46.0161 24.2722 44.1391 24.2722C42.3916 24.2722 41.6385 23.778 41.3501 23.1308C41.2854 22.9778 41.256 22.7895 41.2383 22.6718H42.9329C42.9447 22.7424 42.9859 22.8483 43.0447 22.9189C43.1859 23.0896 43.5801 23.1896 44.2509 23.1896C45.1159 23.1896 45.3218 23.066 45.3218 22.8366C45.3218 22.5894 45.11 22.5365 44.3274 22.4541C44.0156 22.4247 43.5213 22.3776 43.3154 22.36C41.8209 22.2246 41.2678 21.7598 41.2678 20.9655C41.2678 20.1417 42.2445 19.5122 44.0273 19.5122C45.6101 19.5122 46.3456 19.9829 46.6516 20.5713C46.7457 20.7478 46.8045 20.9478 46.8222 21.089H45.1276C45.1217 21.0243 45.0982 20.9596 45.0335 20.8772C44.904 20.7066 44.5745 20.5948 43.9861 20.5948C43.1565 20.5948 42.9388 20.6948 42.9388 20.9066C42.9388 21.142 43.2154 21.195 44.1391 21.295C44.498 21.3244 45.0688 21.3832 45.263 21.4068Z" fill="#394149"/>
<path fill-rule="evenodd" clip-rule="evenodd" d="M28.3705 19.9772C28.6823 20.2243 28.8588 20.6421 28.8588 21.2481C28.8588 21.7424 28.7353 22.113 28.4999 22.3719C28.1822 22.7367 27.6585 22.9015 26.976 22.9074C26.7641 22.9133 24.9519 22.9074 24.9519 22.9074V24.2018H23.3691V19.583H26.9524C27.5879 19.583 28.0704 19.7124 28.3705 19.9772ZM27.1996 21.607C27.2466 21.5247 27.2702 21.4187 27.2702 21.2716C27.2702 21.1187 27.2407 20.9892 27.1878 20.9186C27.0878 20.7715 26.8995 20.7009 26.5935 20.7009H24.9401V21.8306H26.5817C26.9112 21.8306 27.1054 21.7541 27.1996 21.607Z" fill="#394149"/>
<path fill-rule="evenodd" clip-rule="evenodd" d="M34.6495 20.0537C34.8614 20.2714 34.9614 20.5715 34.9614 20.9892C34.9614 21.3481 34.8731 21.6541 34.726 21.86C34.5613 22.0836 34.3083 22.2719 33.9964 22.319L35.3909 24.2018H33.6375L32.4901 22.572H31.0603V24.2018H29.4893V19.583H33.1668C33.8964 19.583 34.373 19.7595 34.6495 20.0537ZM33.3786 21.3776C33.4198 21.307 33.4315 21.2128 33.4315 21.1363C33.4315 21.0481 33.4198 20.9539 33.3786 20.8951C33.2962 20.7421 33.1315 20.7009 32.8844 20.7009H31.0662V21.5423H32.9138C33.1668 21.5423 33.3198 21.4952 33.3786 21.3776Z" fill="#394149"/>
<path d="M40.7615 24.2018V23.0545H37.4489V22.4543H40.6262V21.3305H37.4489V20.7362H40.7203V19.583H35.8955V24.2018H40.7615Z" fill="#394149"/>
<path d="M52.6948 20.7421V19.583H47.1816V20.7421H49.1291V24.2018H50.7413V20.7421H52.6948Z" fill="#394149"/>
<path d="M54.8154 19.583V24.2018H53.1973V19.583H54.8154Z" fill="#394149"/>
<path d="M63.6702 19.583V24.2018H62.0518V19.583H63.6702Z" fill="#394149"/>
<path d="M76.7599 19.583V22.419C76.7599 23.6664 75.6299 24.2666 73.9179 24.2666C72.3179 24.2666 71.1699 23.6723 71.1699 22.2719V19.583H72.7649V22.2719C72.7649 22.772 73.1939 23.0839 73.9829 23.0839C74.7359 23.0839 75.1829 22.7603 75.1829 22.2778V19.583H76.7599Z" fill="#394149"/>
<path d="M83.1119 22.766C83.1119 21.9599 82.5999 21.5362 81.4059 21.4068C81.2109 21.3832 80.6409 21.3244 80.2819 21.295C79.3579 21.195 79.0809 21.142 79.0809 20.9066C79.0809 20.6948 79.2989 20.5948 80.1289 20.5948C80.7169 20.5948 81.0469 20.7066 81.1759 20.8772C81.2409 20.9596 81.2639 21.0243 81.2699 21.089H82.9649C82.9469 20.9478 82.8879 20.7478 82.7939 20.5713C82.4879 19.9829 81.7529 19.5122 80.1699 19.5122C78.3869 19.5122 77.4099 20.1417 77.4099 20.9655C77.4099 21.7598 77.9639 22.2246 79.4579 22.36L79.5539 22.3685L79.7139 22.3831L80.4699 22.4541C81.2529 22.5365 81.4639 22.5894 81.4639 22.8366C81.4639 23.066 81.2589 23.1896 80.3939 23.1896C79.7229 23.1896 79.3289 23.0896 79.1869 22.9189C79.1289 22.8483 79.0869 22.7424 79.0759 22.6718H77.3809C77.3989 22.7895 77.4279 22.9778 77.4929 23.1308C77.7809 23.778 78.5339 24.2722 80.2819 24.2722C82.1589 24.2722 83.1119 23.7427 83.1119 22.766Z" fill="#394149"/>
<path fill-rule="evenodd" clip-rule="evenodd" d="M41.9664 25.9702C40.6433 25.9702 39.9473 26.5974 39.9473 27.519C39.9473 28.5591 40.6777 29.0868 41.9664 29.0868C43.3852 29.0868 43.9817 28.475 43.9817 27.519C43.9817 26.5477 43.3087 25.9702 41.9664 25.9702ZM41.9664 28.3182C41.2131 28.3182 40.9951 28.0084 40.9951 27.5304C40.9951 27.0601 41.2322 26.7503 41.9626 26.7503C42.7618 26.7503 42.9416 27.0983 42.9416 27.5304C42.9416 27.9893 42.7236 28.3182 41.9664 28.3182Z" fill="#394149"/>
<path d="M34.6085 28.1079C34.6085 27.584 34.2758 27.3086 33.4995 27.2245C33.3733 27.2092 33.0024 27.171 32.7691 27.1519C32.1687 27.0868 31.989 27.0524 31.989 26.8995C31.989 26.7618 32.1305 26.6968 32.6697 26.6968C33.0521 26.6968 33.2662 26.7694 33.3504 26.8803C33.3924 26.9339 33.4077 26.9759 33.4116 27.018H34.5129C34.5014 26.9262 34.4632 26.7962 34.402 26.6815C34.2031 26.2991 33.7251 25.9932 32.6964 25.9932C31.5378 25.9932 30.903 26.4023 30.903 26.9377C30.903 27.454 31.2624 27.7561 32.2337 27.844C32.3676 27.8555 32.6888 27.8861 32.8915 27.9052C33.4001 27.9587 33.5377 27.9932 33.5377 28.1538C33.5377 28.3029 33.4039 28.3832 32.8418 28.3832C32.4058 28.3832 32.1496 28.3182 32.0578 28.2073C32.0196 28.1614 31.9928 28.0926 31.9852 28.0467H30.8838C30.8953 28.1232 30.9144 28.2455 30.9565 28.345C31.1439 28.7656 31.6334 29.0868 32.7691 29.0868C33.989 29.0868 34.6085 28.7427 34.6085 28.1079Z" fill="#394149"/>
<path fill-rule="evenodd" clip-rule="evenodd" d="M26.9728 28.1921C26.9728 28.3986 26.9154 28.6013 26.8007 28.7351C26.6248 28.9493 26.2959 29.041 25.8715 29.041H23.2061V26.0391H25.7988C26.2118 26.0391 26.4757 26.1386 26.621 26.2877C26.751 26.4177 26.8084 26.5898 26.8084 26.7848C26.8084 26.9799 26.7625 27.1405 26.6631 27.259C26.5827 27.3585 26.4451 27.4349 26.2998 27.4541C26.5139 27.4808 26.7166 27.5879 26.8313 27.737C26.9269 27.8479 26.9728 28.0162 26.9728 28.1921ZM25.6841 27.1405C25.7223 27.0984 25.7453 27.0372 25.7453 26.9646C25.7453 26.8919 25.7223 26.8307 25.6726 26.7887C25.6191 26.7389 25.5196 26.7198 25.3743 26.7198H24.208V27.2093H25.4011C25.5311 27.2093 25.6306 27.1902 25.6841 27.1405ZM25.512 28.3604C25.6917 28.3604 25.7988 28.3374 25.86 28.2801C25.8982 28.2418 25.9135 28.1845 25.9135 28.1118C25.9135 28.0353 25.8944 27.978 25.8485 27.9321C25.7912 27.8824 25.6917 27.8594 25.5235 27.8594H24.208V28.3604H25.512Z" fill="#394149"/>
<path d="M30.5736 28.2954V29.041H27.4111V26.0391H30.5468V26.7887H28.4206V27.1749H30.4856V27.9053H28.4206V28.2954H30.5736Z" fill="#394149"/>
<path d="M38.3302 26.0391V26.7925H37.0606V29.041H36.0129V26.7925H34.7471V26.0391H38.3302Z" fill="#394149"/>
<path d="M47.481 26.0391V26.8001H45.4428V27.2246H47.3854V27.978H45.4428V29.041H44.4141V26.0391H47.481Z" fill="#394149"/>
<path d="M52.6622 26.7925V26.0391H49.0791V26.7925H50.3449V29.041H51.3927V26.7925H52.6622Z" fill="#394149"/>
<path d="M56.5723 26.0391V29.041H55.5475V27.9512H54.0102V29.041H52.9854V26.0391H54.0102V27.1328H55.5475V26.0391H56.5723Z" fill="#394149"/>
<path d="M60.3412 29.041V28.2954H58.1882V27.9053H60.2532V27.1749H58.1882V26.7887H60.3144V26.0391H57.1787V29.041H60.3412Z" fill="#394149"/>
<path d="M66.6815 26.0391H67.6715L66.5745 29.041H65.4505C65.4505 29.041 64.8495 27.2476 64.8455 27.1978C64.8425 27.2476 64.2375 29.041 64.2375 29.041H63.1175L61.9932 26.0391H63.1055C63.1055 26.0391 63.7565 27.9282 63.7565 27.9741C63.7565 27.9282 64.3565 26.0391 64.3565 26.0391H65.4315C65.4315 26.0391 66.0355 27.9282 66.0355 27.9741C66.0355 27.9282 66.6815 26.0391 66.6815 26.0391Z" fill="#394149"/>
<path fill-rule="evenodd" clip-rule="evenodd" d="M69.6352 25.9702C68.3122 25.9702 67.6162 26.5974 67.6162 27.519C67.6162 28.5591 68.3462 29.0868 69.6352 29.0868C71.0542 29.0868 71.6502 28.475 71.6502 27.519C71.6502 26.5477 70.9772 25.9702 69.6352 25.9702ZM69.6352 28.3182C68.8822 28.3182 68.6642 28.0084 68.6642 27.5304C68.6642 27.0601 68.9012 26.7503 69.6312 26.7503C70.4312 26.7503 70.6102 27.0983 70.6102 27.5304C70.6102 27.9893 70.3922 28.3182 69.6352 28.3182Z" fill="#394149"/>
<path fill-rule="evenodd" clip-rule="evenodd" d="M75.437 26.3451C75.574 26.4866 75.639 26.6816 75.639 26.9531C75.639 27.1864 75.582 27.3852 75.486 27.5191C75.379 27.6644 75.215 27.7868 75.012 27.8173L75.918 29.041H74.779L74.033 27.9818H73.104V29.041H72.083V26.0391H74.473C74.947 26.0391 75.257 26.1539 75.437 26.3451ZM74.611 27.2055C74.637 27.1596 74.645 27.0984 74.645 27.0487C74.645 26.9913 74.637 26.9302 74.611 26.8919C74.557 26.7925 74.45 26.7657 74.289 26.7657H73.108V27.3126H74.308C74.473 27.3126 74.572 27.282 74.611 27.2055Z" fill="#394149"/>
<path d="M79.1111 29.041V28.2418H77.2831V26.0391H76.2471V29.041H79.1111Z" fill="#394149"/>
<path fill-rule="evenodd" clip-rule="evenodd" d="M83.1656 27.4846C83.1656 27.9512 83.1196 28.2036 82.9826 28.4407C82.7756 28.8192 82.3666 29.041 81.6436 29.041H79.5176V26.0391H81.6206C82.3396 26.0391 82.7646 26.2418 82.9746 26.5898C83.1236 26.8231 83.1656 27.0716 83.1656 27.4846ZM81.4486 28.303C81.7736 28.303 81.9576 28.2265 82.0686 28.0583C82.1376 27.955 82.1566 27.7141 82.1566 27.5038C82.1526 27.3126 82.1296 27.1099 82.0686 27.0181C81.9496 26.8384 81.7706 26.7734 81.4566 26.7734H80.5426V28.303H81.4486Z" fill="#394149"/>
<path d="M42.1454 43.6406H40.5608C40.5608 43.6406 39.5268 46.6631 39.5268 46.7365C39.5268 46.6631 38.5601 43.6406 38.5601 43.6406H36.8408C36.8408 43.6406 35.8802 46.6631 35.8802 46.7365C35.8802 46.6631 34.8401 43.6406 34.8401 43.6406H33.0596L34.8584 48.4435H36.6511C36.6511 48.4435 37.6178 45.574 37.6239 45.4945C37.6301 45.574 38.5906 48.4435 38.5906 48.4435H40.3894L42.1454 43.6406Z" fill="#394149"/>
<path d="M44.3135 48.4435V43.6406H42.6309V48.4435H44.3135Z" fill="#394149"/>
<path d="M50.8581 43.6406V48.4435H49.2183L46.8383 45.7698V48.4435H45.2598V43.6406H46.9851L49.2917 46.2532V43.6406H50.8581Z" fill="#394149"/>
<path d="M57.4128 48.4435V43.6406H55.8465V46.2532L53.5399 43.6406H51.8145V48.4435H53.393V45.7698L55.7731 48.4435H57.4128Z" fill="#394149"/>
<path d="M63.4286 47.2504V48.4435H58.3682V43.6406H63.3856V44.8398H59.9835V45.4578H63.2876V46.6264H59.9835V47.2504H63.4286Z" fill="#394149"/>
<path fill-rule="evenodd" clip-rule="evenodd" d="M69.8961 45.1029C69.8961 44.6685 69.7921 44.3565 69.5721 44.1301C69.2841 43.8242 68.7891 43.6406 68.0301 43.6406H64.2061V48.4435H65.84V46.7487H67.3271L68.5201 48.4435H70.3431L68.8931 46.4857C69.2171 46.4367 69.4801 46.2409 69.6521 46.0084C69.8041 45.7943 69.8961 45.4761 69.8961 45.1029ZM68.3051 45.2559C68.3051 45.3354 68.2931 45.4333 68.2501 45.5067C68.1891 45.6291 68.0301 45.678 67.7671 45.678H65.8461V44.8031H67.7361C67.9931 44.8031 68.1651 44.8459 68.2501 45.005C68.2931 45.0662 68.3051 45.1641 68.3051 45.2559Z" fill="#394149"/>
<path d="M37.2596 35.1667L36.5961 33.1245L35.9325 35.1667H33.7852L35.5224 36.4288L34.8589 38.471L36.5961 37.2089L38.3332 38.471L37.6697 36.4288L39.4069 35.1667H37.2596Z" fill="#394149"/>
<path d="M44.2569 33.1235L44.934 35.1657H47.1251L45.3525 36.4279L46.0296 38.47L44.2569 37.2079L42.4843 38.47L43.1614 36.4279L41.3887 35.1657H43.5798L44.2569 33.1235Z" fill="#394149"/>
<path d="M52.5326 35.1657L51.8556 33.1235L51.1785 35.1657H48.9873L50.76 36.4279L50.0829 38.47L51.8556 37.2079L53.6282 38.47L52.9511 36.4279L54.7238 35.1657H52.5326Z" fill="#394149"/>
<path d="M59.4561 33.1235L60.1332 35.1657H62.3243L60.5517 36.4279L61.2288 38.47L59.4561 37.2079L57.6835 38.47L58.3606 36.4279L56.5879 35.1657H58.7791L59.4561 33.1235Z" fill="#394149"/>
<path d="M67.7797 35.1657L67.1157 33.1235L66.4517 35.1657H64.3047L66.0417 36.4279L65.3787 38.47L67.1157 37.2079L68.8527 38.47L68.1897 36.4279L69.9267 35.1657H67.7797Z" fill="#394149"/>
<path d="M95.6381 11.2222C96.2731 9.60775 95.9971 7.75104 95.4121 6.18964C94.7961 4.54674 93.7241 2.90805 92.1221 2.04395C92.0421 3.77545 92.5711 5.48595 93.1491 7.02845C93.6691 8.41575 94.3061 9.89375 95.3591 11.041C95.5211 11.9102 95.6451 12.777 95.7321 13.6398C95.3831 12.7285 94.8181 11.8979 94.1121 11.2299C93.2031 10.3694 91.8501 9.70565 90.5811 10.0982C90.9531 11.5013 91.8001 12.8465 92.8041 13.7901C93.5941 14.5328 94.6371 15.4844 95.8651 15.5219C95.9161 16.792 95.8871 18.0505 95.7821 19.2919C95.6091 18.3835 95.2381 17.5281 94.701 16.8911C93.9641 16.0157 92.8711 14.9464 91.4761 15.1253C91.5521 16.5455 92.1191 18.0006 92.9081 19.094C93.534 19.9629 94.3621 21.0704 95.5371 21.3565C95.3491 22.576 95.0871 23.7753 94.7541 24.9489C94.7511 24.0503 94.553 23.1682 94.159 22.4607C93.604 21.4631 92.7391 20.2188 91.3421 20.1215C91.1371 21.5148 91.4151 23.0379 91.9751 24.2493C92.4221 25.2176 93.0191 26.4524 94.1061 26.9633C93.6491 28.2263 93.1091 29.4541 92.4891 30.639C92.7071 29.6176 92.6981 28.5413 92.4411 27.5728C92.0861 26.238 91.2061 24.8358 89.7921 24.429C89.2921 25.9028 89.3611 27.5472 89.6521 29.045C89.8911 30.2783 90.3601 31.7267 91.4121 32.5278C90.7241 33.6385 89.9631 34.7044 89.1321 35.7186C89.5791 34.724 89.8001 33.6361 89.6811 32.6402C89.5081 31.1898 89.1011 29.6385 87.6201 28.8655C86.7791 30.3155 86.5841 31.9422 86.5131 33.5489C86.4551 34.8479 86.6421 36.4501 87.5451 37.5069C86.5521 38.5383 85.482 39.5036 84.3391 40.3938C85.0771 39.4467 85.5941 38.3354 85.7031 37.2364C85.8581 35.6835 85.7831 33.9741 84.4041 32.8344C83.2261 34.0654 82.5221 35.8783 82.1781 37.4529C81.8731 38.845 81.5551 40.4929 82.2801 41.863C80.8251 42.8132 79.2711 43.6503 77.6281 44.3593C78.7841 43.5355 79.7301 42.4052 80.1811 41.2382C80.7721 39.7088 81.1371 37.8862 79.9871 36.3544C78.4451 37.3419 77.3121 39.0266 76.4191 40.5633C75.6531 41.8819 74.8601 43.7018 75.2541 45.2721C74.3441 45.5807 73.4111 45.8517 72.4561 46.0829L72.5131 46.3174C73.4711 46.0853 74.4081 45.8134 75.3211 45.5039C75.9611 47.3945 78.0571 48.0193 79.7521 48.295C82.1671 48.6879 85.0431 47.9267 87.1051 46.393C86.0161 44.8551 83.7961 44.6991 82.1221 44.5814L82.1001 44.5799C80.2661 44.451 78.2821 44.6232 76.4381 45.1025C78.5681 44.2914 80.5621 43.2714 82.4011 42.0724L82.4261 42.1124C83.4331 43.7486 85.4571 43.8126 87.0451 43.7092C89.2001 43.569 91.6871 42.2591 93.1261 40.4484C91.7721 39.2606 89.7731 39.5929 88.2231 39.8504L88.215 39.8518C86.486 40.1392 84.5971 40.7661 83.0111 41.7315C83.1621 41.6126 83.3091 41.4869 83.4531 41.355C84.9951 40.2555 86.4171 39.0256 87.7081 37.6846C87.7261 37.7025 87.7441 37.7201 87.7621 37.7376C89.0181 38.9907 90.8411 38.6601 92.2651 38.25C94.1751 37.7 96.1551 36.0407 97.104 34.1358C95.633 33.3118 93.8751 33.9907 92.5081 34.5279C91.0051 35.1179 89.4161 36.062 88.1941 37.2657C88.3201 37.1067 88.4411 36.9405 88.5551 36.7685C89.6901 35.4868 90.7121 34.1143 91.6101 32.6663L91.6491 32.6904L91.659 32.6967C93.0781 33.6099 94.6861 32.9468 95.9601 32.2946C97.6891 31.4097 99.0791 29.4649 99.6791 27.5523C98.1451 27.061 96.6301 28.0253 95.4521 28.789C94.1621 29.6247 92.8561 30.8167 91.9601 32.1838C92.0261 32.0489 92.0881 31.9109 92.1451 31.7704C93.0061 30.2681 93.7371 28.6911 94.3291 27.0552L94.3601 27.0656L94.3651 27.0676C95.6561 27.5563 97.0931 26.7936 98.0301 25.9572C99.3321 24.794 100.251 23.0057 100.466 21.2586C99.1201 21.0842 97.8511 22.1258 96.9841 23.0141C95.9861 24.0373 95.0891 25.2466 94.5381 26.59C94.5791 26.4434 94.6141 26.2945 94.6431 26.144C95.1441 24.6072 95.5241 23.0223 95.7741 21.4021L95.812 21.4071C97.1721 21.6273 98.4301 20.5924 99.1821 19.5879C100.24 18.1744 100.785 16.2181 100.648 14.4449C99.2891 14.5401 98.2531 15.8337 97.5821 16.8803C96.8041 18.0924 96.1591 19.4643 95.8771 20.8996C95.8861 20.7848 95.8911 20.6694 95.8931 20.5536C96.1001 18.9043 96.1741 17.2212 96.1061 15.5174C97.4951 15.4687 98.5241 14.1791 99.0541 13.0355C99.8111 11.3998 99.9331 9.33205 99.4281 7.58955C98.1051 7.96085 97.3671 9.47815 96.9321 10.6462C96.4301 11.993 96.0801 13.4621 96.0771 14.9225C96.0051 13.6973 95.8591 12.4623 95.6381 11.2222Z" fill="#394149"/>
</svg>
