<svg width="150" height="57" viewBox="0 0 150 57" fill="none" xmlns="http://www.w3.org/2000/svg">
<path d="M30.5703 28.9045C30.5703 26.8236 31.8127 25.374 33.7114 25.374C35.6101 25.374 36.8524 26.8236 36.8524 28.9045C36.8524 30.9621 35.6101 32.435 33.7114 32.435C31.8127 32.435 30.5703 30.9621 30.5703 28.9045Z" fill="#152C4F"/>
<path d="M46.6273 25.2808C44.8224 25.2808 43.6035 26.6836 43.6035 28.6009C43.6035 30.5415 44.8458 31.9911 46.6273 31.9911C48.5963 31.9911 49.909 30.5181 49.909 28.6009C49.909 26.707 48.5963 25.2808 46.6273 25.2808Z" fill="#152C4F"/>
<path d="M57.0908 28.9045C57.0908 26.8236 58.3332 25.374 60.2319 25.374C62.1306 25.374 63.3729 26.8236 63.3729 28.9045C63.3729 30.9621 62.1306 32.435 60.2319 32.435C58.3332 32.435 57.0908 30.9621 57.0908 28.9045Z" fill="#152C4F"/>
<path d="M76.1934 28.928C76.1934 26.8471 77.4592 25.3975 79.4516 25.3975C81.4441 25.3975 82.6395 26.8705 82.6395 28.928C82.6395 30.9855 81.4441 32.4351 79.4516 32.4351C77.4592 32.4351 76.1934 31.0089 76.1934 28.928Z" fill="#152C4F"/>
<path fill-rule="evenodd" clip-rule="evenodd" d="M75.0001 53.3655C114.828 53.3655 147.115 42.065 147.115 28.1251C147.115 14.1852 114.828 2.88477 75.0001 2.88477C35.1719 2.88477 2.88477 14.1852 2.88477 28.1251C2.88477 42.065 35.1719 53.3655 75.0001 53.3655ZM25.9368 34.7032V17.3078H23.077V34.7032H25.9368ZM27.6871 28.9047C27.6871 32.4586 30.0781 34.9838 33.7114 34.9838C37.3447 34.9838 39.7356 32.4586 39.7356 28.9047C39.7356 25.3508 37.3447 22.8257 33.7114 22.8257C30.0781 22.8257 27.6871 25.3508 27.6871 28.9047ZM46.1357 34.4694C42.8774 34.4694 40.6974 32.0378 40.6974 28.6709C40.6974 25.2807 42.9243 22.7789 46.2294 22.7789C47.9406 22.7789 49.3939 23.5038 50.0971 24.7196L50.2612 23.153H52.7928V34.1187C52.7928 37.9298 50.4019 40.3847 46.6514 40.3847C43.4634 40.3847 41.1428 38.4208 40.7678 35.4046H43.651C43.815 36.9244 45.034 37.7895 46.8154 37.7895C48.8079 37.7895 50.0034 36.5269 50.0034 34.633V32.6691C49.2767 33.7913 47.8234 34.4694 46.1357 34.4694ZM54.208 28.9047C54.208 32.4586 56.599 34.9838 60.2323 34.9838C63.8656 34.9838 66.2565 32.4586 66.2565 28.9047C66.2565 25.3508 63.8656 22.8257 60.2323 22.8257C56.599 22.8257 54.208 25.3508 54.208 28.9047ZM71.0626 19.0848C71.0626 20.0434 70.2891 20.7916 69.3514 20.7916C68.3904 20.7916 67.6637 20.0434 67.6637 19.0848C67.6637 18.1495 68.3904 17.4013 69.3514 17.4013C70.2891 17.4013 71.0626 18.1495 71.0626 19.0848ZM70.7813 23.153V34.7032H67.9216V23.153H70.7813ZM73.2867 40.0574H76.0762V33.1133C76.8028 34.3057 78.3733 35.0071 80.108 35.0071C83.5303 35.0071 85.5696 32.3885 85.5227 28.7878C85.4524 25.1638 83.3662 22.8023 80.0845 22.8023C78.3265 22.8023 76.7325 23.5739 76.0293 24.9066L75.8652 23.153H73.2867V40.0574ZM90.8901 35.0071C88.1241 35.0071 86.3426 33.5341 86.2489 31.2428H88.8508C88.8508 32.2482 89.5774 32.8327 90.8432 32.8327C91.8981 32.8327 92.7654 32.4119 92.7654 31.5C92.7654 30.8453 92.2965 30.4946 91.5464 30.2842L89.5306 29.7698C87.3037 29.1853 86.4364 27.9461 86.4364 26.4497C86.4364 24.2519 88.2882 22.8023 90.7729 22.8023C93.281 22.8023 94.9922 24.2519 95.086 26.5433H92.4841C92.4841 25.5379 91.7808 24.93 90.7026 24.93C89.6712 24.93 89.0383 25.4911 89.0383 26.2861C89.0383 27.0343 89.6243 27.3382 90.4916 27.572L92.531 28.063C94.4297 28.5306 95.461 29.6529 95.461 31.313C95.461 33.5575 93.6092 35.0071 90.8901 35.0071ZM101.393 35.0071C102.963 35.0071 104.463 34.2823 105.143 33.2068L105.331 34.7032H108.003V23.153H105.143V29.2087C105.143 31.2896 104.346 32.4586 102.471 32.4586C101.018 32.4586 100.01 31.7572 100.01 29.3724V23.153H97.15V30.3777C97.15 33.1367 98.6502 35.0071 101.393 35.0071ZM113.387 28.063V34.7032H110.527V23.153H113.152L113.293 24.4624C113.973 23.4336 115.192 22.8023 116.551 22.8023C118.473 22.8023 119.739 23.644 120.372 25.0001C120.935 23.644 122.318 22.8023 124.076 22.8023C126.889 22.8023 128.365 24.4858 128.365 27.1512V34.7032H125.599V27.8058C125.599 26.1692 124.709 25.3041 123.326 25.3041C121.966 25.3041 120.888 26.1926 120.888 28.0864V34.7032H118.098V27.8058C118.098 26.1692 117.208 25.3041 115.848 25.3041C114.489 25.3041 113.387 26.1926 113.387 28.063Z" fill="#152C4F"/>
</svg>
