<svg width="84" height="40" viewBox="0 0 84 40" fill="none" xmlns="http://www.w3.org/2000/svg">
<g clip-path="url(#clip0_141_4121)">
<path d="M76.0619 38.9452V39.04C76.0385 39.0936 76.0103 39.1452 75.9776 39.1939L75.8572 39.336L75.7368 39.4426C75.6112 39.5476 75.4688 39.6316 75.3154 39.6912H75.2552C75.1057 39.7499 74.9467 39.782 74.7857 39.786H69.9702C69.8417 39.7901 69.7139 39.7668 69.5954 39.7178C69.477 39.6687 69.3707 39.595 69.284 39.5018L64.023 34.1497L60.5678 39.3123L60.4956 39.407L60.3752 39.5491H60.315H60.2548H60.1705C60.074 39.6301 59.9641 39.6942 59.8455 39.7386L59.7251 39.7978C59.5741 39.8519 59.416 39.8838 59.2556 39.8925H54.44C54.3116 39.8966 54.1837 39.8734 54.0653 39.8243C53.9468 39.7753 53.8406 39.7016 53.7538 39.6083L51.96 37.5836L45.6516 39.7978C45.5041 39.8631 45.3438 39.8954 45.1821 39.8925C44.9635 39.8984 44.7499 39.8269 44.5802 39.6912L44.4838 39.5965L41.4741 36.21C41.3537 36.6126 41.2574 37.0152 41.125 37.3941L41.0528 37.5599C41.032 37.6147 41.0036 37.6665 40.9685 37.7138L40.8963 37.8085L40.7638 37.9506L40.5953 38.1046C40.5022 38.1748 40.4012 38.2344 40.2943 38.2822L39.9452 38.7084C39.7796 38.7695 39.6044 38.8015 39.4275 38.8032H35.4788C35.3511 38.8096 35.2236 38.7885 35.1051 38.7415C34.9866 38.6944 34.8799 38.6226 34.7926 38.5308L33.4924 37.0626L32.9265 38.9097C32.9131 38.9726 32.8886 39.0327 32.8543 39.0874L32.782 39.2413L32.7098 39.336L32.5895 39.4781C32.5393 39.5354 32.4827 39.587 32.4209 39.632C32.3208 39.6982 32.2162 39.7575 32.1079 39.8096L31.9514 39.8925C31.7902 39.956 31.6192 39.9921 31.4457 39.9991H24.2946C24.1642 40.0049 24.034 39.9825 23.9134 39.9334C23.7927 39.8843 23.6845 39.8097 23.5964 39.7149L22.549 38.5308H18.7568L18.6725 38.815C18.6579 38.8759 18.6377 38.9353 18.6123 38.9926C18.5796 39.0414 18.5514 39.0929 18.528 39.1465L18.4558 39.2413L18.3354 39.3834C18.2852 39.4407 18.2287 39.4923 18.1669 39.5373C18.0668 39.6034 17.9622 39.6628 17.8538 39.7149L17.6973 39.7978C17.5362 39.8613 17.3652 39.8973 17.1917 39.9044H12.7253C12.5968 39.9085 12.469 39.8852 12.3505 39.8362C12.2321 39.7871 12.1258 39.7134 12.0391 39.6202L10.6546 38.069H6.52524C6.3976 38.0754 6.27011 38.0544 6.1516 38.0074C6.03308 37.9603 5.92642 37.8884 5.83905 37.7967L0.216875 31.8052C0.261898 31.8499 0.314969 31.8861 0.373386 31.9118C0.26926 31.851 0.182335 31.7655 0.12058 31.6631C0.0413462 31.511 0 31.3426 0 31.1717C0 31.0008 0.0413462 30.8324 0.12058 30.6803C3.30029 24.2563 5.90647 17.5726 7.90974 10.7048V10.6219L7.51244 10.1719C7.51244 10.1719 7.57265 10.1719 7.60877 10.2548C7.47556 10.1345 7.38159 9.97806 7.33873 9.80525C7.29588 9.63243 7.30605 9.45099 7.36798 9.28387L8.68021 4.95012C8.78974 4.62307 8.99609 4.33564 9.27279 4.12468C9.54948 3.91372 9.88391 3.78884 10.2332 3.76603H15.0488L15.8313 1.18471C15.9423 0.858504 16.149 0.571948 16.4254 0.361205C16.7018 0.150462 17.0355 0.0249814 17.3843 0.00062735H21.8869C22.0207 -0.00449731 22.1539 0.0218341 22.2753 0.0774333C22.3968 0.133032 22.5029 0.216303 22.5851 0.320336L24.1261 2.06095L24.2465 1.74124C24.3553 1.41155 24.5631 1.12199 24.8424 0.910645C25.1218 0.699298 25.4597 0.576061 25.8116 0.55715H41.7149C41.8483 0.554799 41.9806 0.582374 42.1016 0.637768C42.2225 0.693161 42.3291 0.774924 42.4132 0.876858L47.2287 6.3355L47.1445 1.78861C47.1512 1.58831 47.1995 1.39147 47.2864 1.21023C47.3734 1.02899 47.4971 0.867174 47.6501 0.734756C47.941 0.437424 48.3383 0.263297 48.7577 0.249294H53.5732C53.7275 0.244624 53.8803 0.280577 54.0158 0.353436C54.1512 0.426295 54.2644 0.533405 54.3437 0.663713C54.3228 0.616153 54.2944 0.57218 54.2594 0.533463L57.8711 4.5712L58.4851 2.54643C58.5917 2.21767 58.7973 1.92848 59.0746 1.71706C59.3519 1.50565 59.6878 1.38196 60.0381 1.36234H77.6149C77.7493 1.35674 77.8833 1.38158 78.0065 1.43495C78.1296 1.48833 78.2386 1.56881 78.3252 1.67019L83.8149 7.86296L83.8871 7.94586C83.946 8.03496 83.9831 8.13629 83.9955 8.24188C83.9955 8.24188 83.9955 8.24188 83.9955 8.30109C84.0015 8.38782 84.0015 8.47484 83.9955 8.56157C83.9997 8.6286 83.9997 8.69585 83.9955 8.76288L78.4696 26.8676L78.3974 27.0452L78.3131 27.1991C78.3131 27.1991 78.3131 27.2583 78.2409 27.2938L78.1205 27.4359L77.9399 27.5899C77.8436 27.6609 77.7353 27.7083 77.6389 27.7675C77.5426 27.8267 77.5306 27.8385 77.4824 27.8504C77.3192 27.9207 77.143 27.957 76.9648 27.9569H74.557L75.5081 29.0226V29.1055C75.5692 29.2151 75.6061 29.3361 75.6164 29.4607L76.1461 38.3887V38.7084C76.1461 38.7084 76.1461 38.7084 76.1461 38.7913C76.1461 38.8742 76.0619 38.9097 76.0619 38.9452Z" fill="black"/>
<path d="M1.30078 30.9051C4.5156 24.4074 7.15391 17.6488 9.18628 10.7046H12.9303C10.9518 17.632 8.39903 24.3881 5.2977 30.9051H1.30078ZM25.4989 1.71739L24.1867 6.0038H40.066L41.3782 1.71739H25.4989ZM13.3156 31.3196H17.794C20.6029 26.6665 22.8302 21.6968 24.4274 16.5185H20.4426C18.788 21.7435 16.3797 26.7081 13.2915 31.2604L13.3156 31.3196ZM21.1288 10.2902L19.8045 14.6476H27.401L23.1995 28.4422H20.4546L19.1303 32.7641H26.2814L31.7953 14.6476H39.1751L40.5114 10.2902H21.1288ZM17.7579 13.7359L19.1063 9.31922H21.8873L23.2115 4.98548H20.4546L21.6585 1.23193H17.0717L15.8678 4.98548H9.90858L8.58433 9.31922H14.6037L7.5008 32.7878H11.9672L16.1567 19.0287L17.7338 20.5562L19.335 15.2989L17.7579 13.7359ZM32.4453 16.6606C32.5606 21.6751 31.8616 26.6756 30.3747 31.4735H34.3355C35.8309 26.6692 36.6413 21.684 36.7432 16.6606H32.4453ZM53.3087 1.3977H48.433L48.5654 8.96401H53.4532L53.3087 1.3977ZM43.1118 11.3322L41.7032 15.9738H45.0621L39.9456 32.7878L48.5775 29.7566L50.1546 24.5584L46.7114 25.7425L51.1056 11.3203L43.1118 11.3322ZM54.0552 32.7641L60.0144 23.848H55.1989L49.1794 32.7641H54.0552ZM59.7616 2.52258L54.2117 20.7101H71.7884L77.3263 2.52258H59.7616ZM68.574 16.1751H60.207L62.976 7.04578H71.4032L68.6222 16.1751M64.0233 23.8124L64.5531 32.7286H69.3686L68.8269 23.8124H64.0233Z" fill="white"/>
</g>
<defs>
<clipPath id="clip0_141_4121">
<rect width="84" height="40" fill="white"/>
</clipPath>
</defs>
</svg>
