<svg width="80" height="80" viewBox="0 0 80 80" fill="none" xmlns="http://www.w3.org/2000/svg">
<path d="M40.6396 75.9522C31.1001 75.9522 21.9507 72.166 15.2008 65.425C8.45083 58.684 4.65237 49.5396 4.63965 40.0002V3.95215H76.6396V40.0002C76.627 49.5396 72.8284 58.684 66.0785 65.425C59.3286 72.166 50.1791 75.9522 40.6396 75.9522Z" stroke="black" stroke-width="1.6" stroke-miterlimit="10"/>
<path d="M40.64 70.608C32.1827 70.608 24.0718 67.2485 18.0917 61.2683C12.1116 55.2882 8.75195 47.1773 8.75195 38.72V6.83203H72.512V38.72C72.512 47.1746 69.1546 55.2829 63.1778 61.2626C57.2011 67.2422 49.0944 70.6038 40.64 70.608Z" stroke="black" stroke-width="1.6" stroke-miterlimit="10"/>
<path d="M40.6398 65.248C36.9868 65.2563 33.3681 64.5441 29.9907 63.152C26.6134 61.7598 23.5438 59.7153 20.9579 57.1352C18.3718 54.5552 16.3201 51.4902 14.9202 48.1161C13.5204 44.742 12.7998 41.1249 12.7998 37.472V9.71191H68.3998V37.472C68.4019 41.1187 67.6854 44.7302 66.2913 48.1001C64.8972 51.4699 62.8528 54.5321 60.2747 57.1115C57.6968 59.691 54.6358 61.7372 51.2668 63.1332C47.8977 64.5294 44.2867 65.248 40.6398 65.248Z" stroke="black" stroke-width="1.6" stroke-miterlimit="10"/>
<path d="M40.6396 59.8882C34.3663 59.8882 28.3497 57.3973 23.9122 52.9629C19.4748 48.5285 16.9797 42.5134 16.9756 36.2402V12.5762H64.2876V36.2402C64.2876 42.512 61.7961 48.527 57.3612 52.9618C52.9263 57.3966 46.9114 59.8882 40.6396 59.8882Z" stroke="black" stroke-width="1.6" stroke-miterlimit="10"/>
<path d="M40.6399 54.544C35.4543 54.544 30.4812 52.4842 26.8145 48.8175C23.1479 45.1508 21.0879 40.1776 21.0879 34.992V15.4561H60.1759V34.992C60.1759 40.1748 58.1181 45.1455 54.4549 48.8117C50.7916 52.478 45.8226 54.5399 40.6399 54.544Z" stroke="black" stroke-width="1.6" stroke-miterlimit="10"/>
<path d="M40.6402 49.1839C36.548 49.1839 32.6232 47.5593 29.7282 44.6673C26.833 41.7751 25.2045 37.8521 25.2002 33.7599V18.3359H56.0002V33.7599C55.996 37.8382 54.3784 41.7492 51.5007 44.6391C48.6228 47.5289 44.7184 49.1628 40.6402 49.1839Z" stroke="black" stroke-width="1.6" stroke-miterlimit="10"/>
<path d="M40.6395 43.8402C37.6352 43.8402 34.7538 42.6468 32.6294 40.5223C30.505 38.398 29.3115 35.5165 29.3115 32.5122V21.2002H51.9515V32.5122C51.9515 35.5138 50.7603 38.3927 48.6394 40.5167C46.5184 42.6407 43.6411 43.8359 40.6395 43.8402Z" stroke="black" stroke-width="1.6" stroke-miterlimit="10"/>
<path d="M40.6404 38.4801C38.731 38.4801 36.8996 37.7215 35.5492 36.3713C34.199 35.021 33.4404 33.1897 33.4404 31.2801V24.0801H47.8404V31.2801C47.8363 33.1884 47.0763 35.0174 45.727 36.3666C44.3775 37.7161 42.5487 38.4759 40.6404 38.4801Z" stroke="black" stroke-width="1.6" stroke-miterlimit="10"/>
</svg>
