<svg width="32" height="32" viewBox="0 0 32 32" fill="none" xmlns="http://www.w3.org/2000/svg">
<path fill-rule="evenodd" clip-rule="evenodd" d="M15.4316 10.0187C15.4316 6.33343 18.4182 3.34619 22.1017 3.34619C24.2641 3.34619 25.9908 4.36906 27.1479 5.85346C28.3906 5.5992 29.5592 5.13939 30.6165 4.51208C30.1996 5.81533 29.3175 6.91106 28.1674 7.60445L28.1704 7.61119C29.2983 7.47428 30.3714 7.17435 31.3706 6.73156L31.3683 6.73516C30.6494 7.81181 29.7457 8.76228 28.7067 9.53663C28.7626 9.91291 28.791 10.2917 28.791 10.6683C28.791 18.5324 22.8 27.6791 11.779 27.6791C8.40372 27.6791 5.25999 26.69 2.61383 24.9923C2.118 24.6743 1.97395 24.0144 2.29208 23.5186C2.32018 23.4747 2.35096 23.4337 2.38405 23.3953C2.57281 23.083 2.9324 22.8925 3.31858 22.9379C5.27113 23.1681 7.22317 22.93 8.94373 22.1785C7.23721 21.4258 5.91248 19.9674 5.33808 18.1754C5.23472 17.8529 5.30887 17.4999 5.53321 17.2462C5.541 17.2375 5.54891 17.2288 5.55696 17.2204C4.19006 16.0174 3.32781 14.255 3.32781 12.291V12.2188C3.32781 11.8786 3.50782 11.5638 3.80103 11.3914C3.89737 11.3347 4.00118 11.2961 4.10774 11.2758C3.63877 10.3712 3.37353 9.34357 3.37353 8.25501C3.37353 7.25676 3.37925 5.99867 4.08214 4.86564C4.23971 4.61164 4.49656 4.45676 4.77138 4.42007C5.1756 4.29296 5.63425 4.41525 5.91838 4.76368C8.24649 7.6186 11.6071 9.59101 15.4322 10.1111L15.4316 10.0187ZM11.779 25.5457C10.0993 25.5457 8.48638 25.266 6.98168 24.7515C8.81131 24.4347 10.5669 23.7138 12.0797 22.5283C12.3996 22.2777 12.5269 21.8527 12.3977 21.4674C12.2686 21.0822 11.9108 20.82 11.5045 20.8129C10.005 20.7864 8.67691 20.0472 7.84664 18.9193C8.25272 18.8864 8.64952 18.8167 9.03388 18.7128C9.46392 18.5965 9.75747 18.1997 9.74277 17.7544C9.72807 17.3092 9.40901 16.9326 8.97223 16.8449C7.3112 16.5114 5.97123 15.2909 5.46533 13.6996C5.89383 13.8031 6.33857 13.8647 6.79467 13.8796C7.22307 13.8936 7.60884 13.6219 7.74002 13.2139C7.87117 12.8058 7.71593 12.3602 7.3596 12.122C6.11288 11.2885 5.29353 9.86581 5.29353 8.25501C5.29353 7.89779 5.29857 7.57896 5.31996 7.28991C8.21618 10.2381 12.179 12.1371 16.5889 12.3591C16.9225 12.3759 17.2447 12.2355 17.4595 11.9797C17.6743 11.7239 17.7568 11.3823 17.6825 11.0566C17.6058 10.7203 17.5649 10.374 17.5649 10.0187C17.5649 7.51105 19.597 5.47952 22.1017 5.47952C24.7349 5.47952 26.6577 7.91901 26.6577 10.6683C26.6577 17.615 21.3768 25.5457 11.779 25.5457Z" fill="#FFCD3A"/>
</svg>
