<svg width="104" height="74" viewBox="0 0 104 74" fill="none" xmlns="http://www.w3.org/2000/svg">
<path d="M8.47167 67.076V52H6V67.076H8.47167Z" fill="#152C4F"/>
<path d="M9.98438 62.0507C9.98438 65.1307 12.0509 67.3191 15.1911 67.3191C18.3313 67.3191 20.3978 65.1307 20.3978 62.0507C20.3978 58.9706 18.3313 56.7822 15.1911 56.7822C12.0509 56.7822 9.98438 58.9706 9.98438 62.0507ZM12.4763 62.0507C12.4763 60.2472 13.5501 58.9909 15.1911 58.9909C16.8321 58.9909 17.9059 60.2472 17.9059 62.0507C17.9059 63.8338 16.8321 65.1104 15.1911 65.1104C13.5501 65.1104 12.4763 63.8338 12.4763 62.0507Z" fill="#152C4F"/>
<path d="M21.2295 61.8481C21.2295 64.7661 23.1136 66.8735 25.9297 66.8735C27.3884 66.8735 28.6445 66.2858 29.2725 65.3132V67.0153C29.2725 68.6566 28.2393 69.7509 26.5172 69.7509C24.9775 69.7509 23.924 69.0011 23.7822 67.684H21.2903C21.6144 70.298 23.6201 72.0001 26.3754 72.0001C29.617 72.0001 31.6834 69.8724 31.6834 66.5695V57.066H29.4954L29.3536 58.4236C28.7458 57.3699 27.4897 56.7417 26.0107 56.7417C23.1541 56.7417 21.2295 58.9099 21.2295 61.8481ZM23.7417 61.7873C23.7417 60.1257 24.7952 58.9099 26.3552 58.9099C28.057 58.9099 29.1915 60.146 29.1915 61.7873C29.1915 63.4489 28.057 64.7255 26.3552 64.7255C24.8154 64.7255 23.7417 63.4692 23.7417 61.7873Z" fill="#152C4F"/>
<path d="M32.9062 62.0507C32.9062 65.1307 34.9727 67.3191 38.1129 67.3191C41.2531 67.3191 43.3196 65.1307 43.3196 62.0507C43.3196 58.9706 41.2531 56.7822 38.1129 56.7822C34.9727 56.7822 32.9062 58.9706 32.9062 62.0507ZM35.3982 62.0507C35.3982 60.2472 36.4719 58.9909 38.1129 58.9909C39.7539 58.9909 40.8278 60.2472 40.8278 62.0507C40.8278 63.8338 39.7539 65.1104 38.1129 65.1104C36.4719 65.1104 35.3982 63.8338 35.3982 62.0507Z" fill="#152C4F"/>
<path d="M45.9948 55.0193C46.8052 55.0193 47.4738 54.3708 47.4738 53.54C47.4738 52.7295 46.8052 52.0811 45.9948 52.0811C45.1642 52.0811 44.5361 52.7295 44.5361 53.54C44.5361 54.3708 45.1642 55.0193 45.9948 55.0193ZM44.759 67.076H47.2307V57.0659H44.759V67.076Z" fill="#152C4F"/>
<path d="M49.3955 71.7161H51.8063V65.6979C52.4344 66.7313 53.7918 67.3392 55.291 67.3392C58.2489 67.3392 60.0115 65.0697 59.9709 61.9491C59.9102 58.8083 58.1071 56.7617 55.2707 56.7617C53.7513 56.7617 52.3736 57.4304 51.7658 58.5854L51.624 57.0657H49.3955V71.7161ZM51.9076 62.0707C51.9076 60.2673 53.0017 59.0109 54.7237 59.0109C56.4458 59.0109 57.479 60.2875 57.479 62.0707C57.479 63.8539 56.4458 65.1102 54.7237 65.1102C53.0017 65.1102 51.9076 63.8742 51.9076 62.0707Z" fill="#152C4F"/>
<path d="M60.5986 64.0768C60.6797 66.0626 62.2194 67.3392 64.61 67.3392C66.9601 67.3392 68.5606 66.0829 68.5606 64.1376C68.5606 62.6989 67.6692 61.7262 66.0282 61.321L64.2656 60.8954C63.516 60.6928 63.0095 60.4294 63.0095 59.781C63.0095 59.092 63.5565 58.6057 64.4479 58.6057C65.3799 58.6057 65.9877 59.1325 65.9877 60.0039H68.2365C68.1554 58.018 66.6765 56.7617 64.5087 56.7617C62.3612 56.7617 60.7607 58.018 60.7607 59.9228C60.7607 61.2197 61.5103 62.2936 63.435 62.8002L65.1773 63.246C65.8256 63.4284 66.2308 63.7323 66.2308 64.2997C66.2308 65.09 65.4812 65.4547 64.5695 65.4547C63.4755 65.4547 62.8474 64.9481 62.8474 64.0768H60.5986Z" fill="#152C4F"/>
<path d="M73.6875 67.3394C75.0449 67.3394 76.3415 66.7112 76.929 65.7791L77.0911 67.076H79.4007V57.0659H76.929V62.3141C76.929 64.1175 76.2402 65.1307 74.6195 65.1307C73.3634 65.1307 72.4922 64.5228 72.4922 62.4559V57.0659H70.0205V63.3273C70.0205 65.7183 71.3171 67.3394 73.6875 67.3394Z" fill="#152C4F"/>
<path d="M84.0536 67.0758V61.321C84.0536 59.6999 85.0058 58.9299 86.1809 58.9299C87.3559 58.9299 88.1258 59.6796 88.1258 61.0981V67.0758H90.5367V61.3412C90.5367 59.6999 91.4686 58.9299 92.6437 58.9299C93.839 58.9299 94.6089 59.6796 94.6089 61.0981V67.0758H96.9995V60.5307C96.9995 58.2207 95.7231 56.7617 93.292 56.7617C91.7725 56.7617 90.5772 57.4912 90.091 58.6665C89.544 57.4912 88.45 56.7617 86.7887 56.7617C85.6136 56.7617 84.5601 57.3088 83.9726 58.2004L83.851 57.0657H81.582V67.0758H84.0536Z" fill="#152C4F"/>
<path d="M45.487 38.3523C42.2308 44.2121 35.6009 47 28.8971 47H2C30 43.5 49.5 29.5 52 10C54.5 29.5 74 43.5 102 47H75.1029C68.3991 47 61.7692 44.2121 58.513 38.3523C54.9886 32.01 52.7432 24.8334 52 17C51.2568 24.8334 49.0114 32.01 45.487 38.3523Z" fill="#1A4688"/>
<path d="M30.1051 36.2813C28.5344 37.1656 26.8822 37.9962 25.1522 38.7699C24.1695 35.3753 23.8079 31.8138 24.0963 28.266C24.4778 23.5725 25.9851 19.0476 28.4847 15.0923C30.9844 11.137 34.3991 7.87319 38.4265 5.59008C42.4539 3.30698 46.9697 2.07501 51.5738 2.00332C56.1779 1.93162 60.7282 3.02241 64.8217 5.17906C68.9152 7.3357 72.4255 10.4916 75.0416 14.3673C77.6578 18.243 79.2991 22.7188 79.8202 27.3982C80.2463 31.2257 79.9123 35.0929 78.8478 38.7699C77.1178 37.9962 75.4656 37.1655 73.8949 36.2812C74.5571 33.593 74.7427 30.7964 74.4342 28.0256C74.014 24.2521 72.6904 20.6428 70.5808 17.5175C68.4711 14.3922 65.6404 11.8472 62.3394 10.1081C59.0384 8.36897 55.369 7.48937 51.6563 7.54718C47.9435 7.60499 44.302 8.59845 41.0544 10.4395C37.8067 12.2806 35.053 14.9125 33.0373 18.1021C31.0216 21.2917 29.8061 24.9405 29.4985 28.7254C29.2917 31.2694 29.4993 33.8222 30.1051 36.2813Z" fill="#7FB5E6"/>
</svg>
