<svg width="160" height="46" viewBox="0 0 160 46" fill="none" xmlns="http://www.w3.org/2000/svg">
<path fill-rule="evenodd" clip-rule="evenodd" d="M26.6051 3.72402C25.1113 2.23089 22.69 2.23138 21.1969 3.72513L8.73553 16.1916L8.72491 16.1885L8.68553 16.1927C8.70175 16.2005 8.71767 16.2082 8.73327 16.216C6.54729 16.445 5.61981 17.1019 5.60931 17.9455C5.61301 18.2593 5.74176 18.5982 5.97825 18.95L5.96688 18.9614C7.95416 21.9587 17.7991 25.9126 24.7641 23.2337C19.5441 25.8437 7.25073 26.361 3.63998 21.2934C2.85584 22.1417 2.52776 23.2565 2.65131 24.3278C3.60517 29.5852 14.2694 31.0195 24.9337 23.4022L27.2414 25.7099C24.3698 28.6601 20.1281 45.7966 26.4308 43.1802C26.5803 43.0787 26.7072 42.9879 26.8798 42.8573L27.1607 42.5921C27.1445 42.5961 27.1284 42.5999 27.1124 42.6037L43.9924 26.668C45.5597 25.1883 45.5952 22.7064 44.0707 21.1825L26.6051 3.72402ZM24.7669 8.91731L25.3438 6.60962L25.9207 8.91731L27.6515 9.49424L25.9207 10.0712L25.3438 12.3789L24.7669 10.0712L23.0361 9.49424L24.7669 8.91731ZM17.626 16.4507L18.0106 14.9122L18.3952 16.4507L19.5491 16.8353L18.3952 17.2199L18.0106 18.7584L17.626 17.2199L16.4722 16.8353L17.626 16.4507ZM31.0216 29.4276L30.637 30.966L29.4832 31.3507L30.637 31.7353L31.0216 33.2737L31.4062 31.7353L32.5601 31.3507L31.4062 30.966L31.0216 29.4276Z" fill="#4845D2"/>
<path d="M54.8975 12.2754H51.3154V28.4386H61.2318V25.2715H54.8975V12.2754Z" fill="#4845D2"/>
<path d="M61.5742 22.9562C61.5742 26.4073 63.8895 28.7007 67.3842 28.7007C70.8572 28.7007 73.1724 26.4073 73.1724 22.9562C73.1724 19.5051 70.8572 17.1899 67.3842 17.1899C63.8895 17.1899 61.5742 19.5051 61.5742 22.9562ZM64.9598 22.9344C64.9598 21.2962 65.9208 20.2041 67.3842 20.2041C68.8258 20.2041 69.7869 21.2962 69.7869 22.9344C69.7869 24.5944 68.8258 25.6865 67.3842 25.6865C65.9208 25.6865 64.9598 24.5944 64.9598 22.9344Z" fill="#4845D2"/>
<path d="M73.7135 22.7818C73.7135 26.0799 75.8541 28.3078 78.8901 28.3078C80.3536 28.3078 81.6204 27.7836 82.2538 26.9318V28.4389C82.2538 29.946 81.3146 30.9508 79.6546 30.9508C78.1693 30.9508 77.1428 30.2518 77.0772 29.0068H73.6699C73.9756 31.9992 76.2909 34.0087 79.458 34.0087C83.1931 34.0087 85.552 31.5842 85.552 27.7399V17.5178H82.5159L82.3412 18.6317C81.7296 17.7362 80.4409 17.1465 78.9557 17.1465C75.8978 17.1465 73.7135 19.4399 73.7135 22.7818ZM77.1209 22.6944C77.1209 21.1218 78.1694 20.0733 79.5017 20.0733C81.0525 20.0733 82.1883 21.0999 82.1883 22.6944C82.1883 24.2889 81.0744 25.381 79.5236 25.381C78.1912 25.381 77.1209 24.2889 77.1209 22.6944Z" fill="#4845D2"/>
<path d="M86.5322 22.9562C86.5322 26.4073 88.8474 28.7007 92.3422 28.7007C95.8151 28.7007 98.1304 26.4073 98.1304 22.9562C98.1304 19.5051 95.8151 17.1899 92.3422 17.1899C88.8474 17.1899 86.5322 19.5051 86.5322 22.9562ZM89.9177 22.9344C89.9177 21.2962 90.8788 20.2041 92.3422 20.2041C93.7838 20.2041 94.7448 21.2962 94.7448 22.9344C94.7448 24.5944 93.7838 25.6865 92.3422 25.6865C90.8788 25.6865 89.9177 24.5944 89.9177 22.9344Z" fill="#4845D2"/>
<path d="M101.031 15.8141C102.079 15.8141 102.931 14.9623 102.931 13.892C102.931 12.8217 102.079 11.9917 101.031 11.9917C99.9603 11.9917 99.1084 12.8217 99.1084 13.892C99.1084 14.9623 99.9603 15.8141 101.031 15.8141ZM99.3268 28.4389H102.713V17.5178H99.3268V28.4389Z" fill="#4845D2"/>
<path d="M104.683 33.6807H108.003V27.3465C108.637 28.1765 110.078 28.7444 111.586 28.7444C114.84 28.7444 116.806 26.2544 116.718 22.8033C116.631 19.2867 114.6 17.168 111.564 17.168C110.013 17.168 108.55 17.8451 107.938 18.8499L107.763 17.5175H104.683V33.6807ZM108.069 22.978C108.069 21.3399 109.161 20.2478 110.734 20.2478C112.328 20.2478 113.333 21.3617 113.333 22.978C113.333 24.5944 112.328 25.7083 110.734 25.7083C109.161 25.7083 108.069 24.6162 108.069 22.978Z" fill="#4845D2"/>
<path d="M117.077 24.9875C117.164 27.1936 118.912 28.7225 121.664 28.7225C124.307 28.7225 126.142 27.3246 126.142 25.0749C126.142 23.4586 125.18 22.3883 123.389 21.9515L121.445 21.4709C120.746 21.2962 120.31 21.1215 120.31 20.5536C120.31 19.9857 120.768 19.6143 121.445 19.6143C122.21 19.6143 122.712 20.1167 122.69 20.8594H125.727C125.639 18.5878 123.914 17.168 121.511 17.168C119.086 17.168 117.274 18.6096 117.274 20.7938C117.274 22.2573 118.082 23.4586 120.244 24.0265L122.166 24.5288C122.734 24.6817 122.974 24.9438 122.974 25.3152C122.974 25.8612 122.472 26.2107 121.62 26.2107C120.637 26.2107 120.113 25.752 120.113 24.9875H117.077Z" fill="#4845D2"/>
<path d="M131.29 28.7226C132.623 28.7226 133.955 28.1111 134.632 27.2155L134.851 28.4387H138.018V17.5176H134.654V23.1966C134.654 24.8347 134.173 25.7303 132.623 25.7303C131.421 25.7303 130.635 25.1842 130.635 23.1529V17.5176H127.271V24.376C127.271 26.9753 128.713 28.7226 131.29 28.7226Z" fill="#4845D2"/>
<path d="M143.352 28.4389V22.476C143.352 20.6412 144.335 20.117 145.296 20.117C146.366 20.117 147.065 20.7723 147.065 22.1265V28.4389H150.385V22.476C150.385 20.6194 151.346 20.0952 152.307 20.0952C153.377 20.0952 154.098 20.7504 154.098 22.1265V28.4389H157.375V21.2965C157.375 18.8065 156.064 17.1465 153.246 17.1465C151.674 17.1465 150.385 17.911 149.817 19.0904C149.162 17.911 148.026 17.1465 146.213 17.1465C145.012 17.1465 143.898 17.6925 143.243 18.5662L143.112 17.5178H139.966V28.4389H143.352Z" fill="#4845D2"/>
<path fill-rule="evenodd" clip-rule="evenodd" d="M45.2922 5.25146C41.6835 5.25146 38.2612 6.85437 35.9509 9.62667L27.7319 19.4896L32.4779 12.3705L24.5999 15.7468C23.5994 16.1756 23.3484 17.4791 24.118 18.2488L26.6532 20.7839L25.3588 22.3372L28.2065 25.1848L29.7597 23.8904L32.2949 26.4256C33.0645 27.1952 34.3681 26.9442 34.7968 25.9438L38.1731 18.0658L31.0541 22.8118L40.917 14.5927C43.6893 12.2825 45.2922 8.86018 45.2922 5.25146ZM37.4613 13.0826C38.2476 13.8689 39.5225 13.8689 40.3089 13.0826C41.0952 12.2962 41.0952 11.0213 40.3089 10.235C39.5225 9.4486 38.2476 9.4486 37.4613 10.235C36.6749 11.0213 36.6749 12.2962 37.4613 13.0826Z" fill="#A3A2FF"/>
<path opacity="0.6" d="M3.54785 21.1611C5.43331 27.6209 16.8965 27.2841 24.7613 23.235C19.4949 25.8666 7.03687 26.3692 3.54785 21.1611Z" fill="#424242"/>
<path opacity="0.6" d="M26.4301 43.1802C21.1193 45.3848 23.2954 33.5644 25.8298 28.0244C23.9824 32.9486 22.4053 43.8037 27.16 42.5921L26.8791 42.8573C26.7065 42.9879 26.5796 43.0787 26.4301 43.1802Z" fill="#424242"/>
</svg>
