<svg width="147" height="62" viewBox="0 0 147 62" fill="none" xmlns="http://www.w3.org/2000/svg">
<path d="M73.7301 20.4545C74.3346 20.446 74.8486 20.333 74.8402 19.7116V19.6184C74.8486 18.9998 74.3346 18.8868 73.7301 18.8784C73.1229 18.8868 72.6088 18.9998 72.6173 19.6184V19.7116C72.6088 20.333 73.1229 20.446 73.7301 20.4545Z" fill="#394149"/>
<path d="M51.6307 19.2057C51.6307 19.0249 51.4867 18.8809 51.3059 18.8809H49.501V19.5277H51.3059C51.3963 19.5277 51.4725 19.4966 51.5347 19.4345C51.5996 19.3695 51.6307 19.2933 51.6307 19.2057Z" fill="#394149"/>
<path d="M61.7911 18.8726L62.3109 19.994H61.2686L61.7911 18.8726Z" fill="#394149"/>
<path d="M84.9795 18.8726L85.4994 19.994H84.457L84.9795 18.8726Z" fill="#394149"/>
<path d="M48.0563 42.4857L47.2881 40.8281L46.5156 42.4857H48.0563Z" fill="#394149"/>
<path d="M66.1864 42.0095C66.1864 42.5732 65.8649 43.0367 65.2971 43.0367H62.9004V40.9824H65.2971C65.8649 40.9824 66.1864 41.4417 66.1864 42.0095Z" fill="#394149"/>
<path d="M72.2579 40.8281L73.0262 42.4857H71.4854L72.2579 40.8281Z" fill="#394149"/>
<path d="M81.5939 40.8403C81.8611 40.8403 82.074 41.0533 82.074 41.3205C82.074 41.4499 82.0281 41.5627 81.9321 41.6587C81.8402 41.7506 81.7275 41.7965 81.5939 41.7965H78.9258V40.8403H81.5939Z" fill="#394149"/>
<path d="M90.4208 42.0095C90.4208 42.5732 90.0988 43.0367 89.5308 43.0367H87.1338V40.9824H89.5308C90.0988 40.9824 90.4208 41.4417 90.4208 42.0095Z" fill="#394149"/>
<path d="M37.9127 31.5474L35.1281 25.1182H30.3506V35.8335H33.8313V30.0459L36.3429 35.8335H39.4552L41.9941 30.0459V35.8335H45.4612V25.1182H40.8338L37.9127 31.5474Z" fill="#394149"/>
<path d="M59.6665 35.8335V33.1717H51.9815V31.7794H59.3526V29.1723H51.9815V27.7936H59.571V25.1182H48.3779V35.8335H59.6665Z" fill="#394149"/>
<path d="M62.6029 33.9358C63.6676 35.3145 65.5649 35.997 67.8445 35.997C69.5564 35.997 70.8112 35.6493 71.6854 35.0979C71.8358 35.003 71.975 34.902 72.1033 34.7958L72.1989 35.8332H75.1336V29.4859H68.0083V31.7928H71.8167C71.7999 31.902 71.7417 32.0734 71.658 32.2367C71.6058 32.3387 71.5436 32.4375 71.4754 32.5162C71.0796 32.9803 70.0285 33.3898 68.6635 33.3898C67.2439 33.3898 66.3293 33.0213 65.8379 32.448C65.5103 32.0248 65.3192 31.4242 65.3192 30.5233C65.3192 29.5815 65.5103 28.9399 65.8789 28.5168C66.4112 27.9162 67.3121 27.6568 68.6362 27.6568C69.8238 27.6568 70.6428 27.9298 71.025 28.2711C71.2707 28.4758 71.4618 28.7625 71.5027 28.9536H75.0381C75.0331 28.8276 75.015 28.6736 74.9846 28.5097C74.9326 28.2296 74.8447 27.9201 74.7241 27.6705C73.8778 25.9505 71.9122 24.9268 68.568 24.9268C65.6605 24.9268 63.7085 25.814 62.6302 27.1518C61.9204 28.0663 61.5928 29.2129 61.5928 30.496C61.5928 31.9156 61.975 33.1305 62.6029 33.9358Z" fill="#394149"/>
<path d="M65.7637 30.5232C65.7637 29.6325 65.9458 29.1174 66.213 28.8097C66.6149 28.3574 67.3482 28.1006 68.6368 28.1006C69.7826 28.1006 70.4682 28.3684 70.7299 28.6021L70.7356 28.6071L70.7414 28.612C70.8314 28.687 70.9137 28.7794 70.9759 28.8695C71.0374 28.9585 71.062 29.0203 71.0681 29.0419H67.565V32.2366H71.1309C71.0032 32.3809 70.7291 32.561 70.2936 32.7057C69.8601 32.8497 69.3038 32.9458 68.6641 32.9458C67.3153 32.9458 66.5567 32.5967 66.1828 32.1673C65.9384 31.8469 65.7637 31.3555 65.7637 30.5232Z" fill="#394149"/>
<path d="M84.4066 29.0664L83.3896 31.008H85.3674L84.4066 29.0664Z" fill="#394149"/>
<path fill-rule="evenodd" clip-rule="evenodd" d="M87.2428 33.8542L88.1848 35.8335H92.1298L86.7238 25.1182H82.3151L76.5957 35.8335H80.4587L81.4551 33.8542H87.2428ZM82.6563 31.4518L84.0077 28.872L84.4172 27.8892L84.7994 28.8583L86.0828 31.4518H82.6563Z" fill="#394149"/>
<path fill-rule="evenodd" clip-rule="evenodd" d="M115.726 54.387H115.72C115.644 54.387 115.568 54.3866 115.492 54.3858V54.387H31.9994C24.6318 54.387 18.0599 50.9801 13.7732 45.6559H26.0746V44.0967H12.6206C10.6135 41.1327 9.2686 37.6838 8.7982 33.9623H26.0746V32.4032H8.6537C8.6262 31.9389 8.6123 31.471 8.6123 30.9999C8.6123 27.9133 9.2102 24.9665 10.2966 22.2687H26.0746V20.7096H10.992C12.6448 17.3418 15.0835 14.4296 18.0692 12.2123H101.795C102.839 11.4371 103.95 10.7468 105.117 10.1516C104.802 10.312 104.492 10.4792 104.186 10.6531H20.4599C23.8648 8.71789 27.803 7.61279 31.9993 7.61279H115.492V7.61389C115.57 7.61312 115.648 7.61279 115.726 7.61279C128.642 7.61279 139.113 18.0835 139.113 30.9999C139.113 43.9162 128.642 54.387 115.726 54.387ZM124.422 41.9687C125.469 38.8141 126.094 35.0672 126.094 30.9999C126.094 27.2082 125.55 23.6949 124.629 20.6803C124.516 20.3122 124.398 19.9516 124.275 19.5988C124.069 19.0112 123.848 18.4454 123.614 17.9032C123.298 17.171 122.958 16.4818 122.597 15.8402C120.891 12.8129 118.945 11.1825 117.129 10.6336V17.9032H121.905C122.309 18.7653 122.678 19.704 123.004 20.7096H117.129V29.5966H124.509C124.526 30.0591 124.535 30.527 124.535 30.9999C124.535 31.4728 124.526 31.9407 124.509 32.4031H117.129V41.2902H123.003C122.678 42.2958 122.309 43.2345 121.905 44.0966H117.129V51.3663C118.945 50.8175 120.891 49.187 122.597 46.1596C122.958 45.518 123.299 44.8288 123.614 44.0966C123.905 43.4226 124.175 42.7121 124.422 41.9687ZM127.56 20.7096C128.309 23.4186 128.772 26.4224 128.877 29.5966H136.259C136.042 26.3746 135.083 23.3559 133.553 20.7096H127.56ZM131.602 17.9032H126.643C125.743 15.5448 124.607 13.4934 123.295 11.856C126.555 13.1459 129.406 15.244 131.602 17.9032ZM114.323 10.6333V17.9032H107.837C108.153 17.171 108.493 16.4818 108.855 15.8402C110.56 12.8124 112.507 11.1818 114.323 10.6333ZM108.156 11.8559C106.844 13.4933 105.709 15.5447 104.809 17.9032H99.8484C102.045 15.2439 104.897 13.1457 108.156 11.8559ZM103.891 20.7096H94.9104V22.2687H97.0834C96.0273 24.5188 95.3669 26.9912 95.1915 29.5966H102.574C102.68 26.4224 103.142 23.4186 103.891 20.7096ZM114.323 20.7096H106.814C106.012 23.3418 105.499 26.3528 105.383 29.5966H114.323V20.7096ZM128.877 32.4031C128.772 35.5773 128.309 38.5811 127.56 41.2902H133.553C135.083 38.6439 136.042 35.6251 136.259 32.4031H128.877ZM106.814 41.2902C106.012 38.658 105.499 35.6469 105.383 32.4031H114.323V41.2902H106.814ZM103.891 41.2902C103.142 38.5811 102.68 35.5773 102.574 32.4031H95.1915C95.4085 35.6251 96.3671 38.6439 97.8978 41.2902H103.891ZM126.643 44.0966C125.743 46.455 124.607 48.5063 123.296 50.1437C126.555 48.8538 129.406 46.7557 131.602 44.0966H126.643ZM107.837 44.0966H114.323V51.3666C112.507 50.8181 110.56 49.1875 108.855 46.1596C108.493 45.518 108.153 44.8288 107.837 44.0966ZM104.809 44.0966L94.9104 44.0967V45.6558H101.277C103.229 47.5804 105.563 49.1179 108.156 50.1439C106.844 48.5065 105.709 46.4551 104.809 44.0966ZM73.7293 17.6749C72.3001 17.6777 71.1307 18.0901 71.1364 19.5278V19.8046C71.1307 21.2395 72.3001 21.6547 73.7293 21.6575C75.1557 21.6547 76.3251 21.2395 76.3194 19.8046V19.5278C76.3194 18.0929 75.1585 17.6749 73.7293 17.6749ZM29.3273 17.7681V21.5643H30.8074V17.7681H29.3273ZM35.2956 19.7792L33.6291 17.7681H31.5926V21.5643H33.0727V19.2454L35.112 21.5643H36.7785V17.7681H35.2956V19.7792ZM40.5323 18.977V21.57H39.0523V18.977H37.2926V17.7738H42.292V18.977H40.5323ZM42.7892 21.57H47.2322V20.5955H44.2692V20.1097H47.2322V19.2312H44.2692V18.7454H47.2322V17.7738H42.7892V21.57ZM48.0202 21.5671V17.7709H51.678C52.4604 17.7625 53.1242 18.4206 53.1129 19.2058C53.1129 19.4911 53.0366 19.7509 52.8841 19.9826C52.7344 20.2113 52.5339 20.3865 52.2853 20.5023L53.1129 21.5671H51.5368L50.8222 20.6407H49.5003V21.5671H48.0202ZM57.2763 19.7792L55.6098 17.7681H53.5733V21.5643H55.0534V19.2454L57.0927 21.5643H58.7592V17.7681H57.2763V19.7792ZM60.5387 21.57H58.8722L60.9087 17.7738H62.6684L64.7049 21.57H63.0384L62.739 20.9203H60.8381L60.5387 21.57ZM66.9645 21.57V18.977H68.7242V17.7738H63.7248V18.977H65.4845V21.57H66.9645ZM69.2213 21.5643V17.7681H70.7014V21.5643H69.2213ZM78.7994 17.7681L80.4659 19.7792V17.7681H81.9488V21.5643H80.2823L78.243 19.2454V21.5643H76.7629V17.7681H78.7994ZM82.0618 21.57H83.7282L84.0277 20.9203H85.9284L86.2284 21.57H87.8944L85.8584 17.7738H84.0983L82.0618 21.57ZM88.0104 21.5643V17.7681H89.4904V20.361H92.4534V21.5643H88.0104ZM33.1623 40.4979C32.4817 40.4979 31.6466 40.5982 31.6466 41.0449C31.6466 41.2913 32.3272 41.3247 33.2082 41.3664L33.2179 41.3669C34.7831 41.4462 36.9744 41.5572 36.9703 42.9614C36.9703 44.5648 35.1331 44.9448 33.1623 44.9448C31.1957 44.9406 29.5631 44.7026 29.3543 42.9614H31.6466C31.8971 43.3957 32.4775 43.5084 33.1623 43.5084C33.8429 43.5084 34.678 43.3957 34.678 42.9614C34.678 42.7151 33.9974 42.6775 33.1164 42.6358L33.1066 42.6353C31.5414 42.556 29.3501 42.445 29.3543 41.0449C29.3543 39.4416 31.1915 39.0574 33.1623 39.0574C35.1289 39.0699 36.7615 39.2912 36.9703 41.0449H34.678C34.4274 40.6023 33.8471 40.4979 33.1623 40.4979ZM41.8263 40.9823V44.8153H39.6384V40.9823H37.0371V39.2036H44.4276V40.9823H41.8263ZM42.9745 44.8153H45.438L45.8806 43.855H48.6907L49.1333 44.8153H51.5968L48.5863 39.2036H45.985L42.9745 44.8153ZM54.7785 39.1952L57.242 42.1681V39.1952H59.4341V44.807H56.9706L53.9559 41.379V44.807H51.768V39.1952H54.7785ZM60.7117 39.2036V44.8153H65.7056C67.2463 44.8362 68.3904 43.5335 68.3778 42.0094C68.3904 40.4771 67.2463 39.1827 65.7056 39.2036H60.7117ZM70.4071 44.8153H67.9436L70.9541 39.2036H73.5554L76.5658 44.8153H74.1023L73.6597 43.855H70.8497L70.4071 44.8153ZM76.737 39.1994V44.8112H78.925V43.4416H80.8791L81.9354 44.8112H84.2653L83.0419 43.237C83.4094 43.0658 83.7058 42.807 83.9271 42.4687C84.1526 42.1264 84.2653 41.7422 84.2653 41.3205C84.282 40.1597 83.3008 39.1869 82.1442 39.1994H76.737ZM84.9459 44.8153V39.2036H89.9394C91.4804 39.1827 92.6244 40.4771 92.6124 42.0094C92.6244 43.5335 91.4804 44.8362 89.9394 44.8153H84.9459ZM45.9038 36.2771H41.5489V32.1625L39.7439 36.2771H36.0504L34.2739 32.1836V36.2771H29.9054V24.674H35.4183L37.9211 30.4526L40.5466 24.674H45.9038V36.2771ZM60.11 36.2771H47.9336V24.674H60.0145V28.2372H52.425V28.7281H59.7961V32.223H52.425V32.7275H60.11V36.2771ZM75.577 36.2771H71.7934L71.7299 35.5882C70.7814 36.1269 69.4974 36.4409 67.8439 36.4409C65.4917 36.4409 63.4333 35.7374 62.2516 34.2081C61.5486 33.306 61.1483 31.9873 61.1483 30.496C61.1483 29.1373 61.4959 27.8884 62.2789 26.8796L62.2814 26.8763L62.284 26.8732C63.4734 25.3976 65.5752 24.4829 68.5674 24.4829C71.9873 24.4829 74.167 25.5339 75.1218 27.4745L75.1226 27.476L75.1233 27.4775C75.3453 27.9373 75.4654 28.5448 75.481 28.9358L75.4853 29.042H75.577V36.2771ZM81.7282 34.2978L80.7318 36.2771H75.8552L82.0484 24.674H86.9974L92.8504 36.2771H87.9034L86.9624 34.2978H81.7282ZM29.2709 50.5671H92.8054V49.0079H29.2709V50.5671Z" fill="#394149"/>
<path fill-rule="evenodd" clip-rule="evenodd" d="M32 2H115.726C131.742 2 144.726 14.9837 144.726 31C144.726 47.0163 131.742 60 115.726 60H32C15.9837 60 3 47.0163 3 31C3 14.9837 15.9837 2 32 2ZM32 4.8065C17.5337 4.8065 5.8065 16.5337 5.8065 31C5.8065 45.4663 17.5337 57.1936 32 57.1936H115.726C130.192 57.1936 141.919 45.4663 141.919 31C141.919 16.5337 130.192 4.8065 115.726 4.8065H32Z" fill="#394149"/>
</svg>
