<svg width="119" height="30" viewBox="0 0 119 30" fill="none" xmlns="http://www.w3.org/2000/svg">
<path d="M2.94141 27.8248H28.5914V2.1748H2.94141V27.8248ZM23.6544 12.5318H18.2344V7.1118H23.6544V12.5318ZM7.87741 7.1118H13.3004V17.4678H23.6544V22.8878H7.87741V7.1118ZM45.2944 2.1748C42.7578 2.1748 40.2782 2.92698 38.1692 4.33621C36.0601 5.74544 34.4163 7.74844 33.4456 10.0919C32.4749 12.4354 32.221 15.014 32.7158 17.5018C33.2107 19.9896 34.4321 22.2748 36.2257 24.0684C38.0193 25.8621 40.3045 27.0835 42.7923 27.5784C45.2802 28.0732 47.8588 27.8193 50.2023 26.8486C52.5458 25.8779 54.5487 24.2341 55.958 22.125C57.3672 20.0159 58.1194 17.5363 58.1194 14.9998C58.1154 11.5996 56.7629 8.33984 54.3586 5.93555C51.9543 3.53125 48.6946 2.17877 45.2944 2.1748ZM45.2944 22.8878C43.7343 22.8878 42.2092 22.4252 40.912 21.5584C39.6149 20.6917 38.6038 19.4598 38.0068 18.0184C37.4098 16.5771 37.2536 14.9911 37.5579 13.4609C37.8623 11.9308 38.6136 10.5253 39.7167 9.42215C40.8199 8.319 42.2254 7.56773 43.7555 7.26337C45.2856 6.95901 46.8716 7.11522 48.313 7.71224C49.7543 8.30927 50.9863 9.32029 51.853 10.6175C52.7198 11.9146 53.1824 13.4397 53.1824 14.9998C53.1792 17.0909 52.3471 19.0954 50.8685 20.574C49.3899 22.0526 47.3854 22.8846 45.2944 22.8878ZM104.013 2.1748C101.476 2.17461 98.9971 2.92661 96.8879 4.33572C94.7787 5.74483 93.1348 7.74776 92.1639 10.0912C91.1931 12.4346 90.9389 15.0134 91.4337 17.5012C91.9284 19.9891 93.1498 22.2744 94.9434 24.0681C96.7369 25.8618 99.0221 27.0834 101.51 27.5783C103.997 28.0732 106.576 27.8193 108.92 26.8487C111.263 25.878 113.266 24.2342 114.675 22.1251C116.085 20.016 116.837 17.5364 116.837 14.9998C116.833 11.5998 115.481 8.34016 113.077 5.9359C110.673 3.53163 107.413 2.17904 104.013 2.1748ZM104.013 22.8878C102.453 22.888 100.928 22.4255 99.6308 21.5589C98.3335 20.6923 97.3223 19.4604 96.7251 18.0191C96.1279 16.5778 95.9716 14.9917 96.2758 13.4615C96.5801 11.9314 97.3313 10.5258 98.4344 9.4225C99.5375 8.31924 100.943 7.56788 102.473 7.26344C104.003 6.959 105.589 7.11515 107.03 7.71215C108.472 8.30914 109.704 9.32016 110.571 10.6174C111.437 11.9146 111.9 13.4397 111.9 14.9998C111.897 17.0907 111.065 19.095 109.586 20.5736C108.108 22.0522 106.104 22.8844 104.013 22.8878ZM74.6534 2.1748C72.1168 2.1748 69.6372 2.92698 67.5282 4.33621C65.4191 5.74544 63.7753 7.74844 62.8046 10.0919C61.8339 12.4354 61.58 15.014 62.0748 17.5018C62.5697 19.9896 63.7911 22.2748 65.5847 24.0684C67.3783 25.8621 69.6635 27.0835 72.1513 27.5784C74.6391 28.0732 77.2178 27.8193 79.5613 26.8486C81.9048 25.8779 83.9077 24.2341 85.317 22.125C86.7262 20.0159 87.4784 17.5363 87.4784 14.9998C87.4744 11.5996 86.1219 8.33984 83.7176 5.93555C81.3133 3.53125 78.0536 2.17877 74.6534 2.1748ZM74.6534 22.8878C73.1998 22.8885 71.7744 22.4876 70.5343 21.7293C69.2943 20.971 68.2878 19.8849 67.6261 18.5907C66.9645 17.2965 66.6732 15.8446 66.7846 14.3954C66.896 12.9461 67.4056 11.5558 68.2573 10.3779C69.109 9.20006 70.2696 8.28041 71.6109 7.72051C72.9523 7.1606 74.4223 6.98222 75.8586 7.20504C77.295 7.42787 78.6418 8.04324 79.7505 8.98323C80.8592 9.92321 81.6866 11.1513 82.1414 12.5318H74.6534V17.4678H82.1414C81.6205 19.0431 80.6169 20.4145 79.2728 21.3873C77.9288 22.3602 76.3126 22.8851 74.6534 22.8878Z" fill="#394149"/>
</svg>
