<svg width="125" height="40" viewBox="0 0 125 40" fill="none" xmlns="http://www.w3.org/2000/svg">
<g clip-path="url(#clip0_141_4284)">
<path d="M88.8613 37.225C89.6203 37.225 90.0693 36.65 90.0693 35.751C90.0693 34.819 89.5873 34.277 88.8773 34.277C88.4713 34.277 88.1893 34.457 87.9783 34.743H87.9683V33.27H87.5283V37.143H87.9683V36.775H87.9783C88.2063 37.089 88.4823 37.225 88.8613 37.225ZM88.8293 36.856C88.2333 36.856 87.9403 36.385 87.9403 35.756C87.9403 35.15 88.2223 34.651 88.8343 34.651C89.3653 34.651 89.6203 35.128 89.6203 35.756C89.6203 36.39 89.3653 36.856 88.8293 36.856ZM90.8123 38.07C91.1533 38.07 91.3703 37.95 91.5973 37.37L92.7953 34.342H92.3293L91.6893 36.087C91.6033 36.32 91.5053 36.634 91.5053 36.634H91.4953C91.4953 36.634 91.3913 36.32 91.3053 36.087L90.6443 34.342H90.1673L91.2613 37.062L91.1533 37.338C91.0453 37.609 90.9203 37.68 90.7363 37.68C90.6335 37.6852 90.5311 37.6646 90.4383 37.62H90.4163V38.01C90.5363 38.059 90.6443 38.07 90.8123 38.07ZM93.9183 37.143H94.6553V33.27H93.9183V37.143ZM96.4573 37.225C97.3183 37.225 97.9093 36.585 97.9093 35.756C97.9093 34.927 97.3193 34.288 96.4573 34.288C95.5963 34.288 95.0053 34.928 95.0053 35.756C95.0053 36.586 95.5953 37.225 96.4573 37.225ZM96.4573 36.661C96.0023 36.661 95.7533 36.298 95.7533 35.756C95.7533 35.215 96.0023 34.846 96.4573 34.846C96.9073 34.846 97.1613 35.215 97.1613 35.756C97.1613 36.298 96.9073 36.661 96.4573 36.661ZM99.4763 38.091C99.8883 38.091 100.245 37.994 100.478 37.777C100.684 37.587 100.809 37.322 100.809 36.932V34.364H100.099V34.657H100.088C99.9203 34.424 99.6663 34.288 99.3183 34.288C98.6153 34.288 98.1163 34.819 98.1163 35.648C98.1163 36.488 98.7233 36.975 99.3413 36.975C99.6933 36.975 99.9043 36.835 100.066 36.65H100.083V36.954C100.083 37.333 99.8833 37.534 99.4653 37.534C99.1243 37.534 98.9673 37.398 98.9073 37.224H98.1763C98.2513 37.766 98.7173 38.091 99.4763 38.091ZM99.4663 36.385C99.0863 36.385 98.8363 36.109 98.8363 35.637C98.8363 35.171 99.0863 34.879 99.4603 34.879C99.9043 34.879 100.121 35.225 100.121 35.632C100.121 36.044 99.9313 36.385 99.4653 36.385H99.4663ZM102.6 37.225C103.461 37.225 104.052 36.585 104.052 35.756C104.052 34.927 103.461 34.288 102.6 34.288C101.738 34.288 101.148 34.928 101.148 35.756C101.148 36.586 101.738 37.225 102.6 37.225ZM102.6 36.661C102.145 36.661 101.895 36.298 101.895 35.756C101.895 35.215 102.145 34.846 102.6 34.846C103.049 34.846 103.304 35.215 103.304 35.756C103.304 36.298 103.049 36.661 102.6 36.661ZM104.394 37.143H105.131V34.364H104.394V37.143ZM104.394 33.931H105.131V33.27H104.394V33.931ZM105.606 38.053H106.343V36.83H106.353C106.511 37.069 106.765 37.226 107.155 37.226C107.87 37.226 108.358 36.656 108.358 35.757C108.358 34.89 107.887 34.289 107.15 34.289C106.99 34.2864 106.831 34.3237 106.688 34.3975C106.545 34.4713 106.423 34.5794 106.332 34.712H106.316V34.365H105.606V38.055V38.053ZM106.998 36.613C106.559 36.613 106.326 36.282 106.326 35.778C106.326 35.28 106.511 34.884 106.971 34.884C107.426 34.884 107.61 35.252 107.61 35.778C107.61 36.304 107.372 36.613 106.998 36.613ZM109.828 37.225C110.521 37.225 110.998 36.889 110.998 36.331C110.998 35.681 110.483 35.551 110.017 35.453C109.622 35.372 109.254 35.35 109.254 35.112C109.254 34.912 109.443 34.802 109.73 34.802C110.045 34.802 110.234 34.912 110.267 35.209H110.933C110.879 34.651 110.473 34.289 109.741 34.289C109.107 34.289 108.609 34.575 108.609 35.177C108.609 35.783 109.096 35.919 109.595 36.017C109.974 36.092 110.326 36.119 110.326 36.385C110.326 36.58 110.142 36.705 109.817 36.705C109.487 36.705 109.259 36.564 109.21 36.244H108.528C108.571 36.834 109.021 37.225 109.828 37.225ZM113.796 37.143V34.364H113.059V35.968C113.059 36.336 112.847 36.596 112.501 36.596C112.187 36.596 112.04 36.417 112.04 36.092V34.364H111.309V36.217C111.309 36.824 111.656 37.219 112.273 37.219C112.663 37.219 112.88 37.073 113.07 36.819H113.086V37.143H113.796ZM114.272 37.143H115.009V35.53C115.009 35.161 115.209 34.923 115.507 34.923C115.778 34.923 115.935 35.086 115.935 35.4V37.144H116.672V35.53C116.672 35.161 116.862 34.923 117.171 34.923C117.442 34.923 117.599 35.086 117.599 35.4V37.144H118.336V35.275C118.336 34.668 118.005 34.289 117.42 34.289C117.068 34.289 116.775 34.473 116.586 34.777H116.575C116.509 34.6294 116.4 34.5046 116.263 34.4178C116.126 34.3311 115.967 34.2863 115.805 34.289C115.643 34.2849 115.482 34.3245 115.34 34.4037C115.198 34.4828 115.08 34.5987 114.998 34.739H114.982V34.365H114.272V37.145V37.143Z" fill="#E5708C"/>
<path d="M118.481 2.14918C118.481 0.966183 119.44 0.00618262 120.623 0.00618262H122.052C122.62 0.00618262 123.165 0.231962 123.567 0.633853C123.969 1.03574 124.195 1.58082 124.195 2.14918C124.195 2.71754 123.969 3.26262 123.567 3.66451C123.165 4.0664 122.62 4.29218 122.052 4.29218H120.623C120.341 4.29218 120.063 4.23674 119.803 4.12904C119.543 4.02133 119.307 3.86346 119.108 3.66445C118.909 3.46544 118.751 3.22919 118.643 2.9692C118.536 2.7092 118.48 2.43056 118.481 2.14918ZM58.4896 14.2902C58.4896 22.1782 52.0956 28.5732 44.2066 28.5732C36.3186 28.5732 29.9236 22.1782 29.9236 14.2902C29.9236 6.40018 36.3186 0.00718262 44.2066 0.00718262C52.0956 0.00718262 58.4896 6.40018 58.4896 14.2902ZM27.1376 14.2192C27.9276 14.2192 28.5736 14.8592 28.4946 15.6452C28.2246 18.335 27.1968 20.893 25.5307 23.0218C23.8645 25.1507 21.6285 26.763 19.0823 27.6713C16.5361 28.5797 13.7845 28.7468 11.1471 28.1533C8.50973 27.5597 6.09494 26.2299 4.1834 24.3184C2.27185 22.4068 0.942035 19.9921 0.348505 17.3547C-0.245025 14.7173 -0.0778988 11.9656 0.830461 9.41948C1.73882 6.87333 3.35111 4.63724 5.47996 2.97109C7.6088 1.30494 10.1668 0.277157 12.8566 0.00718262C13.6416 -0.0728174 14.2826 0.575183 14.2826 1.36318V12.7902C14.2826 13.5802 14.9226 14.2192 15.7116 14.2192H27.1376ZM78.4866 31.4302C79.623 31.4302 80.713 31.8816 81.5165 32.6852C82.3201 33.4888 82.7716 34.5787 82.7716 35.7152C82.7716 36.8516 82.3201 37.9415 81.5165 38.7451C80.713 39.5487 79.623 40.0002 78.4866 40.0002H71.3456C70.2091 40.0002 69.1192 39.5487 68.3156 38.7451C67.512 37.9415 67.0606 36.8516 67.0606 35.7152C67.0606 34.5787 67.512 33.4888 68.3156 32.6852C69.1192 31.8816 70.2091 31.4302 71.3456 31.4302H78.4866ZM74.2016 28.5732C82.0906 28.5732 88.4856 22.1782 88.4856 14.2902C88.489 11.8671 87.8732 9.48339 86.6966 7.36518L89.0566 5.00518C89.3284 4.73322 89.544 4.41037 89.6911 4.05508C89.8382 3.69978 89.9138 3.319 89.9137 2.93448C89.9136 2.54995 89.8378 2.1692 89.6906 1.81398C89.5433 1.45876 89.3276 1.13602 89.0556 0.864183C88.7836 0.592346 88.4608 0.37674 88.1055 0.229673C87.7502 0.0826069 87.3694 0.00696051 86.9849 0.00705338C86.6004 0.00714624 86.2196 0.0829765 85.8644 0.230215C85.5092 0.377453 85.1864 0.593215 84.9146 0.865183L82.8546 2.92518C80.3694 1.02709 77.3278 0.00115079 74.2006 0.00618262C66.3136 0.00718262 59.9196 6.40018 59.9196 14.2902C59.9196 22.1782 66.3136 28.5732 74.2016 28.5732ZM118.481 14.2902C118.481 22.1782 112.086 28.5732 104.197 28.5732C96.3086 28.5732 89.9136 22.1782 89.9136 14.2902C89.9136 6.40018 96.3086 0.00718262 104.197 0.00718262C112.086 0.00718262 118.481 6.40118 118.481 14.2902Z" fill="url(#paint0_linear_141_4284)"/>
</g>
<defs>
<linearGradient id="paint0_linear_141_4284" x1="-0.000401633" y1="16.0002" x2="119" y2="16.0002" gradientUnits="userSpaceOnUse">
<stop stop-color="#64C2DB"/>
<stop offset="0.307" stop-color="#7476ED"/>
<stop offset="0.604" stop-color="#C994DF"/>
<stop offset="1" stop-color="#E56F8C"/>
</linearGradient>
<clipPath id="clip0_141_4284">
<rect width="125" height="40" fill="white"/>
</clipPath>
</defs>
</svg>
