<svg width="32" height="32" viewBox="0 0 32 32" fill="none" xmlns="http://www.w3.org/2000/svg">
<path fill-rule="evenodd" clip-rule="evenodd" d="M27.5399 27.5392C28.2383 26.8409 28.783 26.0042 29.1392 25.0831C29.4821 24.2011 29.7165 23.1931 29.7839 21.7171C29.8513 20.2382 29.8673 19.7659 29.8673 16C29.8673 12.2341 29.8513 11.7616 29.7839 10.2828C29.7165 8.80682 29.4821 7.79886 29.1392 6.91683C28.7911 5.99158 28.2454 5.1534 27.5399 4.46077C26.8472 3.75523 26.009 3.20929 25.0838 2.86104C24.2016 2.5185 23.1936 2.28413 21.7176 2.21701C20.2389 2.14926 19.7666 2.1333 16.0006 2.1333C12.2346 2.1333 11.7622 2.14926 10.2834 2.21676C8.80741 2.28413 7.79945 2.5185 6.91743 2.8613C5.99218 3.2095 5.15401 3.75532 4.46136 4.46073C3.75581 5.15331 3.20984 5.99148 2.86153 6.91677C2.51898 7.79886 2.28462 8.80682 2.2175 10.2828C2.14975 11.7616 2.13379 12.234 2.13379 16C2.13379 19.766 2.14975 20.2384 2.2175 21.7171C2.28489 23.1931 2.51926 24.2011 2.86207 25.0831C3.21027 26.0085 3.75608 26.8465 4.46149 27.5392C5.15412 28.2447 5.99229 28.7904 6.91753 29.1385C7.79962 29.4814 8.80758 29.7158 10.2835 29.7832C11.7625 29.8506 12.2348 29.8666 16.0007 29.8666C19.7666 29.8666 20.2391 29.8506 21.7178 29.7832C23.1938 29.7158 24.2018 29.4814 25.0838 29.1385C26.0049 28.7823 26.8416 28.2376 27.5399 27.5392ZM4.26603 14.3679C4.26657 14.8165 4.26723 15.3502 4.26723 16C4.26723 16.6498 4.26657 17.1835 4.26603 17.6321C4.2639 19.3834 4.26337 19.8369 4.309 20.833C4.36579 22.0819 4.43401 22.9996 4.64233 23.6913C4.84261 24.3562 5.06723 25.0329 5.80056 25.8498C6.5339 26.6664 7.24122 27.0363 8.14222 27.3081C9.04321 27.5797 10.1756 27.6382 11.1589 27.683C12.2742 27.7339 12.7162 27.7337 15.0557 27.7331H16.0006C16.6256 27.7331 17.1433 27.7335 17.581 27.7342C19.3753 27.7361 19.8282 27.7365 20.8341 27.6904C22.083 27.6337 23.0008 27.5654 23.6924 27.3572C24.3574 27.1569 25.0341 26.9322 25.8507 26.1988C26.6673 25.4656 27.0373 24.7582 27.309 23.8572C27.5808 22.9561 27.6393 21.8238 27.6841 20.8405C27.7349 19.7267 27.7346 19.2859 27.7342 16.9546L27.734 16.0008V15.0559C27.7346 12.7164 27.7349 12.2744 27.6839 11.1591C27.6391 10.1758 27.5806 9.04342 27.309 8.14243C27.0373 7.24146 26.6673 6.53411 25.8507 5.80078C25.0341 5.06745 24.3572 4.84283 23.6924 4.64255C23.0006 4.43423 22.0828 4.366 20.834 4.30922C19.8281 4.26314 19.3753 4.26363 17.5811 4.26559C17.1433 4.26608 16.6256 4.26666 16.0006 4.26666L15.0555 4.26648C12.7162 4.26587 12.2742 4.26574 11.1589 4.31662C10.1756 4.36148 9.04321 4.41987 8.14222 4.69162C7.24122 4.96336 6.5339 5.33328 5.80056 6.14996C5.06723 6.96662 4.84261 7.6434 4.64233 8.3083C4.43401 8.99995 4.36579 9.91771 4.309 11.1666C4.26337 12.1628 4.2639 12.6165 4.26603 14.3679ZM16.0004 11.2003C13.3496 11.2003 11.2007 13.3492 11.2007 15.9999C11.2007 18.6507 13.3496 20.7996 16.0004 20.7996C18.6511 20.7996 20.8 18.6507 20.8 15.9999C20.8 13.3492 18.6511 11.2003 16.0004 11.2003ZM9.06738 15.9999C9.06738 12.171 12.1714 9.06696 16.0004 9.06696C19.8294 9.06696 22.9334 12.171 22.9334 15.9999C22.9334 19.8289 19.8294 22.9329 16.0004 22.9329C12.1714 22.9329 9.06738 19.8289 9.06738 15.9999ZM23.4025 10.1979C24.2861 10.1979 25.0025 9.48161 25.0025 8.59794C25.0025 7.71429 24.2861 6.99794 23.4025 6.99794C22.5189 6.99794 21.8025 7.71429 21.8025 8.59794C21.8025 9.48161 22.5189 10.1979 23.4025 10.1979Z" fill="#FFCD3A"/>
</svg>
