<svg width="174" height="39" viewBox="0 0 174 39" fill="none" xmlns="http://www.w3.org/2000/svg">
<g clip-path="url(#clip0_141_4330)">
<path d="M50.203 20.282C50.2376 19.6158 50.2376 18.9482 50.203 18.282H12.254C12.246 18.448 12.239 18.615 12.235 18.782H4.285L4.281 19.032H0V19.532H4.28L4.286 19.782H12.235C12.239 19.95 12.245 20.116 12.255 20.282H23.15C23.1086 19.9503 23.0879 19.6163 23.088 19.282H39.088C39.088 19.621 39.068 19.955 39.026 20.282H50.203ZM50.124 17.282H38.837C38.7492 16.9417 38.639 16.6077 38.507 16.282H23.672C23.541 16.606 23.43 16.939 23.342 17.282H12.332C12.35 17.115 12.37 16.948 12.392 16.782H4.442L4.476 16.538H0V16.038H4.555L4.601 15.782H12.551C12.581 15.615 12.615 15.448 12.651 15.282H49.807C49.947 15.937 50.054 16.604 50.124 17.282ZM49.564 14.282H37.334C37.0456 13.922 36.7267 13.5874 36.381 13.282H25.797C25.452 13.588 25.132 13.922 24.844 14.282H12.894C12.939 14.115 12.987 13.948 13.037 13.782H5.087L5.175 13.501H0V13H5.342L5.42 12.781H13.37C13.43 12.613 13.494 12.447 13.56 12.281H48.897C49.155 12.931 49.378 13.6 49.564 14.282ZM48.467 11.282H13.99C14.068 11.114 14.148 10.948 14.231 10.782H6.282L6.423 10.506H0V10.006H6.694L6.821 9.782H14.771C14.868 9.614 14.968 9.447 15.07 9.282H47.387C47.785 9.924 48.147 10.592 48.467 11.282ZM12.332 21.282H50.125C50.054 21.96 49.947 22.628 49.807 23.282H38.019C38.204 22.962 38.368 22.628 38.508 22.282H23.67C23.81 22.628 23.973 22.962 24.158 23.282H12.65C12.6144 23.1158 12.5811 22.9491 12.55 22.782H4.601C4.58471 22.6941 4.56905 22.6061 4.554 22.518H0V22.018H4.475C4.46352 21.9394 4.45252 21.8607 4.442 21.782H12.392C12.3698 21.6156 12.3498 21.4489 12.332 21.282ZM12.893 24.282H49.563C49.378 24.965 49.155 25.632 48.897 26.282H34.965C35.4717 26.0007 35.9465 25.6655 36.381 25.282H25.797C26.2315 25.6655 26.7063 26.0007 27.213 26.282H13.56C13.4944 26.1162 13.431 25.9495 13.37 25.782H5.42L5.334 25.541H0V25.041H5.168C5.14072 24.9549 5.11406 24.8685 5.088 24.782H13.037C12.987 24.616 12.939 24.45 12.893 24.282ZM13.99 27.282H48.467C48.1473 27.9697 47.7867 28.6375 47.387 29.282H15.07C14.9674 29.1169 14.8674 28.9502 14.77 28.782H6.821C6.771 28.696 6.722 28.61 6.674 28.523H0V28.023H6.405L6.282 27.783H14.232C14.1489 27.6175 14.0682 27.4508 13.99 27.283V27.282ZM16.92 31.782C17.067 31.952 17.218 32.118 17.372 32.282H45.085C45.6752 31.6531 46.2221 30.9849 46.722 30.282H15.735C15.855 30.451 15.977 30.618 16.103 30.782H8.153L8.351 31.037H0V31.537H8.76C8.829 31.62 8.899 31.701 8.97 31.782H16.92ZM20.237 34.782C20.48 34.955 20.727 35.122 20.977 35.282H41.48C42.4004 34.6909 43.2683 34.0218 44.074 33.282H18.384C18.569 33.452 18.758 33.619 18.95 33.782H11C11.108 33.874 11.217 33.964 11.327 34.052H0V34.552H11.972C12.076 34.63 12.182 34.707 12.288 34.782H20.238H20.237ZM27.254 37.866C28.536 38.139 29.865 38.282 31.228 38.282C34.282 38.282 37.167 37.562 39.723 36.282H22.733C23.089 36.46 23.45 36.627 23.817 36.782H15.867C16.009 36.842 16.152 36.901 16.295 36.958H0V37.458H17.725C19.482 37.994 21.347 38.282 23.279 38.282C24.642 38.282 25.972 38.139 27.254 37.866ZM15.735 8.282H46.722C46.2221 7.57912 45.6752 6.91092 45.085 6.282H17.372C17.218 6.446 17.067 6.612 16.919 6.782H8.97L8.794 6.988H0V7.488H8.382C8.305 7.585 8.229 7.683 8.154 7.782H16.103C15.977 7.947 15.855 8.114 15.735 8.282ZM18.383 5.282H44.073C43.2676 4.54225 42.4001 3.87312 41.48 3.282H20.977C20.727 3.443 20.48 3.61 20.237 3.782H12.288C12.178 3.861 12.068 3.94 11.96 4.021H0V4.521H11.316C11.21 4.607 11.105 4.694 11.001 4.782H18.95C18.758 4.945 18.569 5.112 18.383 5.282ZM22.734 2.282H39.724C37.0869 0.962435 34.1778 0.27755 31.229 0.282C29.865 0.282 28.536 0.426 27.254 0.699C25.9473 0.421201 24.6149 0.281434 23.279 0.282C21.145 0.282 19.094 0.634 17.179 1.282H0V1.782H23.817C23.4508 1.93722 23.0896 2.10397 22.734 2.282ZM111.248 0C111.905 0 112.421 0.164 112.796 0.492C113.187 0.805 113.382 1.242 113.382 1.806C113.382 2.369 113.187 2.814 112.796 3.142C112.421 3.455 111.905 3.612 111.248 3.612C110.592 3.612 110.068 3.455 109.677 3.142C109.302 2.814 109.114 2.369 109.114 1.806C109.114 1.243 109.302 0.806 109.677 0.492C110.068 0.164 110.592 0 111.248 0ZM113.077 5.792V15.993C113.077 16.65 113.187 17.096 113.406 17.33C113.64 17.565 114.031 17.682 114.578 17.682V18.174C114.141 18.1526 113.703 18.137 113.265 18.127C112.664 18.0955 112.061 18.0799 111.459 18.08C110.85 18.08 110.232 18.096 109.607 18.127C109.138 18.1373 108.669 18.153 108.2 18.174V17.682C108.747 17.682 109.13 17.565 109.349 17.33C109.583 17.096 109.701 16.65 109.701 15.993V8.606C109.701 7.903 109.591 7.386 109.372 7.059C109.169 6.715 108.778 6.543 108.2 6.543V6.05C108.7 6.097 109.185 6.12 109.654 6.12C110.31 6.12 110.92 6.097 111.483 6.05C112.061 5.988 112.593 5.902 113.077 5.792Z" fill="#2F2352"/>
<path fill-rule="evenodd" clip-rule="evenodd" d="M119.677 7.94403V5.79203C119.193 5.90203 118.661 5.98803 118.083 6.05003C117.504 6.09703 116.894 6.12003 116.253 6.12003C115.784 6.12003 115.3 6.09703 114.799 6.05003V6.54303C115.362 6.54303 115.753 6.71503 115.972 7.05903C116.191 7.38703 116.3 7.90303 116.3 8.60603V20.332C116.3 20.957 116.191 21.379 115.972 21.598C115.769 21.817 115.409 21.926 114.893 21.926V22.419L116.136 22.349C116.706 22.3331 117.277 22.3251 117.848 22.325C118.645 22.325 119.396 22.333 120.099 22.348C120.818 22.38 121.381 22.403 121.788 22.418V21.926C121.131 21.926 120.615 21.801 120.24 21.551C119.865 21.317 119.677 20.832 119.677 20.097V17.747C119.883 17.919 120.125 18.061 120.404 18.174C120.904 18.394 121.459 18.503 122.069 18.503C122.898 18.503 123.64 18.354 124.297 18.057C124.965 17.7633 125.552 17.3129 126.009 16.744C126.493 16.15 126.861 15.423 127.111 14.563C127.377 13.703 127.51 12.703 127.51 11.561C127.51 10.264 127.322 9.18503 126.947 8.32503C126.572 7.44903 126.071 6.80103 125.446 6.37903C124.821 5.94127 124.075 5.71139 123.312 5.72203C122.405 5.72203 121.608 5.95603 120.92 6.42503C120.379 6.79003 119.965 7.29603 119.677 7.94503V7.94403ZM119.677 8.75003V17.251C119.807 17.405 119.964 17.533 120.146 17.635C120.443 17.791 120.779 17.869 121.155 17.869C121.858 17.869 122.413 17.635 122.82 17.166C123.226 16.681 123.515 16.009 123.687 15.149C123.875 14.274 123.969 13.234 123.969 12.03C123.969 10.686 123.883 9.63003 123.711 8.86403C123.539 8.09803 123.304 7.55103 123.007 7.22303C122.71 6.89403 122.351 6.73003 121.928 6.73003C121.366 6.73003 120.85 6.95003 120.381 7.38703C120.028 7.72703 119.793 8.18203 119.677 8.75003Z" fill="#2F2352"/>
<path d="M132.894 5.72191C133.551 5.72191 134.121 5.80791 134.606 5.97991C135.106 6.13591 135.466 6.29291 135.685 6.44891C136.216 6.80891 136.545 6.57391 136.67 5.74491H137.162C137.131 6.18291 137.107 6.72291 137.092 7.36291C137.076 7.98891 137.068 8.82491 137.068 9.87291H136.576C136.495 9.28656 136.346 8.71185 136.13 8.16091C135.931 7.62621 135.6 7.15024 135.169 6.77691C134.762 6.41691 134.231 6.23691 133.574 6.23691C133.121 6.23691 132.738 6.37091 132.425 6.63691C132.112 6.88691 131.956 7.25391 131.956 7.73891C131.956 8.20791 132.097 8.62191 132.378 8.98191C132.66 9.32591 133.019 9.66191 133.457 9.98991C133.91 10.3029 134.379 10.6389 134.864 10.9979C135.38 11.3889 135.849 11.7799 136.271 12.1709C136.675 12.5246 137.016 12.945 137.279 13.4139C137.53 13.8669 137.655 14.4059 137.655 15.0319C137.655 15.7349 137.451 16.3519 137.045 16.8839C136.638 17.3999 136.099 17.7989 135.427 18.0799C134.77 18.3619 134.035 18.5029 133.223 18.5029C132.796 18.5077 132.371 18.4604 131.956 18.3619C131.63 18.2809 131.316 18.1628 131.018 18.0099C130.815 17.9159 130.619 17.8299 130.432 17.7519C130.272 17.6642 130.107 17.586 129.939 17.5179C129.783 17.4709 129.642 17.5249 129.517 17.6819C129.408 17.8379 129.322 18.0569 129.259 18.3379H128.767C128.798 17.8379 128.822 17.2279 128.837 16.5089C128.853 15.7899 128.861 14.8359 128.861 13.6489H129.353C129.447 14.4929 129.619 15.2429 129.869 15.8989C130.119 16.5409 130.455 17.0489 130.877 17.4239C131.315 17.7839 131.862 17.9639 132.519 17.9639C132.785 17.9639 133.043 17.9089 133.293 17.7989C133.543 17.6889 133.746 17.5089 133.903 17.2589C134.075 17.0089 134.161 16.6889 134.161 16.2989C134.161 15.6099 133.934 15.0389 133.48 14.5859C133.043 14.1329 132.48 13.6399 131.792 13.1089C131.292 12.7019 130.815 12.3039 130.362 11.9129C129.942 11.5286 129.578 11.0865 129.283 10.5999C128.997 10.1004 128.851 9.53321 128.861 8.95791C128.861 8.25491 129.048 7.66091 129.423 7.17591C129.805 6.68585 130.317 6.3122 130.901 6.09691C131.535 5.84517 132.211 5.71786 132.894 5.72191ZM162.005 5.97991C161.598 5.80791 161.067 5.72191 160.41 5.72191C159.674 5.71444 158.949 5.89187 158.3 6.23791C157.659 6.56591 157.151 7.12091 156.775 7.90291V5.79291C156.291 5.90191 155.759 5.98791 155.181 6.04991C154.618 6.09691 154.008 6.11991 153.352 6.11991C152.883 6.11991 152.398 6.09691 151.898 6.04991V6.54291C152.476 6.54291 152.867 6.71491 153.07 7.05891C153.289 7.38691 153.398 7.90291 153.398 8.60591V15.9929C153.398 16.6499 153.281 17.0959 153.047 17.3299C152.828 17.5649 152.445 17.6819 151.898 17.6819V18.1739C152.366 18.1529 152.835 18.1372 153.305 18.1269C153.914 18.096 154.524 18.0804 155.134 18.0799C155.681 18.0799 156.213 18.0959 156.728 18.1269C157.26 18.1429 157.651 18.1589 157.901 18.1739V17.6819C157.495 17.6819 157.205 17.5649 157.033 17.3299C156.861 17.0959 156.775 16.6499 156.775 15.9929V9.47391C156.775 8.95791 156.877 8.49691 157.08 8.08991C157.299 7.66791 157.58 7.33991 157.924 7.10591C158.254 6.87572 158.647 6.75282 159.05 6.75391C159.41 6.75391 159.675 6.83991 159.847 7.01191C160.035 7.16791 160.16 7.39491 160.223 7.69191C160.285 7.97291 160.316 8.30891 160.316 8.69991V15.9929C160.316 16.6499 160.23 17.0959 160.058 17.3299C159.902 17.5649 159.613 17.6819 159.191 17.6819V18.1739C159.472 18.1589 159.886 18.1429 160.434 18.1269C161.543 18.0636 162.655 18.0636 163.764 18.1269C164.342 18.1429 164.772 18.1589 165.053 18.1739V17.6819C164.553 17.6819 164.201 17.5649 163.998 17.3299C163.795 17.0959 163.693 16.6499 163.693 15.9929V9.57791L163.692 9.50491L163.688 9.26791C163.724 8.87591 163.828 8.49336 163.998 8.13791C164.217 7.71491 164.498 7.37891 164.842 7.12891C165.186 6.87891 165.562 6.75391 165.968 6.75391C166.374 6.75391 166.672 6.83991 166.859 7.01191C167.062 7.16791 167.195 7.39491 167.258 7.69191C167.336 7.97291 167.375 8.30891 167.375 8.69991V15.9929C167.375 16.6499 167.289 17.0959 167.117 17.3299C166.961 17.5649 166.672 17.6819 166.249 17.6819V18.1739C166.531 18.1589 166.945 18.1429 167.492 18.1269C168.046 18.0954 168.601 18.0798 169.157 18.0799C169.736 18.0799 170.322 18.0959 170.916 18.1269C171.51 18.1429 171.956 18.1589 172.253 18.1739V17.6819C171.706 17.6819 171.315 17.5649 171.08 17.3299C170.861 17.0959 170.752 16.6499 170.752 15.9929V9.68491C170.752 8.90291 170.697 8.27791 170.588 7.80891C170.478 7.32391 170.299 6.93391 170.048 6.63691C169.798 6.35491 169.47 6.13691 169.063 5.97991C168.657 5.80791 168.125 5.72191 167.469 5.72191C166.672 5.72191 165.921 5.88591 165.218 6.21391C164.544 6.53591 163.998 7.14991 163.579 8.05591C163.564 7.97312 163.548 7.89076 163.529 7.80891C163.42 7.32391 163.24 6.93391 162.99 6.63691C162.74 6.35491 162.411 6.13691 162.005 5.97991ZM150.058 15.6179V5.79191C149.573 5.90191 149.042 5.98791 148.463 6.04991C147.901 6.09691 147.291 6.11991 146.634 6.11991C146.165 6.11991 145.681 6.09691 145.18 6.04991V6.54291C145.759 6.54291 146.15 6.71491 146.353 7.05891C146.572 7.38691 146.681 7.90291 146.681 8.60591V14.7499C146.681 15.2659 146.572 15.7349 146.353 16.1569C146.167 16.5433 145.884 16.8748 145.532 17.1189C145.204 17.3536 144.809 17.477 144.406 17.4709C144.016 17.4709 143.719 17.3919 143.515 17.2359C143.304 17.0515 143.156 16.8056 143.093 16.5329C143.026 16.193 142.995 15.8472 142.999 15.5009V5.79191C142.515 5.90191 141.983 5.98791 141.405 6.04991C140.842 6.09691 140.232 6.11991 139.576 6.11991C139.107 6.11991 138.622 6.09691 138.122 6.04991V6.54291C138.7 6.54291 139.091 6.71491 139.294 7.05891C139.513 7.38691 139.622 7.90291 139.622 8.60591V14.5389C139.622 15.3049 139.677 15.9309 139.787 16.4149C139.896 16.8999 140.084 17.2909 140.349 17.5879C140.584 17.8539 140.904 18.0729 141.311 18.2449C141.717 18.4159 142.249 18.5029 142.906 18.5029C143.719 18.5029 144.453 18.3379 145.11 18.0099C145.782 17.6659 146.306 17.1029 146.681 16.3219V18.4319C147.204 18.303 147.738 18.2167 148.276 18.1739C148.839 18.1269 149.448 18.1039 150.105 18.1039C150.59 18.1039 151.074 18.1269 151.559 18.1739V17.6819C150.996 17.6819 150.605 17.5179 150.386 17.1889C150.167 16.8449 150.058 16.3219 150.058 15.6189V15.6179Z" fill="#2F2352"/>
<path fill-rule="evenodd" clip-rule="evenodd" d="M104.696 6.35494C103.836 5.93294 102.835 5.72194 101.694 5.72194C100.584 5.72194 99.591 5.93294 98.716 6.35494C97.856 6.77694 97.176 7.45694 96.676 8.39494C96.191 9.33294 95.948 10.5759 95.948 12.1239C95.948 13.6719 96.191 14.9139 96.675 15.8529C97.175 16.7749 97.855 17.4469 98.715 17.8689C99.591 18.2909 100.584 18.5029 101.694 18.5029C102.835 18.5029 103.836 18.2909 104.696 17.8689C105.555 17.4469 106.228 16.7749 106.712 15.8529C107.197 14.9149 107.439 13.6719 107.439 12.1239C107.439 10.5759 107.197 9.33394 106.712 8.39494C106.228 7.45694 105.555 6.77694 104.696 6.35494ZM100.123 7.59794C100.545 6.65994 101.069 6.19094 101.694 6.19094C102.335 6.19094 102.859 6.65994 103.265 7.59794C103.687 8.51994 103.898 10.0289 103.898 12.1239C103.898 14.2189 103.687 15.7279 103.265 16.6499C102.859 17.5719 102.335 18.0339 101.694 18.0339C101.069 18.0339 100.545 17.5719 100.123 16.6499C99.701 15.7279 99.49 14.2189 99.49 12.1239C99.49 10.0289 99.7 8.51994 100.123 7.59794ZM88.301 22.5829C87.331 22.5829 86.464 22.4969 85.698 22.3249C84.948 22.1689 84.354 21.9189 83.916 21.5749C83.494 21.2459 83.283 20.8399 83.283 20.3549C83.283 19.8699 83.501 19.4329 83.939 19.0419C84.377 18.6669 85.026 18.3699 85.886 18.1509L86.096 18.5259C85.8275 18.7276 85.6041 18.983 85.44 19.2759C85.315 19.5579 85.252 19.8469 85.252 20.1439C85.252 20.8009 85.549 21.3009 86.144 21.6439C86.754 22.0039 87.574 22.1839 88.606 22.1839C89.309 22.1839 89.935 22.0899 90.482 21.9029C91.045 21.7149 91.482 21.4329 91.795 21.0589C92.124 20.6829 92.288 20.2219 92.288 19.6749C92.288 19.2059 92.116 18.8069 91.772 18.4789C91.428 18.1659 90.74 18.0099 89.708 18.0099H88.254C87.614 18.0099 87.05 17.9399 86.566 17.7989C86.096 17.6589 85.729 17.4389 85.463 17.1419C85.198 16.8299 85.065 16.4389 85.065 15.9699C85.065 15.3129 85.323 14.7349 85.839 14.2339C86.243 13.8419 86.801 13.4689 87.513 13.1159C87.0449 13.0577 86.5851 12.9453 86.143 12.7809C85.44 12.5149 84.885 12.1079 84.479 11.5609C84.072 11.0139 83.869 10.3109 83.869 9.45094C83.869 8.59094 84.072 7.88694 84.479 7.33994C84.885 6.77694 85.44 6.36994 86.144 6.11994C86.847 5.85494 87.644 5.72194 88.535 5.72194C89.427 5.72194 90.224 5.85494 90.927 6.12094C91.391 6.28494 91.789 6.51794 92.124 6.81794C92.323 6.53094 92.565 6.27494 92.85 6.04994C93.382 5.64394 93.953 5.43994 94.562 5.43994C95.062 5.43994 95.438 5.58094 95.688 5.86294C95.954 6.12794 96.087 6.47994 96.087 6.91794C96.087 7.38694 95.961 7.73794 95.711 7.97294C95.461 8.19294 95.18 8.30194 94.867 8.30194C94.5918 8.2983 94.3265 8.19854 94.117 8.01994C93.897 7.83194 93.773 7.55094 93.742 7.17594C93.715 6.83994 93.809 6.42394 94.024 5.92594C93.568 6.11994 93.216 6.34094 92.968 6.58994C92.781 6.7702 92.6177 6.9735 92.482 7.19494C92.52 7.24194 92.557 7.29094 92.592 7.33994C92.999 7.88694 93.202 8.58994 93.202 9.44994C93.202 10.3099 92.999 11.0139 92.592 11.5609C92.186 12.1079 91.631 12.5149 90.927 12.7809C90.224 13.0459 89.427 13.1789 88.535 13.1789C88.4016 13.1791 88.2682 13.1761 88.135 13.1699C87.924 13.3129 87.721 13.4649 87.527 13.6249C87.4065 13.7192 87.3098 13.8404 87.2447 13.9788C87.1796 14.1173 87.1478 14.269 87.152 14.4219C87.152 14.9219 87.465 15.1719 88.09 15.1719H90.646C91.506 15.1719 92.272 15.2739 92.944 15.4769C93.632 15.6809 94.171 16.0169 94.562 16.4859C94.969 16.9389 95.172 17.5329 95.172 18.2679C95.172 19.0339 94.922 19.7449 94.422 20.4019C93.937 21.0589 93.187 21.5819 92.17 21.9729C91.154 22.3799 89.864 22.5829 88.301 22.5829ZM88.535 12.7569C88.958 12.7569 89.285 12.5229 89.52 12.0539C89.755 11.5689 89.872 10.7009 89.872 9.45094C89.872 8.19994 89.755 7.33994 89.52 6.87094C89.286 6.38594 88.958 6.14394 88.536 6.14394C88.129 6.14394 87.801 6.38594 87.551 6.87094C87.316 7.33994 87.199 8.19994 87.199 9.45094C87.199 10.7009 87.316 11.5689 87.551 12.0539C87.801 12.5229 88.129 12.7569 88.535 12.7569ZM80.247 6.35494C79.387 5.93294 78.387 5.72194 77.246 5.72194C76.136 5.72194 75.143 5.93294 74.268 6.35494C73.408 6.77694 72.728 7.45694 72.228 8.39494C71.743 9.33294 71.5 10.5759 71.5 12.1239C71.5 13.6719 71.743 14.9139 72.227 15.8529C72.727 16.7749 73.407 17.4469 74.267 17.8689C75.143 18.2909 76.136 18.5029 77.246 18.5029C78.387 18.5029 79.388 18.2909 80.247 17.8689C81.107 17.4469 81.779 16.7749 82.264 15.8529C82.749 14.9149 82.991 13.6719 82.991 12.1239C82.991 10.5759 82.749 9.33394 82.264 8.39494C81.78 7.45694 81.107 6.77694 80.247 6.35494ZM75.674 7.59794C76.097 6.65994 76.62 6.19094 77.246 6.19094C77.886 6.19094 78.41 6.65994 78.816 7.59794C79.239 8.51994 79.45 10.0289 79.45 12.1239C79.45 14.2189 79.239 15.7279 78.817 16.6499C78.41 17.5719 77.887 18.0339 77.246 18.0339C76.62 18.0339 76.096 17.5719 75.674 16.6499C75.252 15.7279 75.041 14.2189 75.041 12.1239C75.041 10.0289 75.252 8.51994 75.674 7.59794Z" fill="#2F2352"/>
<path d="M65.1838 1.5708V2.0408C64.6528 2.0558 64.2459 2.1178 63.9649 2.2278C63.8362 2.27135 63.72 2.34525 63.626 2.44326C63.532 2.54126 63.463 2.66047 63.4249 2.7908C63.3319 3.0558 63.2849 3.4788 63.2849 4.0568V15.9698C63.2849 16.4538 63.3159 16.8138 63.3789 17.0488C63.4569 17.2828 63.5978 17.4388 63.8008 17.5178C64.0198 17.5958 64.3409 17.6348 64.7619 17.6348H65.9119C66.4419 17.6348 66.9429 17.5098 67.4119 17.2598C67.8819 17.0098 68.3029 16.6578 68.6779 16.2038C69.0734 15.6996 69.39 15.1382 69.6168 14.5388C69.8668 13.8988 70.0539 13.1868 70.1789 12.4048H70.7189C70.6719 12.9368 70.6489 13.6248 70.6489 14.4688C70.6489 14.8288 70.6558 15.3518 70.6718 16.0398C70.6878 16.7278 70.7338 17.4398 70.8118 18.1738C69.9136 18.1407 69.0147 18.125 68.1158 18.1268C67.1158 18.1118 66.2239 18.1038 65.4419 18.1038H63.9419C63.3319 18.1038 62.6749 18.1118 61.9719 18.1268C61.2679 18.1268 60.5569 18.1348 59.8379 18.1508C59.1179 18.1508 58.4379 18.1588 57.7979 18.1738V17.7048C58.2979 17.6738 58.6729 17.6108 58.9229 17.5178C59.1729 17.4238 59.3369 17.2358 59.4159 16.9548C59.5089 16.6728 59.5559 16.2508 59.5559 15.6878V4.0568C59.5559 3.4778 59.5089 3.0568 59.4159 2.7908C59.3851 2.66071 59.3215 2.54068 59.2311 2.44213C59.1408 2.34358 59.0268 2.26979 58.8999 2.2278C58.6499 2.1178 58.2819 2.0558 57.7979 2.0398V1.5708C59.0323 1.61654 60.2675 1.63988 61.5028 1.6408C62.1908 1.6408 62.8629 1.6338 63.5189 1.6178C64.1919 1.6018 64.7468 1.5868 65.1838 1.5708Z" fill="#2F2352"/>
<path fill-rule="evenodd" clip-rule="evenodd" d="M169.871 37.5532C169.838 37.3852 169.86 37.1662 169.939 36.8962L173.242 24.9292C172.714 25.1461 172.166 25.3151 171.607 25.4342C171.034 25.5472 170.377 25.6082 169.635 25.6202L169.517 25.9742C170.068 25.9742 170.411 26.0642 170.546 26.2442C170.68 26.4242 170.697 26.7042 170.596 27.0862L169.814 30.0352C169.765 29.8929 169.681 29.7656 169.568 29.6652C169.377 29.4852 169.113 29.3952 168.776 29.3952C168.102 29.3952 167.478 29.5472 166.905 29.8502C166.329 30.1651 165.81 30.5756 165.371 31.0642C164.91 31.5593 164.519 32.1151 164.208 32.7162C163.902 33.3011 163.659 33.9169 163.483 34.5532C163.324 35.1013 163.239 35.6684 163.23 36.2392C163.23 36.7782 163.315 37.2222 163.483 37.5702C163.652 37.9072 163.882 38.1602 164.174 38.3282C164.466 38.4862 164.792 38.5642 165.152 38.5642C165.702 38.5642 166.197 38.4022 166.635 38.0762C167.073 37.7392 167.483 37.2222 167.866 36.5252C168.026 36.2412 168.187 35.9222 168.347 35.5682L168.236 35.9862C168.135 36.3155 168.067 36.6542 168.034 36.9972C168.012 37.2892 168.034 37.5372 168.102 37.7392C168.236 38.2892 168.652 38.5652 169.349 38.5652C169.607 38.5652 169.871 38.5142 170.141 38.4132C170.411 38.3122 170.663 38.1382 170.899 37.8902C171.147 37.6432 171.343 37.2902 171.489 36.8282L171.894 35.5982H171.574L171.304 36.3562C171.102 36.9302 170.911 37.3172 170.731 37.5192C170.562 37.7112 170.388 37.8062 170.208 37.8062C170.017 37.8062 169.905 37.7222 169.871 37.5532ZM168.972 33.2132C168.845 33.6242 168.707 34.0152 168.557 34.3842C168.276 35.1042 167.978 35.7222 167.663 36.2392C167.36 36.7442 167.062 37.1372 166.77 37.4192C166.478 37.6882 166.219 37.8232 165.995 37.8232C165.781 37.8232 165.624 37.7222 165.523 37.5202C165.433 37.3062 165.388 36.9862 165.388 36.5592C165.388 35.9522 165.455 35.3342 165.59 34.7052C165.725 34.0652 165.91 33.4522 166.146 32.8682C166.364 32.3201 166.635 31.7949 166.955 31.3002C167.259 30.8282 167.579 30.4572 167.916 30.1872C168.264 29.9172 168.607 29.7832 168.944 29.7832C169.169 29.7832 169.349 29.8622 169.484 30.0192C169.578 30.1212 169.65 30.2692 169.7 30.4652L168.972 33.2132Z" fill="#2F2352"/>
<path d="M158.655 38.328H156.582L158.604 31.064C158.706 30.727 158.739 30.491 158.706 30.356C158.672 30.221 158.571 30.154 158.402 30.154C158.189 30.154 157.992 30.261 157.812 30.474C157.632 30.687 157.447 31.064 157.256 31.604L156.969 32.395H156.649L157.087 31.131C157.245 30.681 157.441 30.334 157.677 30.086C157.913 29.828 158.172 29.648 158.453 29.547C158.734 29.446 159.02 29.395 159.312 29.395C159.672 29.395 159.936 29.468 160.104 29.615C160.284 29.761 160.397 29.952 160.442 30.188C160.499 30.4424 160.51 30.7048 160.475 30.963C160.453 31.233 160.408 31.497 160.34 31.755L160.069 32.812L160.138 32.632C160.453 31.834 160.756 31.199 161.048 30.727C161.352 30.244 161.672 29.901 162.009 29.699C162.339 29.4983 162.719 29.3931 163.105 29.395C163.509 29.395 163.818 29.513 164.032 29.749C164.257 29.985 164.369 30.277 164.369 30.626C164.369 30.906 164.301 31.171 164.167 31.418C164.036 31.6498 163.851 31.8464 163.627 31.991C163.414 32.126 163.167 32.193 162.886 32.193C162.605 32.193 162.38 32.12 162.211 31.974C162.054 31.828 161.975 31.614 161.975 31.334C161.975 31.086 162.032 30.862 162.144 30.659C162.252 30.4614 162.402 30.2892 162.582 30.154C162.762 30.008 162.959 29.907 163.172 29.85C163.148 29.8269 163.12 29.8097 163.088 29.8C163.05 29.7881 163.01 29.7824 162.97 29.783C162.723 29.783 162.47 29.873 162.211 30.053C161.953 30.221 161.683 30.497 161.402 30.879C161.121 31.261 160.835 31.766 160.543 32.395C160.213 33.1388 159.921 33.8984 159.666 34.671C159.539 35.045 159.411 35.447 159.283 35.878L158.655 38.328Z" fill="#2F2352"/>
<path fill-rule="evenodd" clip-rule="evenodd" d="M152.357 35.7242L152.286 35.9862C152.18 36.3668 152.106 36.7559 152.067 37.1492C152.033 37.5092 152.089 37.8122 152.235 38.0592C152.46 38.3962 152.842 38.5652 153.381 38.5652C153.64 38.5652 153.898 38.5142 154.157 38.4132C154.426 38.3122 154.679 38.1382 154.915 37.8902C155.151 37.6322 155.348 37.2722 155.505 36.8122L155.927 35.5822H155.606L155.353 36.3402C155.151 36.9242 154.955 37.3122 154.764 37.5032C154.573 37.6932 154.387 37.7892 154.207 37.7892C154.061 37.7892 153.966 37.7442 153.921 37.6542C153.886 37.5397 153.874 37.4193 153.887 37.3002C153.909 37.1573 153.943 37.0165 153.988 36.8792L156.163 29.3952C155.825 29.4761 155.481 29.5326 155.134 29.5642C154.786 29.5982 154.41 29.6202 154.005 29.6312L153.761 30.5332C153.751 30.3042 153.684 30.0812 153.567 29.8842C153.479 29.7306 153.351 29.6039 153.197 29.5177C153.042 29.4315 152.867 29.3892 152.69 29.3952C152.196 29.3952 151.702 29.5472 151.207 29.8502C150.681 30.1808 150.21 30.5902 149.808 31.0642C149.354 31.5811 148.959 32.1461 148.628 32.7492C148.297 33.354 148.031 33.9927 147.836 34.6542C147.652 35.2494 147.556 35.8682 147.55 36.4912C147.55 37.1212 147.696 37.6262 147.988 38.0082C148.28 38.3792 148.729 38.5642 149.336 38.5642C149.763 38.5642 150.173 38.4412 150.567 38.1942C150.971 37.9462 151.353 37.5362 151.713 36.9642C151.936 36.6192 152.15 36.2062 152.357 35.7242ZM150.904 37.4352C150.645 37.6712 150.415 37.7892 150.213 37.7892C150.044 37.7892 149.915 37.7052 149.825 37.5362C149.746 37.3562 149.707 37.0592 149.707 36.6432C149.707 36.0472 149.774 35.4352 149.909 34.8062C150.044 34.1762 150.224 33.5702 150.449 32.9862C150.685 32.4012 150.943 31.8792 151.224 31.4182C151.505 30.9582 151.786 30.5922 152.067 30.3222C152.359 30.0522 152.634 29.9182 152.893 29.9182C153.162 29.9182 153.353 30.0532 153.466 30.3222C153.578 30.5662 153.607 30.8932 153.553 31.3022L153.055 33.1442L153.112 32.8512C152.932 33.5702 152.718 34.2332 152.471 34.8402C152.256 35.3829 151.997 35.9069 151.696 36.4072C151.426 36.8452 151.162 37.1882 150.904 37.4352ZM145.284 36.8962C145.205 37.1662 145.183 37.3852 145.217 37.5532C145.25 37.7222 145.363 37.8062 145.554 37.8062C145.734 37.8062 145.908 37.7112 146.076 37.5202C146.256 37.3172 146.447 36.9302 146.649 36.3562L146.919 35.5982H147.239L146.835 36.8282C146.689 37.2892 146.492 37.6432 146.245 37.8902C146.035 38.1199 145.776 38.2987 145.486 38.4132C145.234 38.5113 144.965 38.5628 144.694 38.5652C143.998 38.5652 143.582 38.2892 143.447 37.7392C143.376 37.4987 143.353 37.2465 143.38 36.9972C143.402 36.7052 143.469 36.3672 143.582 35.9862L143.693 35.5682C143.532 35.9222 143.371 36.2412 143.211 36.5252C142.829 37.2222 142.419 37.7392 141.981 38.0752C141.554 38.3978 141.032 38.57 140.497 38.5652C140.138 38.5652 139.812 38.4852 139.52 38.3292C139.219 38.1511 138.978 37.8867 138.829 37.5702C138.66 37.2222 138.576 36.7782 138.576 36.2392C138.576 35.7222 138.66 35.1592 138.829 34.5532C138.997 33.9352 139.239 33.3232 139.553 32.7162C139.864 32.1153 140.255 31.5596 140.716 31.0642C141.177 30.5582 141.688 30.1542 142.25 29.8502C142.827 29.546 143.469 29.3897 144.121 29.3952C144.458 29.3952 144.722 29.4852 144.913 29.6652C145.023 29.7622 145.106 29.8852 145.16 30.0352L145.941 27.0862C146.043 26.7042 146.026 26.4232 145.891 26.2432C145.756 26.0632 145.413 25.9732 144.863 25.9732L144.981 25.6202C145.643 25.6164 146.303 25.5542 146.953 25.4342C147.512 25.3151 148.059 25.1461 148.588 24.9292L145.284 36.8962ZM143.902 34.3842C144.052 34.0142 144.191 33.6242 144.317 33.2132L145.046 30.4652C145.011 30.3011 144.937 30.1481 144.829 30.0192C144.763 29.9417 144.68 29.8802 144.587 29.8394C144.493 29.7985 144.392 29.7793 144.29 29.7832C143.953 29.7832 143.61 29.9182 143.262 30.1872C142.924 30.4572 142.604 30.8282 142.301 31.3002C141.98 31.7944 141.709 32.3193 141.492 32.8672C141.253 33.4621 141.067 34.0772 140.936 34.7052C140.803 35.3143 140.735 35.9358 140.733 36.5592C140.733 36.9862 140.778 37.3062 140.868 37.5192C140.969 37.7222 141.127 37.8232 141.34 37.8232C141.565 37.8232 141.823 37.6882 142.115 37.4182C142.408 37.1382 142.705 36.7442 143.009 36.2382C143.359 35.6469 143.658 35.0266 143.902 34.3842Z" fill="#2F2352"/>
<path d="M129.294 38.328H131.367L131.562 37.566L131.552 37.621C131.766 36.834 132.007 36.076 132.277 35.345C132.539 34.6474 132.831 33.9614 133.153 33.289C133.457 32.659 133.76 32.109 134.064 31.637C134.367 31.165 134.659 30.8 134.94 30.541C135.221 30.271 135.479 30.137 135.715 30.137C135.906 30.137 136.024 30.204 136.069 30.339C136.116 30.4922 136.121 30.6549 136.086 30.811C136.052 30.9937 136.007 31.174 135.951 31.351L134.418 35.986C134.26 36.458 134.17 36.862 134.148 37.199C134.125 37.536 134.187 37.812 134.333 38.025C134.446 38.194 134.603 38.323 134.805 38.413C135.019 38.513 135.272 38.565 135.564 38.565C135.833 38.565 136.103 38.514 136.373 38.413C136.654 38.323 136.912 38.154 137.148 37.907C137.395 37.66 137.598 37.3 137.755 36.828L138.176 35.598H137.856L137.586 36.356C137.373 36.941 137.171 37.328 136.98 37.519C136.8 37.711 136.626 37.806 136.457 37.806C136.277 37.806 136.165 37.733 136.12 37.586C136.075 37.43 136.103 37.199 136.204 36.896L137.856 31.94C138.002 31.502 138.075 31.092 138.075 30.71C138.086 30.317 137.98 30.002 137.755 29.766C137.541 29.519 137.159 29.396 136.609 29.396C136.193 29.396 135.794 29.486 135.412 29.665C135.03 29.845 134.659 30.159 134.3 30.609C133.94 31.047 133.569 31.643 133.187 32.395C132.933 32.9023 132.701 33.4197 132.49 33.946L133.052 31.755C133.12 31.485 133.17 31.215 133.204 30.946C133.238 30.666 133.226 30.412 133.17 30.187C133.116 29.9547 132.978 29.7505 132.783 29.614C132.592 29.468 132.311 29.395 131.94 29.395C131.49 29.395 131.08 29.519 130.709 29.766C130.339 30.013 130.035 30.468 129.799 31.131L129.361 32.395H129.681L129.968 31.603C130.17 31.053 130.355 30.676 130.524 30.474C130.704 30.261 130.9 30.154 131.114 30.154C131.271 30.154 131.367 30.199 131.401 30.289C131.445 30.379 131.457 30.491 131.434 30.626C131.409 30.7738 131.375 30.9201 131.333 31.064L129.294 38.328Z" fill="#2F2352"/>
<path fill-rule="evenodd" clip-rule="evenodd" d="M124.998 35.986L125.069 35.724C124.889 36.1544 124.673 36.5692 124.425 36.964C124.065 37.536 123.683 37.947 123.278 38.194C122.885 38.441 122.475 38.564 122.048 38.564C121.441 38.564 120.992 38.379 120.7 38.008C120.407 37.626 120.261 37.121 120.261 36.491C120.261 35.907 120.357 35.295 120.548 34.654C120.743 33.9925 121.008 33.3538 121.34 32.749C121.67 32.1457 122.066 31.5806 122.52 31.064C122.921 30.5901 123.393 30.1806 123.919 29.85C124.413 29.547 124.908 29.395 125.402 29.395C125.784 29.395 126.076 29.558 126.279 29.885C126.387 30.052 126.452 30.268 126.473 30.533L126.717 29.631C127.121 29.62 127.498 29.598 127.846 29.564C128.206 29.53 128.548 29.474 128.874 29.395L126.7 36.88C126.654 37.0172 126.62 37.158 126.599 37.301C126.586 37.4201 126.598 37.5405 126.633 37.655C126.678 37.745 126.773 37.79 126.919 37.79C127.099 37.79 127.284 37.695 127.475 37.504C127.666 37.313 127.863 36.924 128.065 36.341L128.318 35.582H128.638L128.217 36.812C128.06 37.273 127.863 37.632 127.627 37.892C127.417 38.1211 127.158 38.2996 126.869 38.414C126.622 38.513 126.359 38.5645 126.093 38.566C125.554 38.566 125.172 38.397 124.947 38.06C124.801 37.813 124.745 37.51 124.779 37.15C124.818 36.7568 124.891 36.3666 124.998 35.986ZM122.924 37.789C123.127 37.789 123.357 37.671 123.616 37.435C123.874 37.188 124.138 36.845 124.408 36.407C124.677 35.969 124.936 35.447 125.183 34.84C125.43 34.233 125.644 33.57 125.824 32.85L125.767 33.144L126.265 31.303C126.318 30.893 126.289 30.566 126.178 30.323C126.065 30.053 125.874 29.918 125.604 29.918C125.346 29.918 125.071 30.053 124.779 30.322C124.498 30.592 124.217 30.957 123.936 31.418C123.655 31.878 123.396 32.401 123.16 32.985C122.933 33.5769 122.753 34.1853 122.621 34.805C122.489 35.4088 122.421 36.0249 122.419 36.643C122.419 37.059 122.458 37.357 122.537 37.536C122.627 37.705 122.756 37.789 122.924 37.789Z" fill="#2F2352"/>
<path d="M121.43 29.9682L121.481 29.6312H119.473L120.267 26.8672C119.934 26.949 119.596 27.0055 119.256 27.0362C118.908 27.0692 118.531 27.0922 118.127 27.1032L117.402 29.6312H115.868L115.784 29.9682H117.306L115.581 35.9862C115.435 36.4802 115.385 36.9242 115.43 37.3172C115.486 37.6992 115.643 38.0032 115.902 38.2272C116.171 38.4522 116.559 38.5652 117.065 38.5652C117.638 38.5652 118.132 38.4132 118.548 38.1092C118.964 37.8062 119.29 37.3062 119.526 36.6092L119.863 35.5982H119.542L119.29 36.2892C119.087 36.8512 118.863 37.2442 118.615 37.4692C118.379 37.6942 118.143 37.8062 117.907 37.8062C117.814 37.8093 117.722 37.791 117.637 37.7529C117.552 37.7147 117.478 37.6577 117.419 37.5862C117.306 37.4412 117.295 37.2112 117.385 36.8962L119.376 29.9682H121.43ZM115.848 26.2772C115.736 26.5692 115.584 26.9972 115.393 27.5582C115.213 28.1082 115.034 28.8282 114.854 29.7152H114.517C114.55 29.5582 114.573 29.3952 114.584 29.2272C114.605 29.0764 114.616 28.9244 114.618 28.7722C114.618 28.3332 114.528 27.9522 114.348 27.6262C114.175 27.2843 113.897 27.0065 113.556 26.8332C113.208 26.6312 112.758 26.5302 112.208 26.5302C111.612 26.5302 111.106 26.6872 110.691 27.0022C110.275 27.3052 110.067 27.7942 110.067 28.4682C110.067 28.8842 110.162 29.2782 110.353 29.6482C110.556 30.0082 110.809 30.3622 111.112 30.7102C111.427 31.0472 111.758 31.3902 112.106 31.7382C112.455 32.0752 112.781 32.4242 113.084 32.7832C113.387 33.1432 113.635 33.5252 113.826 33.9292C114.028 34.3232 114.129 34.7552 114.129 35.2272C114.129 35.8232 113.983 36.3342 113.691 36.7612C113.406 37.1806 113.031 37.5317 112.595 37.7892C112.137 38.051 111.643 38.2441 111.129 38.3622C110.634 38.4944 110.124 38.5626 109.612 38.5652C109.106 38.5652 108.685 38.5252 108.348 38.4472C108.059 38.3929 107.781 38.2962 107.522 38.1602C107.301 38.0392 107.082 37.9159 106.864 37.7902C106.764 37.7069 106.65 37.6437 106.527 37.6042C106.448 37.5647 106.362 37.5416 106.275 37.5362C106.128 37.5362 106.005 37.6092 105.904 37.7562C105.771 37.9757 105.658 38.2066 105.567 38.4462H105.229C105.507 37.7608 105.738 37.0571 105.921 36.3402C106.055 35.8232 106.207 35.1772 106.376 34.4012H106.713C106.665 34.6244 106.626 34.8492 106.595 35.0752C106.561 35.3002 106.55 35.5252 106.561 35.7502C106.595 36.5362 106.836 37.1432 107.286 37.5702C107.747 37.9972 108.421 38.2102 109.308 38.2102C110.061 38.2102 110.629 38.0532 111.011 37.7392C111.393 37.4132 111.584 36.9412 111.584 36.3232C111.584 35.8512 111.494 35.4232 111.314 35.0422C111.144 34.6459 110.917 34.2766 110.64 33.9462C110.354 33.6043 110.056 33.2727 109.747 32.9522C109.436 32.6316 109.138 32.2997 108.853 31.9572C108.577 31.6168 108.344 31.2433 108.162 30.8452C107.978 30.4196 107.886 29.9598 107.893 29.4962C107.893 28.9352 108.011 28.4462 108.247 28.0302C108.484 27.6244 108.806 27.274 109.19 27.0022C109.583 26.7212 110.022 26.5101 110.488 26.3782C110.94 26.2352 111.412 26.1614 111.887 26.1592C112.494 26.1592 112.994 26.2322 113.387 26.3792C113.781 26.5242 114.118 26.6992 114.399 26.9012L114.719 27.1032C114.82 27.1482 114.899 27.1702 114.955 27.1702C115.112 27.1702 115.298 26.8732 115.511 26.2772H115.848Z" fill="#2F2352"/>
<path fill-rule="evenodd" clip-rule="evenodd" d="M99.5775 37.5532C99.5435 37.3852 99.5665 37.1662 99.6455 36.8962L102.949 24.9292C102.42 25.1461 101.873 25.3151 101.314 25.4342C100.741 25.5472 100.084 25.6082 99.3415 25.6202L99.2235 25.9742C99.7735 25.9742 100.118 26.0642 100.252 26.2442C100.387 26.4242 100.404 26.7042 100.303 27.0862L99.5205 30.0352C99.4714 29.8929 99.3867 29.7655 99.2745 29.6652C99.0835 29.4852 98.8195 29.3952 98.4825 29.3952C97.8075 29.3952 97.1845 29.5472 96.6115 29.8502C96.0351 30.1651 95.5164 30.5756 95.0775 31.0642C94.6164 31.5593 94.2251 32.1151 93.9145 32.7162C93.6084 33.3011 93.3654 33.9169 93.1895 34.5532C93.0295 35.1012 92.9444 35.6684 92.9365 36.2392C92.9365 36.7782 93.0215 37.2222 93.1895 37.5702C93.3585 37.9072 93.5885 38.1602 93.8805 38.3282C94.1725 38.4862 94.4985 38.5642 94.8585 38.5642C95.4085 38.5642 95.9035 38.4022 96.3415 38.0762C96.7795 37.7392 97.1895 37.2222 97.5715 36.5252C97.7315 36.2412 97.8925 35.9222 98.0535 35.5682L97.9435 35.9862C97.8413 36.3153 97.7732 36.6541 97.7405 36.9972C97.7137 37.2465 97.7364 37.4987 97.8075 37.7392C97.9425 38.2892 98.3575 38.5652 99.0555 38.5652C99.3135 38.5652 99.5775 38.5142 99.8475 38.4132C100.118 38.3122 100.37 38.1382 100.606 37.8902C100.854 37.6432 101.05 37.2902 101.196 36.8282L101.601 35.5982H101.281L101.011 36.3562C100.809 36.9302 100.618 37.3172 100.438 37.5192C100.269 37.7112 100.095 37.8062 99.9145 37.8062C99.7245 37.8062 99.6115 37.7222 99.5775 37.5532ZM98.6775 33.2132C98.5515 33.6242 98.4135 34.0152 98.2625 34.3842C97.9825 35.1042 97.6845 35.7222 97.3695 36.2392C97.0665 36.7442 96.7685 37.1372 96.4765 37.4192C96.1845 37.6882 95.9265 37.8232 95.7005 37.8232C95.4875 37.8232 95.3305 37.7222 95.2295 37.5202C95.1395 37.3062 95.0945 36.9862 95.0945 36.5592C95.0945 35.9522 95.1615 35.3342 95.2965 34.7052C95.4315 34.0652 95.6165 33.4522 95.8525 32.8682C96.07 32.32 96.3413 31.7948 96.6625 31.3002C96.9655 30.8282 97.2855 30.4572 97.6225 30.1872C97.9705 29.9172 98.3135 29.7832 98.6505 29.7832C98.8755 29.7832 99.0555 29.8622 99.1905 30.0192C99.2845 30.1212 99.3565 30.2692 99.4065 30.4652L98.6775 33.2132Z" fill="#2F2352"/>
<path d="M85.7283 38.328H83.6553L85.6953 31.064C85.7403 30.907 85.7733 30.761 85.7953 30.626C85.8203 30.513 85.8088 30.395 85.7623 30.289C85.7283 30.199 85.6323 30.154 85.4753 30.154C85.2623 30.154 85.0653 30.261 84.8853 30.474C84.7173 30.676 84.5313 31.053 84.3293 31.604L84.0433 32.395H83.7233L84.1613 31.131C84.3973 30.468 84.7013 30.013 85.0713 29.766C85.4413 29.519 85.8513 29.396 86.3013 29.396C86.6723 29.396 86.9533 29.468 87.1443 29.614C87.3401 29.7503 87.4784 29.9545 87.5323 30.187C87.5883 30.412 87.5993 30.665 87.5663 30.946C87.5319 31.2185 87.4811 31.4886 87.4143 31.755L86.8523 33.947C87.0903 33.358 87.3223 32.842 87.5493 32.395C87.9313 31.643 88.3013 31.047 88.6613 30.609C89.0213 30.159 89.3913 29.845 89.7733 29.665C90.1563 29.485 90.5543 29.395 90.9703 29.395C91.5203 29.395 91.9033 29.519 92.1163 29.766C92.3413 30.002 92.4483 30.316 92.4363 30.71C92.4363 31.092 92.3643 31.502 92.2173 31.94L90.5663 36.896C90.4643 37.199 90.4363 37.43 90.4813 37.586C90.5263 37.733 90.6393 37.806 90.8193 37.806C90.9873 37.806 91.1613 37.711 91.3413 37.52C91.5323 37.328 91.7343 36.94 91.9483 36.356L92.2183 35.598H92.5383L92.1163 36.828C91.9593 37.3 91.7563 37.66 91.5103 37.908C91.2985 38.1393 91.0315 38.313 90.7343 38.413C90.476 38.5121 90.2019 38.5636 89.9253 38.565C89.6333 38.565 89.3803 38.514 89.1673 38.413C88.9643 38.323 88.8073 38.193 88.6953 38.025C88.5493 37.812 88.4873 37.536 88.5093 37.199C88.5323 36.862 88.6223 36.458 88.7793 35.986L90.3133 31.351C90.3693 31.171 90.4143 30.991 90.4483 30.811C90.4836 30.6549 90.4778 30.4922 90.4313 30.339C90.3863 30.204 90.2683 30.137 90.0773 30.137C89.8413 30.137 89.5823 30.272 89.3023 30.541C89.0213 30.8 88.7283 31.165 88.4253 31.637C88.0889 32.1688 87.785 32.7205 87.5153 33.289C87.2123 33.919 86.9193 34.603 86.6383 35.345C86.3683 36.075 86.1283 36.834 85.9143 37.621L85.9243 37.566L85.7283 38.328Z" fill="#2F2352"/>
<path fill-rule="evenodd" clip-rule="evenodd" d="M79.43 35.7241L79.36 35.9861C79.2539 36.3668 79.1803 36.7559 79.14 37.1491C79.106 37.5091 79.162 37.8121 79.308 38.0591C79.533 38.3961 79.915 38.5651 80.455 38.5651C80.7432 38.563 81.028 38.5021 81.2918 38.386C81.5555 38.2699 81.7928 38.1012 81.989 37.8901C82.225 37.6321 82.421 37.2721 82.579 36.8121L82.999 35.5821H82.679L82.427 36.3401C82.224 36.9241 82.027 37.3121 81.837 37.5031C81.646 37.6931 81.46 37.7891 81.281 37.7891C81.134 37.7891 81.039 37.7441 80.994 37.6541C80.9589 37.5396 80.9473 37.4191 80.96 37.3001C80.983 37.1541 81.016 37.0141 81.062 36.8791L83.236 29.3951C82.8979 29.4759 82.5543 29.5324 82.208 29.5641C81.859 29.5981 81.483 29.6201 81.078 29.6311L80.834 30.5331C80.8236 30.3041 80.757 30.0812 80.64 29.8841C80.5523 29.7306 80.4244 29.604 80.27 29.5178C80.1157 29.4316 79.9407 29.3892 79.764 29.3951C79.269 29.3951 78.774 29.5471 78.28 29.8501C77.786 30.1541 77.32 30.5581 76.881 31.0641C76.427 31.5807 76.0313 32.1458 75.701 32.7491C75.3696 33.3539 75.104 33.9925 74.909 34.6541C74.7252 35.2493 74.6288 35.8681 74.623 36.4911C74.623 37.1211 74.769 37.6261 75.061 38.0081C75.353 38.3791 75.803 38.5641 76.409 38.5641C76.836 38.5641 77.247 38.4411 77.639 38.1941C78.044 37.9461 78.427 37.5361 78.786 36.9641C79.009 36.6191 79.223 36.2061 79.43 35.7241ZM77.977 37.4351C77.719 37.6711 77.488 37.7891 77.286 37.7891C77.117 37.7891 76.988 37.7051 76.898 37.5361C76.82 37.3561 76.78 37.0591 76.78 36.6431C76.78 36.0471 76.848 35.4351 76.983 34.8061C77.117 34.1761 77.297 33.5701 77.522 32.9861C77.758 32.4011 78.016 31.8791 78.297 31.4181C78.578 30.9581 78.859 30.5921 79.14 30.3221C79.432 30.0521 79.707 29.9181 79.966 29.9181C80.236 29.9181 80.426 30.0531 80.539 30.3221C80.651 30.5661 80.679 30.8931 80.626 31.3021L80.128 33.1441L80.185 32.8511C80.005 33.5701 79.792 34.2331 79.545 34.8401C79.297 35.4461 79.039 35.9691 78.769 36.4071C78.499 36.8451 78.235 37.1881 77.977 37.4351Z" fill="#2F2352"/>
<path d="M70.115 38.328H68.042L70.064 31.064C70.165 30.727 70.199 30.491 70.165 30.356C70.132 30.221 70.031 30.154 69.862 30.154C69.649 30.154 69.452 30.261 69.272 30.474C69.092 30.687 68.907 31.064 68.716 31.604L68.429 32.395H68.109L68.547 31.131C68.705 30.681 68.901 30.334 69.137 30.086C69.373 29.828 69.632 29.648 69.913 29.547C70.193 29.446 70.48 29.395 70.773 29.395C71.132 29.395 71.396 29.468 71.564 29.615C71.7427 29.7585 71.8629 29.9622 71.902 30.188C71.958 30.424 71.969 30.682 71.935 30.963C71.913 31.233 71.868 31.497 71.8 31.755L71.53 32.812L71.557 32.739L71.598 32.632C71.913 31.834 72.216 31.199 72.508 30.727C72.812 30.244 73.132 29.901 73.469 29.699C73.7992 29.4983 74.1786 29.3931 74.565 29.395C74.969 29.395 75.278 29.513 75.492 29.749C75.716 29.985 75.829 30.277 75.829 30.626C75.829 30.906 75.761 31.171 75.626 31.418C75.4952 31.6498 75.3103 31.8464 75.087 31.991C74.8642 32.1284 74.6066 32.1985 74.345 32.193C74.065 32.193 73.84 32.12 73.671 31.974C73.514 31.828 73.435 31.614 73.435 31.334C73.435 31.086 73.491 30.862 73.604 30.659C73.716 30.457 73.862 30.289 74.042 30.154C74.222 30.008 74.418 29.907 74.632 29.85C74.6083 29.827 74.5795 29.8099 74.548 29.8C74.5256 29.7925 74.5025 29.7874 74.479 29.785C74.4624 29.7835 74.4457 29.7828 74.429 29.783C74.183 29.783 73.929 29.873 73.671 30.053C73.413 30.221 73.143 30.497 72.862 30.879C72.582 31.261 72.295 31.766 72.002 32.395C71.6725 33.1388 71.3802 33.8984 71.126 34.671C70.999 35.044 70.871 35.447 70.743 35.878L70.115 38.328Z" fill="#2F2352"/>
<path fill-rule="evenodd" clip-rule="evenodd" d="M66.9618 27.019C66.3998 26.614 65.5008 26.412 64.2648 26.412C63.8828 26.412 63.5008 26.418 63.1178 26.429C62.7478 26.44 62.3208 26.446 61.8378 26.446H60.9948C60.6908 26.434 60.4048 26.429 60.1348 26.429C59.91 26.4191 59.6854 26.4078 59.4608 26.395L59.3768 26.732C59.8148 26.732 60.1128 26.788 60.2698 26.901C60.4388 27.001 60.5168 27.159 60.5058 27.373C60.4831 27.6459 60.4379 27.9165 60.3708 28.182L58.1458 36.542C58.0458 36.946 57.9328 37.25 57.8088 37.452C57.6968 37.6452 57.5167 37.7897 57.3038 37.857C57.0898 37.924 56.7918 37.969 56.4098 37.991L56.3428 38.328C56.5328 38.318 56.7638 38.312 57.0328 38.312C57.3028 38.3 57.5898 38.295 57.8928 38.295C58.741 38.2692 59.5899 38.2749 60.4378 38.312C60.8988 38.322 61.3208 38.329 61.7028 38.329C62.4328 38.329 63.1238 38.255 63.7758 38.109C64.3767 37.9727 64.9515 37.7397 65.4778 37.419C65.9486 37.1386 66.3469 36.7515 66.6408 36.289C66.9328 35.839 67.0788 35.312 67.0788 34.705C67.0788 34.019 66.7988 33.429 66.2368 32.935C65.6868 32.44 64.8148 32.148 63.6238 32.058C64.3669 31.9513 65.0888 31.7297 65.7638 31.401C66.3938 31.075 66.8878 30.676 67.2478 30.204C67.6101 29.7559 67.8066 29.1963 67.8038 28.62C67.8038 27.946 67.5248 27.412 66.9618 27.019ZM61.5818 32.278L60.4548 36.542C60.3878 36.822 60.3428 37.07 60.3208 37.283C60.3088 37.497 60.3648 37.66 60.4888 37.773C60.6128 37.885 60.8428 37.941 61.1798 37.941C61.9778 37.941 62.6298 37.789 63.1348 37.486C63.6296 37.195 64.0238 36.76 64.2648 36.239C64.5118 35.699 64.6348 35.092 64.6348 34.419C64.6348 34.002 64.5618 33.637 64.4158 33.323C64.2872 33.004 64.0561 32.737 63.7588 32.564C63.4558 32.373 63.0508 32.278 62.5448 32.278H61.5818ZM61.6578 31.991H62.4278C63.0678 31.991 63.6128 31.828 64.0618 31.502C64.5228 31.165 64.8718 30.727 65.1078 30.188C65.3535 29.654 65.4798 29.0728 65.4778 28.485C65.4778 27.923 65.3658 27.491 65.1408 27.187C64.9278 26.884 64.5508 26.732 64.0108 26.732C63.6188 26.732 63.3378 26.811 63.1688 26.968C63.0008 27.114 62.8548 27.434 62.7308 27.928L61.6578 31.991Z" fill="#2F2352"/>
</g>
<defs>
<clipPath id="clip0_141_4330">
<rect width="174" height="39" fill="white"/>
</clipPath>
</defs>
</svg>
