<svg width="155" height="41" viewBox="0 0 155 41" fill="none" xmlns="http://www.w3.org/2000/svg">
<path d="M0.5 17.0652V0.522975H3.50976V17.0652H0.5Z" fill="#FFF9E6"/>
<path d="M5.73532 17.0652V0.522975H9.06674L15.0633 7.66829L21.0369 0.522975H24.3913V17.0652H21.3355V4.93423L15.0633 12.4012L8.76806 4.95721V17.0652H5.73532Z" fill="#FFF9E6"/>
<path d="M27.0503 17.0652V0.54595H40.376C40.958 0.54595 41.4941 0.69146 41.9842 0.982481C42.4744 1.2735 42.865 1.66408 43.156 2.15422C43.447 2.62904 43.5925 3.15748 43.5925 3.73952V8.19673C43.5925 8.77877 43.447 9.31486 43.156 9.805C42.865 10.2951 42.4744 10.6857 41.9842 10.9767C41.4941 11.2524 40.958 11.3903 40.376 11.3903L30.083 11.4133V17.0652H27.0503ZM30.3587 8.33458H40.2381C40.3147 8.33458 40.3836 8.3116 40.4449 8.26565C40.5062 8.2197 40.5368 8.15843 40.5368 8.08185V3.85439C40.5368 3.77781 40.5062 3.71654 40.4449 3.67059C40.3836 3.60932 40.3147 3.57869 40.2381 3.57869H30.3587C30.2822 3.57869 30.2132 3.60932 30.152 3.67059C30.106 3.71654 30.083 3.77781 30.083 3.85439V8.08185C30.083 8.15843 30.106 8.2197 30.152 8.26565C30.2132 8.3116 30.2822 8.33458 30.3587 8.33458Z" fill="#FFF9E6"/>
<path d="M48.3717 17.0652C47.7897 17.0652 47.2536 16.9197 46.7635 16.6287C46.2886 16.3376 45.9057 15.9547 45.6147 15.4799C45.3237 14.9898 45.1782 14.4537 45.1782 13.8716V0.522975H48.2109V13.7338C48.2109 13.8104 48.2339 13.8793 48.2798 13.9406C48.3411 13.9865 48.41 14.0095 48.4866 14.0095H58.366C58.4426 14.0095 58.5115 13.9865 58.5728 13.9406C58.634 13.8793 58.6647 13.8104 58.6647 13.7338V0.522975H61.7204V13.8716C61.7204 14.4537 61.5749 14.9898 61.2839 15.4799C60.9928 15.9547 60.6023 16.3376 60.1121 16.6287C59.6373 16.9197 59.1089 17.0652 58.5268 17.0652H48.3717Z" fill="#FFF9E6"/>
<path d="M64.2735 17.0652V0.5H67.3063V14.0095H75.0719V17.0652H64.2735Z" fill="#FFF9E6"/>
<path d="M80.6847 17.0652C80.1027 17.0652 79.5666 16.9197 79.0764 16.6287C78.6016 16.3376 78.2187 15.9547 77.9277 15.4799C77.6366 14.9898 77.4911 14.4537 77.4911 13.8716V12.608H80.5239V13.7338C80.5239 13.8104 80.5468 13.8793 80.5928 13.9406C80.6541 13.9865 80.723 14.0095 80.7996 14.0095H90.7019C90.7785 14.0095 90.8398 13.9865 90.8857 13.9406C90.947 13.8793 90.9776 13.8104 90.9776 13.7338V10.5862C90.9776 10.5096 90.947 10.4483 90.8857 10.4024C90.8398 10.3564 90.7785 10.3334 90.7019 10.3334H80.6847C80.1027 10.3334 79.5666 10.1879 79.0764 9.8969C78.6016 9.60588 78.2187 9.22296 77.9277 8.74813C77.6366 8.25799 77.4911 7.71424 77.4911 7.11689V3.71654C77.4911 3.1345 77.6366 2.60607 77.9277 2.13125C78.2187 1.64111 78.6016 1.25053 79.0764 0.959506C79.5666 0.668485 80.1027 0.522975 80.6847 0.522975H90.8398C91.4218 0.522975 91.9503 0.668485 92.4251 0.959506C92.9152 1.25053 93.3058 1.64111 93.5968 2.13125C93.8878 2.60607 94.0334 3.1345 94.0334 3.71654V4.98018H90.9776V3.85439C90.9776 3.77781 90.947 3.71654 90.8857 3.67059C90.8398 3.60932 90.7785 3.57869 90.7019 3.57869H80.7996C80.723 3.57869 80.6541 3.60932 80.5928 3.67059C80.5468 3.71654 80.5239 3.77781 80.5239 3.85439V7.00201C80.5239 7.07859 80.5468 7.13986 80.5928 7.18581C80.6541 7.23176 80.723 7.25474 80.7996 7.25474H90.8398C91.4218 7.25474 91.9503 7.40025 92.4251 7.69127C92.9152 7.98229 93.3058 8.37287 93.5968 8.86301C93.8878 9.33783 94.0334 9.87392 94.0334 10.4713V13.8716C94.0334 14.4537 93.8878 14.9898 93.5968 15.4799C93.3058 15.9547 92.9152 16.3376 92.4251 16.6287C91.9503 16.9197 91.4218 17.0652 90.8398 17.0652H80.6847Z" fill="#FFF9E6"/>
<path d="M96.5876 17.0652V0.522975H111.82V3.57869H99.6433V7.25474H109.431V10.3334H99.6433V14.0095H111.82V17.0652H96.5876Z" fill="#FFF9E6"/>
<path d="M0.5 40.5V23.9578H3.83142L9.82797 31.1031L15.8016 23.9578H19.1559V40.5H16.1002V28.369L9.82797 35.836L3.53274 28.392V40.5H0.5Z" fill="#FFF9E6"/>
<path d="M21.8609 40.5V27.1514C21.8609 26.5693 22.0064 26.0409 22.2975 25.5661C22.5885 25.0759 22.9714 24.6853 23.4462 24.3943C23.9364 24.1033 24.4725 23.9578 25.0545 23.9578H35.1866C35.7686 23.9578 36.3047 24.1033 36.7949 24.3943C37.285 24.6853 37.6756 25.0759 37.9666 25.5661C38.2576 26.0409 38.4031 26.5693 38.4031 27.1514V40.5H35.3474V34.94H24.8937V40.5H21.8609ZM24.8937 31.9072H35.3474V27.2892C35.3474 27.2126 35.3168 27.1514 35.2555 27.1054C35.1943 27.0441 35.1253 27.0135 35.0488 27.0135H25.1694C25.0928 27.0135 25.0239 27.0441 24.9626 27.1054C24.9166 27.1514 24.8937 27.2126 24.8937 27.2892V31.9072Z" fill="#FFF9E6"/>
<path d="M54.2087 40.5L49.2231 34.5494H53.1978L57.5172 39.6499V40.5H54.2087ZM41.0209 40.5V23.9808H54.3466C54.9286 23.9808 55.4647 24.1263 55.9548 24.4173C56.445 24.7083 56.8356 25.0989 57.1266 25.589C57.4176 26.0639 57.5631 26.5923 57.5631 27.1743V31.6315C57.5631 32.2136 57.4176 32.7497 57.1266 33.2398C56.8356 33.7299 56.445 34.1205 55.9548 34.4115C55.4647 34.6872 54.9286 34.8251 54.3466 34.8251L44.0536 34.8481V40.5H41.0209ZM44.3293 31.7694H54.2087C54.2853 31.7694 54.3542 31.7464 54.4155 31.7005C54.4768 31.6545 54.5074 31.5932 54.5074 31.5167V27.2892C54.5074 27.2126 54.4768 27.1514 54.4155 27.1054C54.3542 27.0441 54.2853 27.0135 54.2087 27.0135H44.3293C44.2528 27.0135 44.1838 27.0441 44.1226 27.1054C44.0766 27.1514 44.0536 27.2126 44.0536 27.2892V31.5167C44.0536 31.5932 44.0766 31.6545 44.1226 31.7005C44.1838 31.7464 44.2528 31.7694 44.3293 31.7694Z" fill="#FFF9E6"/>
<path d="M60.003 40.5V23.9578H63.0587V30.6895H66.9415L72.5934 23.9578H75.9019V24.8308L69.6986 32.2289L75.9249 39.6269V40.5H72.5934L66.9415 33.7682H63.0587V40.5H60.003Z" fill="#FFF9E6"/>
<path d="M78.3344 40.5V23.9578H93.567V27.0135H81.3901V30.6895H91.1776V33.7682H81.3901V37.4443H93.567V40.5H78.3344Z" fill="#FFF9E6"/>
<path d="M101.807 40.5V27.0135H95.0518V23.9578H111.594V27.0135H104.862V40.5H101.807Z" fill="#FFF9E6"/>
<path d="M112.991 40.5V23.9578H116V40.5H112.991Z" fill="#FFF9E6"/>
<path d="M118.226 40.5V23.9578H121.557L131.712 36.0428V23.9578H134.768V40.5H131.437L121.259 28.392V40.5H118.226Z" fill="#FFF9E6"/>
<path d="M140.536 40.5C139.954 40.5 139.418 40.3545 138.927 40.0635C138.453 39.7725 138.07 39.3895 137.779 38.9147C137.488 38.4246 137.342 37.8885 137.342 37.3064V27.1514C137.342 26.5693 137.488 26.0409 137.779 25.5661C138.07 25.0759 138.453 24.6853 138.927 24.3943C139.418 24.1033 139.954 23.9578 140.536 23.9578H150.668C151.25 23.9578 151.786 24.1033 152.276 24.3943C152.766 24.6853 153.157 25.0759 153.448 25.5661C153.739 26.0409 153.884 26.5693 153.884 27.1514V28.438H150.829V27.2892C150.829 27.2126 150.798 27.1514 150.737 27.1054C150.675 27.0441 150.607 27.0135 150.53 27.0135H140.651C140.574 27.0135 140.505 27.0441 140.444 27.1054C140.398 27.1514 140.375 27.2126 140.375 27.2892V37.1686C140.375 37.2452 140.398 37.3141 140.444 37.3754C140.505 37.4213 140.574 37.4443 140.651 37.4443H150.53C150.607 37.4443 150.675 37.4213 150.737 37.3754C150.798 37.3141 150.829 37.2452 150.829 37.1686V34.1818H147.084V31.1261H153.884V37.3064C153.884 37.8885 153.739 38.4246 153.448 38.9147C153.157 39.3895 152.766 39.7725 152.276 40.0635C151.786 40.3545 151.25 40.5 150.668 40.5H140.536Z" fill="#FFF9E6"/>
<path d="M0.5 17.0652V0.522975H3.50976V17.0652H0.5Z" stroke="#FFF9E6" stroke-linejoin="bevel"/>
<path d="M5.73532 17.0652V0.522975H9.06674L15.0633 7.66829L21.0369 0.522975H24.3913V17.0652H21.3355V4.93423L15.0633 12.4012L8.76806 4.95721V17.0652H5.73532Z" stroke="#FFF9E6" stroke-linejoin="bevel"/>
<path d="M27.0503 17.0652V0.54595H40.376C40.958 0.54595 41.4941 0.69146 41.9842 0.982481C42.4744 1.2735 42.865 1.66408 43.156 2.15422C43.447 2.62904 43.5925 3.15748 43.5925 3.73952V8.19673C43.5925 8.77877 43.447 9.31486 43.156 9.805C42.865 10.2951 42.4744 10.6857 41.9842 10.9767C41.4941 11.2524 40.958 11.3903 40.376 11.3903L30.083 11.4133V17.0652H27.0503ZM30.3587 8.33458H40.2381C40.3147 8.33458 40.3836 8.3116 40.4449 8.26565C40.5062 8.2197 40.5368 8.15843 40.5368 8.08185V3.85439C40.5368 3.77781 40.5062 3.71654 40.4449 3.67059C40.3836 3.60932 40.3147 3.57869 40.2381 3.57869H30.3587C30.2822 3.57869 30.2132 3.60932 30.152 3.67059C30.106 3.71654 30.083 3.77781 30.083 3.85439V8.08185C30.083 8.15843 30.106 8.2197 30.152 8.26565C30.2132 8.3116 30.2822 8.33458 30.3587 8.33458Z" stroke="#FFF9E6" stroke-linejoin="bevel"/>
<path d="M48.3717 17.0652C47.7897 17.0652 47.2536 16.9197 46.7635 16.6287C46.2886 16.3376 45.9057 15.9547 45.6147 15.4799C45.3237 14.9898 45.1782 14.4537 45.1782 13.8716V0.522975H48.2109V13.7338C48.2109 13.8104 48.2339 13.8793 48.2798 13.9406C48.3411 13.9865 48.41 14.0095 48.4866 14.0095H58.366C58.4426 14.0095 58.5115 13.9865 58.5728 13.9406C58.634 13.8793 58.6647 13.8104 58.6647 13.7338V0.522975H61.7204V13.8716C61.7204 14.4537 61.5749 14.9898 61.2839 15.4799C60.9928 15.9547 60.6023 16.3376 60.1121 16.6287C59.6373 16.9197 59.1089 17.0652 58.5268 17.0652H48.3717Z" stroke="#FFF9E6" stroke-linejoin="bevel"/>
<path d="M64.2735 17.0652V0.5H67.3063V14.0095H75.0719V17.0652H64.2735Z" stroke="#FFF9E6" stroke-linejoin="bevel"/>
<path d="M80.6847 17.0652C80.1027 17.0652 79.5666 16.9197 79.0764 16.6287C78.6016 16.3376 78.2187 15.9547 77.9277 15.4799C77.6366 14.9898 77.4911 14.4537 77.4911 13.8716V12.608H80.5239V13.7338C80.5239 13.8104 80.5468 13.8793 80.5928 13.9406C80.6541 13.9865 80.723 14.0095 80.7996 14.0095H90.7019C90.7785 14.0095 90.8398 13.9865 90.8857 13.9406C90.947 13.8793 90.9776 13.8104 90.9776 13.7338V10.5862C90.9776 10.5096 90.947 10.4483 90.8857 10.4024C90.8398 10.3564 90.7785 10.3334 90.7019 10.3334H80.6847C80.1027 10.3334 79.5666 10.1879 79.0764 9.8969C78.6016 9.60588 78.2187 9.22296 77.9277 8.74813C77.6366 8.25799 77.4911 7.71424 77.4911 7.11689V3.71654C77.4911 3.1345 77.6366 2.60607 77.9277 2.13125C78.2187 1.64111 78.6016 1.25053 79.0764 0.959506C79.5666 0.668485 80.1027 0.522975 80.6847 0.522975H90.8398C91.4218 0.522975 91.9503 0.668485 92.4251 0.959506C92.9152 1.25053 93.3058 1.64111 93.5968 2.13125C93.8878 2.60607 94.0334 3.1345 94.0334 3.71654V4.98018H90.9776V3.85439C90.9776 3.77781 90.947 3.71654 90.8857 3.67059C90.8398 3.60932 90.7785 3.57869 90.7019 3.57869H80.7996C80.723 3.57869 80.6541 3.60932 80.5928 3.67059C80.5468 3.71654 80.5239 3.77781 80.5239 3.85439V7.00201C80.5239 7.07859 80.5468 7.13986 80.5928 7.18581C80.6541 7.23176 80.723 7.25474 80.7996 7.25474H90.8398C91.4218 7.25474 91.9503 7.40025 92.4251 7.69127C92.9152 7.98229 93.3058 8.37287 93.5968 8.86301C93.8878 9.33783 94.0334 9.87392 94.0334 10.4713V13.8716C94.0334 14.4537 93.8878 14.9898 93.5968 15.4799C93.3058 15.9547 92.9152 16.3376 92.4251 16.6287C91.9503 16.9197 91.4218 17.0652 90.8398 17.0652H80.6847Z" stroke="#FFF9E6" stroke-linejoin="bevel"/>
<path d="M96.5876 17.0652V0.522975H111.82V3.57869H99.6433V7.25474H109.431V10.3334H99.6433V14.0095H111.82V17.0652H96.5876Z" stroke="#FFF9E6" stroke-linejoin="bevel"/>
<path d="M0.5 40.5V23.9578H3.83142L9.82797 31.1031L15.8016 23.9578H19.1559V40.5H16.1002V28.369L9.82797 35.836L3.53274 28.392V40.5H0.5Z" stroke="#FFF9E6" stroke-linejoin="bevel"/>
<path d="M21.8609 40.5V27.1514C21.8609 26.5693 22.0064 26.0409 22.2975 25.5661C22.5885 25.0759 22.9714 24.6853 23.4462 24.3943C23.9364 24.1033 24.4725 23.9578 25.0545 23.9578H35.1866C35.7686 23.9578 36.3047 24.1033 36.7949 24.3943C37.285 24.6853 37.6756 25.0759 37.9666 25.5661C38.2576 26.0409 38.4031 26.5693 38.4031 27.1514V40.5H35.3474V34.94H24.8937V40.5H21.8609ZM24.8937 31.9072H35.3474V27.2892C35.3474 27.2126 35.3168 27.1514 35.2555 27.1054C35.1943 27.0441 35.1253 27.0135 35.0488 27.0135H25.1694C25.0928 27.0135 25.0239 27.0441 24.9626 27.1054C24.9166 27.1514 24.8937 27.2126 24.8937 27.2892V31.9072Z" stroke="#FFF9E6" stroke-linejoin="bevel"/>
<path d="M54.2087 40.5L49.2231 34.5494H53.1978L57.5172 39.6499V40.5H54.2087ZM41.0209 40.5V23.9808H54.3466C54.9286 23.9808 55.4647 24.1263 55.9548 24.4173C56.445 24.7083 56.8356 25.0989 57.1266 25.589C57.4176 26.0639 57.5631 26.5923 57.5631 27.1743V31.6315C57.5631 32.2136 57.4176 32.7497 57.1266 33.2398C56.8356 33.7299 56.445 34.1205 55.9548 34.4115C55.4647 34.6872 54.9286 34.8251 54.3466 34.8251L44.0536 34.8481V40.5H41.0209ZM44.3293 31.7694H54.2087C54.2853 31.7694 54.3542 31.7464 54.4155 31.7005C54.4768 31.6545 54.5074 31.5932 54.5074 31.5167V27.2892C54.5074 27.2126 54.4768 27.1514 54.4155 27.1054C54.3542 27.0441 54.2853 27.0135 54.2087 27.0135H44.3293C44.2528 27.0135 44.1838 27.0441 44.1226 27.1054C44.0766 27.1514 44.0536 27.2126 44.0536 27.2892V31.5167C44.0536 31.5932 44.0766 31.6545 44.1226 31.7005C44.1838 31.7464 44.2528 31.7694 44.3293 31.7694Z" stroke="#FFF9E6" stroke-linejoin="bevel"/>
<path d="M60.003 40.5V23.9578H63.0587V30.6895H66.9415L72.5934 23.9578H75.9019V24.8308L69.6986 32.2289L75.9249 39.6269V40.5H72.5934L66.9415 33.7682H63.0587V40.5H60.003Z" stroke="#FFF9E6" stroke-linejoin="bevel"/>
<path d="M78.3344 40.5V23.9578H93.567V27.0135H81.3901V30.6895H91.1776V33.7682H81.3901V37.4443H93.567V40.5H78.3344Z" stroke="#FFF9E6" stroke-linejoin="bevel"/>
<path d="M101.807 40.5V27.0135H95.0518V23.9578H111.594V27.0135H104.862V40.5H101.807Z" stroke="#FFF9E6" stroke-linejoin="bevel"/>
<path d="M112.991 40.5V23.9578H116V40.5H112.991Z" stroke="#FFF9E6" stroke-linejoin="bevel"/>
<path d="M118.226 40.5V23.9578H121.557L131.712 36.0428V23.9578H134.768V40.5H131.437L121.259 28.392V40.5H118.226Z" stroke="#FFF9E6" stroke-linejoin="bevel"/>
<path d="M140.536 40.5C139.954 40.5 139.418 40.3545 138.927 40.0635C138.453 39.7725 138.07 39.3895 137.779 38.9147C137.488 38.4246 137.342 37.8885 137.342 37.3064V27.1514C137.342 26.5693 137.488 26.0409 137.779 25.5661C138.07 25.0759 138.453 24.6853 138.927 24.3943C139.418 24.1033 139.954 23.9578 140.536 23.9578H150.668C151.25 23.9578 151.786 24.1033 152.276 24.3943C152.766 24.6853 153.157 25.0759 153.448 25.5661C153.739 26.0409 153.884 26.5693 153.884 27.1514V28.438H150.829V27.2892C150.829 27.2126 150.798 27.1514 150.737 27.1054C150.675 27.0441 150.607 27.0135 150.53 27.0135H140.651C140.574 27.0135 140.505 27.0441 140.444 27.1054C140.398 27.1514 140.375 27.2126 140.375 27.2892V37.1686C140.375 37.2452 140.398 37.3141 140.444 37.3754C140.505 37.4213 140.574 37.4443 140.651 37.4443H150.53C150.607 37.4443 150.675 37.4213 150.737 37.3754C150.798 37.3141 150.829 37.2452 150.829 37.1686V34.1818H147.084V31.1261H153.884V37.3064C153.884 37.8885 153.739 38.4246 153.448 38.9147C153.157 39.3895 152.766 39.7725 152.276 40.0635C151.786 40.3545 151.25 40.5 150.668 40.5H140.536Z" stroke="#FFF9E6" stroke-linejoin="bevel"/>
</svg>
