<svg width="160" height="30" viewBox="0 0 160 30" fill="none" xmlns="http://www.w3.org/2000/svg">
<g clip-path="url(#clip0_141_4271)">
<path d="M38.5654 1.27441H42.5601V23.0635H49.1331V26.6951H38.5654V1.27441Z" fill="#726BEA"/>
<path d="M56.6808 27.0585C54.7198 27.0585 53.2188 26.5017 52.1777 25.388C51.1367 24.2743 50.6162 22.7007 50.6162 20.667V7.30309C50.6162 5.26944 51.1367 3.69578 52.1777 2.58212C53.2188 1.46845 54.7198 0.911621 56.6808 0.911621C58.6418 0.911621 60.1428 1.46845 61.1839 2.58212C62.2249 3.69578 62.7454 5.26944 62.7454 7.30309V20.667C62.7454 22.7007 62.2249 24.2743 61.1839 25.388C60.1428 26.5017 58.6418 27.0585 56.6808 27.0585ZM56.6808 23.427C58.0608 23.427 58.7508 22.5917 58.7508 20.9212V7.04888C58.7508 5.37838 58.0608 4.54313 56.6808 4.54313C55.3008 4.54313 54.6108 5.37838 54.6108 7.04888V20.9212C54.6108 22.5917 55.3008 23.427 56.6808 23.427Z" fill="#726BEA"/>
<path d="M71.1129 27.0585C69.1761 27.0585 67.6993 26.5138 66.6824 25.4243C65.6656 24.3107 65.1572 22.7249 65.1572 20.667V7.30309C65.1572 5.24523 65.6656 3.67157 66.6824 2.58212C67.6993 1.46845 69.1761 0.911621 71.1129 0.911621C73.0497 0.911621 74.5265 1.46845 75.5433 2.58212C76.5602 3.67157 77.0686 5.24523 77.0686 7.30309V9.48199H73.2918V7.04888C73.2918 5.37838 72.6018 4.54313 71.2218 4.54313C69.8419 4.54313 69.1519 5.37838 69.1519 7.04888V20.9576C69.1519 22.6039 69.8419 23.427 71.2218 23.427C72.6018 23.427 73.2918 22.6039 73.2918 20.9576V15.9824H71.2945V12.3509H77.0686V20.667C77.0686 22.7249 76.5602 24.3107 75.5433 25.4243C74.5265 26.5138 73.0497 27.0585 71.1129 27.0585Z" fill="#726BEA"/>
<path d="M85.4074 27.0585C83.4464 27.0585 81.9454 26.5017 80.9044 25.388C79.8633 24.2743 79.3428 22.7007 79.3428 20.667V7.30309C79.3428 5.26944 79.8633 3.69578 80.9044 2.58212C81.9454 1.46845 83.4464 0.911621 85.4074 0.911621C87.3685 0.911621 88.8695 1.46845 89.9105 2.58212C90.9516 3.69578 91.4721 5.26944 91.4721 7.30309V20.667C91.4721 22.7007 90.9516 24.2743 89.9105 25.388C88.8695 26.5017 87.3685 27.0585 85.4074 27.0585ZM85.4074 23.427C86.7874 23.427 87.4774 22.5917 87.4774 20.9212V7.04888C87.4774 5.37838 86.7874 4.54313 85.4074 4.54313C84.0275 4.54313 83.3375 5.37838 83.3375 7.04888V20.9212C83.3375 22.5917 84.0275 23.427 85.4074 23.427Z" fill="#726BEA"/>
<path d="M94.1807 1.27441H98.1754V26.6951H94.1807V1.27441Z" fill="#4F46E5"/>
<path d="M101.167 1.27441H107.05C109.035 1.27441 110.524 1.80703 111.517 2.87228C112.51 3.93752 113.006 5.49907 113.006 7.55693V10.0627C113.006 12.1206 112.51 13.6821 111.517 14.7474C110.524 15.8126 109.035 16.3452 107.05 16.3452H105.162V26.6951H101.167V1.27441ZM107.05 12.7137C107.704 12.7137 108.188 12.5321 108.503 12.169C108.842 11.8058 109.011 11.1885 109.011 10.3169V7.30273C109.011 6.43116 108.842 5.8138 108.503 5.45065C108.188 5.0875 107.704 4.90593 107.05 4.90593H105.162V12.7137H107.05Z" fill="#4F46E5"/>
<path d="M120.51 27.0585C118.574 27.0585 117.109 26.5138 116.116 25.4243C115.124 24.3107 114.627 22.7249 114.627 20.667V19.2144H118.404V20.9576C118.404 22.6039 119.094 23.427 120.474 23.427C121.152 23.427 121.66 23.2333 121.999 22.846C122.362 22.4344 122.544 21.7807 122.544 20.8849C122.544 19.8197 122.302 18.8876 121.818 18.0887C121.334 17.2655 120.438 16.285 119.13 15.1471C117.484 13.6945 116.334 12.3872 115.68 11.2251C115.027 10.0388 114.7 8.70727 114.7 7.23046C114.7 5.22102 115.208 3.67157 116.225 2.58212C117.242 1.46845 118.719 0.911621 120.656 0.911621C122.568 0.911621 124.009 1.46845 124.977 2.58212C125.97 3.67157 126.466 5.24523 126.466 7.30309V8.35623H122.689V7.04888C122.689 6.17732 122.52 5.54785 122.181 5.16049C121.842 4.74892 121.346 4.54313 120.692 4.54313C119.36 4.54313 118.695 5.35417 118.695 6.97625C118.695 7.89623 118.937 8.75569 119.421 9.55462C119.929 10.3535 120.837 11.3219 122.145 12.4598C123.815 13.9124 124.965 15.2319 125.595 16.4182C126.224 17.6045 126.539 18.9965 126.539 20.5944C126.539 22.6765 126.018 24.2743 124.977 25.388C123.96 26.5017 122.471 27.0585 120.51 27.0585Z" fill="#4F46E5"/>
<path d="M134.64 27.0582C132.703 27.0582 131.226 26.5135 130.209 25.424C129.192 24.3104 128.684 22.7246 128.684 20.6667V1.27441H132.679V20.9573C132.679 21.8288 132.848 22.4583 133.187 22.8457C133.55 23.233 134.059 23.4267 134.712 23.4267C135.366 23.4267 135.862 23.233 136.201 22.8457C136.564 22.4583 136.746 21.8288 136.746 20.9573V1.27441H140.595V20.6667C140.595 22.7246 140.087 24.3104 139.07 25.424C138.053 26.5135 136.576 27.0582 134.64 27.0582Z" fill="#4F46E5"/>
<path d="M143.44 1.27441H149.142L151.684 19.4683H151.756L154.299 1.27441H160V26.6951H156.223V7.44799H156.151L153.245 26.6951H149.904L146.999 7.44799H146.927V26.6951H143.44V1.27441Z" fill="#4F46E5"/>
<path d="M0 26.6953C4.91448 26.6953 8.89841 22.7113 8.89841 17.7969C8.89841 12.8824 4.91448 8.89844 0 8.89844V15.1273C1.47433 15.1273 2.66951 16.3225 2.66951 17.7969C2.66951 19.2712 1.47433 20.4664 0 20.4664V26.6953Z" fill="#726BEA"/>
<path d="M29.6614 11.8646C28.1408 11.3829 26.5215 11.123 24.8414 11.123C16.0363 11.123 8.89844 18.261 8.89844 27.066C8.89844 27.9498 8.97036 28.8168 9.10862 29.6614H19.0145C18.6609 28.8686 18.4643 27.9903 18.4643 27.066C18.4643 23.544 21.3194 20.6888 24.8414 20.6888C26.7664 20.6888 28.4921 21.5417 29.6614 22.8902V11.8646Z" fill="#A5B4FC"/>
<path d="M1.56445 0C2.30219 6.67374 7.96024 11.8646 14.8306 11.8646C21.7009 11.8646 27.359 6.67374 28.0967 0H18.5512C17.9619 1.4773 16.5181 2.52121 14.8306 2.52121C13.143 2.52121 11.6993 1.4773 11.1099 0H1.56445Z" fill="#4F46E5"/>
</g>
<defs>
<clipPath id="clip0_141_4271">
<rect width="160" height="30" fill="white"/>
</clipPath>
</defs>
</svg>
