<svg width="80" height="80" viewBox="0 0 80 80" fill="none" xmlns="http://www.w3.org/2000/svg">
<g clip-path="url(#clip0_141_4287)">
<path d="M80 40C80 62.0914 62.0914 80 40 80C17.9086 80 0 62.0914 0 40C0 17.9086 17.9086 0 40 0C62.0914 0 80 17.9086 80 40Z" fill="#1D2633"/>
<path d="M69.7136 50.2134C71.0644 50.2134 72.0252 51.5262 71.5172 52.7778C66.4666 65.2234 54.2582 74.0001 39.9999 74.0001C25.7417 74.0001 13.5333 65.2234 8.48267 52.7778C7.9747 51.5262 8.93552 50.2134 10.2863 50.2134H69.7136Z" fill="#EDEBDE"/>
<path d="M71.5172 27.2222C72.0252 28.4739 71.0644 29.7867 69.7136 29.7867H10.2863C8.93552 29.7867 7.97471 28.4739 8.48267 27.2222C13.5333 14.7767 25.7417 6 39.9999 6C54.2582 6 66.4665 14.7767 71.5172 27.2222Z" fill="#EDEBDE"/>
<path d="M69.8368 37.1499C72.084 37.1499 73.1684 38.7177 73.1684 40.5337V43.9437H70.8167V40.9388C70.8167 40.1157 70.5162 39.4363 69.6539 39.4363C68.7916 39.4363 68.5042 40.1157 68.5042 40.9388V43.9437H66.1525V40.9388C66.1525 40.1157 65.8651 39.4363 65.0028 39.4363C64.1405 39.4363 63.84 40.1157 63.84 40.9388V43.9437H61.4883V40.5337C61.4883 38.7177 62.5727 37.1499 64.8199 37.1499C66.048 37.1499 66.9364 37.6333 67.3414 38.4303C67.7726 37.6333 68.7133 37.1499 69.8368 37.1499Z" fill="#EDEBDE"/>
<path d="M57.2631 41.8532C58.0209 41.8532 58.3475 41.1608 58.3475 40.3377V37.4111H60.6992V40.6251C60.6992 42.5456 59.5756 44.1396 57.2631 44.1396C54.9506 44.1396 53.8271 42.5456 53.8271 40.6251V37.4111H56.1787V40.3377C56.1787 41.1608 56.5054 41.8532 57.2631 41.8532Z" fill="#EDEBDE"/>
<path d="M50.3688 44.1526C48.8925 44.1526 47.9387 43.6431 47.377 42.6502L49.0754 41.6964C49.3106 42.1145 49.6633 42.3235 50.2512 42.3235C50.7346 42.3235 50.9567 42.1537 50.9567 41.9447C50.9567 41.1477 47.5076 41.9577 47.5076 39.4231C47.5076 38.195 48.5528 37.2021 50.3296 37.2021C51.8844 37.2021 52.7336 37.9598 53.1125 38.6915L51.414 39.6583C51.2703 39.2663 50.8261 39.0312 50.3819 39.0312C50.0422 39.0312 49.8593 39.1749 49.8593 39.3709C49.8593 40.1809 53.3084 39.4362 53.3084 41.8924C53.3084 43.2642 51.9628 44.1526 50.3688 44.1526Z" fill="#EDEBDE"/>
<path d="M42.1525 46.9487H39.8008V40.6645C39.8008 38.6656 41.3033 37.2153 43.3937 37.2153C45.4318 37.2153 46.9865 38.7701 46.9865 40.6645C46.9865 42.7549 45.6017 44.1398 43.5243 44.1398C43.0409 44.1398 42.5575 43.9961 42.1525 43.7739V46.9487ZM43.3937 41.9318C44.1384 41.9318 44.6348 41.3569 44.6348 40.6776C44.6348 39.9851 44.1384 39.4233 43.3937 39.4233C42.649 39.4233 42.1525 39.9851 42.1525 40.6776C42.1525 41.3569 42.649 41.9318 43.3937 41.9318Z" fill="#EDEBDE"/>
<path d="M37.4452 36.7186C36.6744 36.7186 36.0342 36.0784 36.0342 35.3076C36.0342 34.5367 36.6744 33.8965 37.4452 33.8965C38.2161 33.8965 38.8563 34.5367 38.8563 35.3076C38.8563 36.0784 38.2161 36.7186 37.4452 36.7186ZM36.2694 37.411H38.6211V43.9435H36.2694V37.411Z" fill="#EDEBDE"/>
<path d="M31.757 44.1396C29.7189 44.1396 28.1641 42.5718 28.1641 40.6643C28.1641 38.7699 29.7189 37.2021 31.757 37.2021C33.7951 37.2021 35.3499 38.7699 35.3499 40.6643C35.3499 42.5718 33.7951 44.1396 31.757 44.1396ZM31.757 41.9316C32.5017 41.9316 32.9982 41.3567 32.9982 40.6774C32.9982 39.9849 32.5017 39.4101 31.757 39.4101C31.0123 39.4101 30.5158 39.9849 30.5158 40.6774C30.5158 41.3567 31.0123 41.9316 31.757 41.9316Z" fill="#EDEBDE"/>
<path d="M23.724 47.1447C22.1039 47.1447 20.9281 46.4261 20.3271 45.1458L22.2738 44.1006C22.4828 44.5448 22.8748 45.0021 23.6848 45.0021C24.534 45.0021 25.0958 44.4664 25.1611 43.5257C24.8477 43.8001 24.3511 44.0091 23.6064 44.0091C21.7904 44.0091 20.3271 42.6112 20.3271 40.6514C20.3271 38.757 21.8818 37.2153 23.92 37.2153C26.0103 37.2153 27.5128 38.6656 27.5128 40.6645V43.2514C27.5128 45.603 25.8797 47.1447 23.724 47.1447ZM23.8808 41.8011C24.5863 41.8011 25.1219 41.3177 25.1219 40.5992C25.1219 39.8937 24.5863 39.4233 23.8808 39.4233C23.1883 39.4233 22.6396 39.8937 22.6396 40.5992C22.6396 41.3177 23.1883 41.8011 23.8808 41.8011Z" fill="#EDEBDE"/>
<path d="M16.337 44.1396C14.2989 44.1396 12.7441 42.5718 12.7441 40.6643C12.7441 38.7699 14.2989 37.2021 16.337 37.2021C18.3751 37.2021 19.9299 38.7699 19.9299 40.6643C19.9299 42.5718 18.3751 44.1396 16.337 44.1396ZM16.337 41.9316C17.0817 41.9316 17.5782 41.3567 17.5782 40.6774C17.5782 39.9849 17.0817 39.4101 16.337 39.4101C15.5923 39.4101 15.0958 39.9849 15.0958 40.6774C15.0958 41.3567 15.5923 41.9316 16.337 41.9316Z" fill="#EDEBDE"/>
<path d="M8.46193 35.125V41.7228H12.3553V43.9438H8.13531C6.6459 43.9438 6.04492 43.1599 6.04492 41.9187V35.125H8.46193Z" fill="#EDEBDE"/>
<path d="M34 6.52774C35.9477 6.18095 37.9527 6 40.0001 6C42.0474 6 44.0524 6.18095 46 6.52773V29.7867H34V6.52774Z" fill="#AC2828"/>
<path d="M46.0007 50.2134H33.9995C33.9743 55.4313 33.0237 60.6039 31.1912 65.4907L28.7188 72.0837C32.2489 73.325 36.0457 74.0001 40.0002 74.0001C43.9546 74.0001 47.7514 73.325 51.2815 72.0837L48.809 65.4907C46.9765 60.6039 46.0259 55.4313 46.0007 50.2134Z" fill="#AC2828"/>
<path d="M46 6.52783C50.3408 7.30072 54.3967 8.89734 58 11.1503V29.7868H46V6.52783Z" fill="#306A9F"/>
<path d="M51.2818 72.0837C56.7392 70.1648 61.5594 66.8929 65.3396 62.6705L64.7497 62.2951C60.6061 59.6582 58.0735 55.1148 58.002 50.2134H46.001C46.0262 55.4313 46.9769 60.6039 48.8095 65.4907L51.2818 72.0837Z" fill="#306A9F"/>
<path d="M22 11.1503C25.6033 8.89735 29.6591 7.30072 34 6.52783V29.7868H22V11.1503Z" fill="#DEB038"/>
<path d="M21.9979 50.2134H33.9989C33.9738 55.409 33.0311 60.5597 31.2139 65.4281L28.7181 72.0837C23.2606 70.1648 18.4405 66.8929 14.6602 62.6705L15.2501 62.2951C19.3937 59.6582 21.9264 55.1148 21.9979 50.2134Z" fill="#DEB038"/>
</g>
<defs>
<clipPath id="clip0_141_4287">
<rect width="80" height="80" fill="white"/>
</clipPath>
</defs>
</svg>
