<svg width="105" height="40" viewBox="0 0 105 40" fill="none" xmlns="http://www.w3.org/2000/svg">
<path d="M48.1357 35.238H50.8701V24.9237H48.1357V35.238ZM48.1357 23.3152H50.8701V20.8623H48.1357V23.3152Z" fill="black"/>
<path d="M52.6318 38.6157H55.3662V34.0718H55.4065C55.9895 34.9564 56.9345 35.5395 58.3821 35.5395C61.0361 35.5395 62.8456 33.4284 62.8456 30.0908C62.8456 26.8738 61.0964 24.6421 58.362 24.6421C56.9546 24.6421 55.9895 25.3056 55.326 26.2103H55.2657V24.9236H52.6318V38.6157ZM57.7991 33.2675C56.1705 33.2675 55.3059 32.0411 55.3059 30.1712C55.3059 28.3215 55.9895 26.8537 57.6985 26.8537C59.3874 26.8537 60.071 28.2209 60.071 30.1712C60.071 32.1215 59.1864 33.2675 57.7991 33.2675Z" fill="black"/>
<path d="M68.3011 35.5395C70.8746 35.5395 72.6439 34.2929 72.6439 32.222C72.6439 29.8093 70.7339 29.3268 69.0048 28.9649C67.537 28.6633 66.1698 28.5828 66.1698 27.6982C66.1698 26.9543 66.8735 26.5521 67.9392 26.5521C69.1053 26.5521 69.809 26.9543 69.9296 28.0601H72.4027C72.2016 25.9892 70.6937 24.6421 67.9794 24.6421C65.627 24.6421 63.7772 25.7077 63.7772 27.9394C63.7772 30.1913 65.5868 30.694 67.4365 31.0559C68.8439 31.3373 70.1508 31.4379 70.1508 32.4231C70.1508 33.1469 69.4672 33.6093 68.2608 33.6093C67.0344 33.6093 66.1899 33.0866 66.009 31.9003H63.4756C63.6365 34.0919 65.3053 35.5395 68.3011 35.5395Z" fill="black"/>
<path d="M83.0255 35.2381V24.9238H80.2911V30.8751C80.2911 32.2423 79.507 33.2074 78.2202 33.2074C77.0541 33.2074 76.5112 32.5439 76.5112 31.3375V24.9238H73.7969V31.8C73.7969 34.0518 75.0837 35.5196 77.3758 35.5196C78.8234 35.5196 79.6276 34.9767 80.3314 34.0317H80.3917V35.2381H83.0255Z" fill="black"/>
<path d="M84.7939 35.2379H87.5284V29.2463C87.5284 27.8791 88.2723 26.9945 89.3781 26.9945C90.3834 26.9945 90.9665 27.5976 90.9665 28.7638V35.2379H93.7009V29.2463C93.7009 27.8791 94.4046 26.9945 95.5506 26.9945C96.5559 26.9945 97.139 27.5976 97.139 28.7638V35.2379H99.8734V28.3014C99.8734 26.0495 98.6469 24.6421 96.4755 24.6421C95.1686 24.6421 94.0829 25.3257 93.3792 26.4516H93.339C92.8363 25.3659 91.7908 24.6421 90.4839 24.6421C89.0564 24.6421 88.0511 25.3659 87.4881 26.3109H87.4278V24.9236H84.7939V35.2379Z" fill="black"/>
<path d="M48.1758 17.572H50.9102V3.19629H48.1758V17.572Z" fill="black"/>
<path d="M57.5964 17.8735C60.7933 17.8735 62.9848 15.501 62.9848 12.4248C62.9848 9.34856 60.7933 6.97607 57.5964 6.97607C54.3996 6.97607 52.208 9.34856 52.208 12.4248C52.208 15.501 54.3996 17.8735 57.5964 17.8735ZM57.5964 15.7825C55.9075 15.7825 54.9827 14.4354 54.9827 12.4248C54.9827 10.4142 55.9075 9.04698 57.5964 9.04698C59.2652 9.04698 60.2102 10.4142 60.2102 12.4248C60.2102 14.4354 59.2652 15.7825 57.5964 15.7825Z" fill="black"/>
<path d="M68.7995 21.0905C70.3276 21.0905 71.6546 20.7286 72.5191 19.9243C73.2831 19.2206 73.7456 18.2354 73.7456 16.7878V7.25755H71.1117V8.34327H71.0715C70.4482 7.47871 69.5032 6.97607 68.2164 6.97607C65.6027 6.97607 63.7529 8.94645 63.7529 12.0227C63.7529 15.1391 66.0048 16.9486 68.2969 16.9486C69.6038 16.9486 70.3879 16.4259 70.9911 15.7423H71.0514V16.8682C71.0514 18.2756 70.3075 19.0195 68.7593 19.0195C67.4926 19.0195 66.9096 18.5169 66.6884 17.8735H63.9741C64.2556 19.8841 65.9847 21.0905 68.7995 21.0905ZM68.7593 14.7571C67.3519 14.7571 66.427 13.7317 66.427 11.9825C66.427 10.2534 67.3519 9.16761 68.7392 9.16761C70.3879 9.16761 71.1921 10.4544 71.1921 11.9624C71.1921 13.4904 70.4884 14.7571 68.7593 14.7571Z" fill="black"/>
<path d="M80.3923 17.8735C83.5891 17.8735 85.7807 15.501 85.7807 12.4248C85.7807 9.34856 83.5891 6.97607 80.3923 6.97607C77.1955 6.97607 75.0039 9.34856 75.0039 12.4248C75.0039 15.501 77.1955 17.8735 80.3923 17.8735ZM80.3923 15.7825C78.7034 15.7825 77.7785 14.4354 77.7785 12.4248C77.7785 10.4142 78.7034 9.04698 80.3923 9.04698C82.0611 9.04698 83.0061 10.4142 83.0061 12.4248C83.0061 14.4354 82.0611 15.7825 80.3923 15.7825Z" fill="black"/>
<path d="M88.1777 13.6312H99.9998V11.2788H88.1777V13.6312Z" fill="black"/>
<path d="M100.867 23.1718C100.867 22.7091 101.242 22.334 101.705 22.334H103.38C103.843 22.334 104.218 22.7091 104.218 23.1718C104.218 23.6344 103.843 24.0095 103.38 24.0095H101.705C101.242 24.0095 100.867 23.6344 100.867 23.1718Z" fill="black"/>
<path fill-rule="evenodd" clip-rule="evenodd" d="M20.5215 0C31.5672 0 40.5215 8.9543 40.5215 20C40.5215 31.0457 31.5672 40 20.5215 40C9.47579 40 0.521484 31.0457 0.521484 20C0.521484 8.9543 9.47579 0 20.5215 0ZM19.7986 1.49659C17.517 1.81769 15.3444 3.65108 13.6579 6.7174C13.1687 7.60683 12.7273 8.58946 12.3426 9.65044C14.6358 9.07417 17.1549 8.73442 19.7986 8.68187V1.49659ZM10.6523 10.1308C11.1306 8.62958 11.7158 7.2484 12.3911 6.02065C13.2271 4.50059 14.2193 3.18795 15.3372 2.17977C9.25828 3.94523 4.46671 8.73679 2.70126 14.8157C3.70943 13.6978 5.02208 12.7056 6.54214 11.8696C7.76989 11.1943 9.15106 10.6091 10.6523 10.1308ZM10.1719 11.8211C9.59565 14.1143 9.25591 16.6334 9.20336 19.2771H2.01807C2.33918 16.9954 4.17257 14.8228 7.23889 13.1364C8.12832 12.6472 9.11095 12.2058 10.1719 11.8211ZM10.6495 19.2771C10.7092 16.392 11.1245 13.6834 11.8117 11.2902C14.2049 10.603 16.9136 10.1876 19.7986 10.1279V13.2508C18.7223 16.0062 16.5271 18.2012 13.7716 19.2771H10.6495ZM9.20336 20.7229H2.01807C2.33918 23.0046 4.17257 25.1771 7.23889 26.8636C8.12832 27.3528 9.11095 27.7942 10.1719 28.1789C9.59565 25.8857 9.25591 23.3666 9.20336 20.7229ZM11.8117 28.7098C11.1245 26.3166 10.7092 23.608 10.6495 20.7229H13.7716C16.5271 21.7988 18.7224 23.9938 19.7986 26.7492V29.8721C16.9136 29.8124 14.2049 29.397 11.8117 28.7098ZM10.6523 29.8692C9.15106 29.3909 7.76989 28.8057 6.54214 28.1304C5.02208 27.2944 3.70943 26.3022 2.70126 25.1843C4.46671 31.2632 9.25828 36.0548 15.3372 37.8202C14.2193 36.812 13.2271 35.4994 12.3911 33.9793C11.7158 32.7516 11.1306 31.3704 10.6523 29.8692ZM19.7986 38.5034C17.517 38.1823 15.3444 36.3489 13.6579 33.2826C13.1687 32.3932 12.7273 31.4105 12.3426 30.3496C14.6358 30.9258 17.1549 31.2656 19.7986 31.3181V38.5034ZM25.7058 37.8202C26.8237 36.812 27.8159 35.4994 28.652 33.9793C29.3272 32.7516 29.9124 31.3704 30.3907 29.8692C31.8919 29.3909 33.2731 28.8057 34.5009 28.1304C36.0209 27.2944 37.3336 26.3022 38.3417 25.1843C36.5763 31.2632 31.7847 36.0548 25.7058 37.8202ZM28.7004 30.3496C28.3157 31.4105 27.8743 32.3932 27.3851 33.2826C25.6987 36.3489 23.5261 38.1823 21.2444 38.5034V31.3181C23.8881 31.2656 26.4072 30.9258 28.7004 30.3496ZM30.8711 28.1789C31.932 27.7942 32.9147 27.3528 33.8041 26.8636C36.8704 25.1771 38.7038 23.0046 39.0249 20.7229H31.8396C31.7871 23.3666 31.4473 25.8857 30.8711 28.1789ZM30.3936 20.7229C30.3339 23.608 29.9185 26.3166 29.2313 28.7098C26.8381 29.397 24.1295 29.8124 21.2444 29.8721V26.7515C22.3203 23.9951 24.516 21.7991 27.2723 20.7229H30.3936ZM31.8396 19.2771H39.0249C38.7038 16.9954 36.8704 14.8228 33.8041 13.1364C32.9147 12.6472 31.932 12.2058 30.8711 11.8211C31.4473 14.1143 31.7871 16.6334 31.8396 19.2771ZM29.2313 11.2902C29.9185 13.6834 30.3339 16.392 30.3936 19.2771H27.2723C24.516 18.2009 22.3203 16.0049 21.2444 13.2485V10.1279C24.1295 10.1876 26.8381 10.603 29.2313 11.2902ZM30.3907 10.1308C31.8919 10.6091 33.2731 11.1943 34.5009 11.8696C36.0209 12.7056 37.3336 13.6978 38.3417 14.8157C36.5763 8.73679 31.7847 3.94523 25.7058 2.17977C26.8237 3.18795 27.8159 4.50059 28.652 6.02065C29.3272 7.2484 29.9124 8.62958 30.3907 10.1308ZM21.2444 1.49659C23.5261 1.81769 25.6987 3.65108 27.3851 6.7174C27.8743 7.60684 28.3157 8.58946 28.7004 9.65044C26.4072 9.07417 23.8881 8.73442 21.2444 8.68187V1.49659Z" fill="black"/>
</svg>
