<svg width="32" height="32" viewBox="0 0 32 32" fill="none" xmlns="http://www.w3.org/2000/svg">
<path fill-rule="evenodd" clip-rule="evenodd" d="M4.26712 2.1333C3.08893 2.1333 2.13379 3.08844 2.13379 4.26663V27.7333C2.13379 28.9115 3.08893 29.8666 4.26712 29.8666H27.7338C28.912 29.8666 29.8671 28.9115 29.8671 27.7333V4.26663C29.8671 3.08844 28.912 2.1333 27.7338 2.1333H4.26712ZM6.50712 12.8H10.5605V25.6H6.50712V12.8ZM10.8271 8.54397C10.8271 9.81055 9.80037 10.8373 8.53379 10.8373C7.26723 10.8373 6.24046 9.81055 6.24046 8.54397C6.24046 7.27739 7.26723 6.25063 8.53379 6.25063C9.80037 6.25063 10.8271 7.27739 10.8271 8.54397ZM25.6005 17.8285C25.6005 13.9777 23.1117 12.4807 20.6394 12.4807C19.8298 12.4408 19.0238 12.6105 18.3018 12.9729C17.7535 13.2481 17.1794 13.8778 16.7368 14.9728H16.6229V12.8009H12.8005V25.61H16.8669V18.7972C16.8081 18.0994 17.0314 17.1977 17.4883 16.661C17.9451 16.1244 18.5986 15.9962 19.0941 15.9311H19.2486C20.5418 15.9311 21.5015 16.7317 21.5015 18.7492V25.61H25.5678L25.6005 17.8285Z" fill="#FFCD3A"/>
</svg>
