<svg width="130" height="47" viewBox="0 0 130 47" fill="none" xmlns="http://www.w3.org/2000/svg">
<path d="M12.9522 20.2333C12.9157 21.0901 12.8975 22.1749 12.8975 23.4875C12.8975 24.8001 12.9157 25.8939 12.9522 26.769C12.9886 27.6259 13.0615 28.3095 13.1709 28.82C13.2985 29.3304 13.4717 29.6859 13.6905 29.8865C13.9275 30.087 14.2374 30.1873 14.6203 30.1873C15.0031 30.1873 15.3039 30.087 15.5227 29.8865C15.7597 29.6859 15.9329 29.3304 16.0423 28.82C16.1699 28.3095 16.2519 27.6259 16.2884 26.769C16.3249 25.8939 16.3431 24.8001 16.3431 23.4875C16.3431 22.1749 16.3249 21.0901 16.2884 20.2333C16.2519 19.3582 16.1699 18.6654 16.0423 18.155C15.9329 17.6445 15.7597 17.289 15.5227 17.0885C15.3039 16.8879 15.0031 16.7876 14.6203 16.7876C14.2374 16.7876 13.9275 16.8879 13.6905 17.0885C13.4717 17.289 13.2985 17.6445 13.1709 18.155C13.0615 18.6654 12.9886 19.3582 12.9522 20.2333Z" fill="#394149"/>
<path fill-rule="evenodd" clip-rule="evenodd" d="M13.9202 3.1733C7.32643 3.3144 2.08523 8.7556 2.19103 15.35L2.32103 23.4524L2.19103 31.5548C2.08523 38.1493 7.32643 43.5905 13.9202 43.7315L22.0238 43.9049L30.1274 43.7315C36.7212 43.5905 41.9625 38.1493 41.8567 31.5548L41.7267 23.4524L41.8567 15.35C41.9625 8.7556 36.7212 3.3144 30.1274 3.1733L22.0238 3L13.9202 3.1733ZM22.3038 33.7698L19.241 36.4224L16.4517 33.4143C16.2329 33.4508 16.0141 33.4782 15.7954 33.4964C15.5948 33.5328 15.3669 33.5511 15.1117 33.5511H14.6195C13.3251 33.5511 12.2312 33.3779 11.3379 33.0315C10.4446 32.6851 9.72453 32.1108 9.17763 31.3087C8.63073 30.4883 8.23873 29.44 8.00173 28.1639C7.76473 26.8695 7.64623 25.3107 7.64623 23.4877C7.64623 21.6646 7.76473 20.115 8.00173 18.8388C8.23873 17.5444 8.63073 16.4962 9.17763 15.694C9.72453 14.8736 10.4446 14.2811 11.3379 13.9165C12.2312 13.5336 13.3251 13.3422 14.6195 13.3422C15.9139 13.3422 17.0077 13.5336 17.901 13.9165C18.7943 14.2811 19.5145 14.8736 20.0614 15.694C20.6083 16.4962 21.0003 17.5444 21.2373 18.8388C21.4743 20.115 21.5928 21.6646 21.5928 23.4877C21.5928 25.3654 21.4652 26.9515 21.2099 28.2459C20.9547 29.5403 20.5354 30.5977 19.952 31.4181L22.3038 33.7698ZM30.936 20.753V19.6592C30.936 18.5471 30.8266 17.7905 30.6078 17.3895C30.3891 16.9884 30.0336 16.7878 29.5413 16.7878C29.1585 16.7878 28.8486 16.8881 28.6116 17.0887C28.3928 17.2892 28.2196 17.6447 28.092 18.1552C27.9826 18.6656 27.9097 19.3584 27.8732 20.2335C27.8367 21.0903 27.8185 22.1751 27.8185 23.4877C27.8185 24.8003 27.8367 25.8941 27.8732 26.7692C27.9097 27.6261 27.9826 28.3097 28.092 28.8202C28.2196 29.3306 28.3928 29.6861 28.6116 29.8867C28.8486 30.0872 29.1585 30.1875 29.5413 30.1875C29.8512 30.1875 30.1065 30.1146 30.307 29.9687C30.5076 29.8046 30.6625 29.5403 30.7719 29.1757C30.8813 28.8111 30.9542 28.3279 30.9907 27.7263C31.0454 27.1065 31.0727 26.3317 31.0727 25.4019H35.995V26.8513C35.995 28.2186 35.8127 29.3398 35.4481 30.2148C35.0835 31.0899 34.6004 31.7827 33.9988 32.2931C33.3971 32.7854 32.7044 33.1135 31.9204 33.2776C31.1548 33.4599 30.3617 33.5511 29.5413 33.5511C28.1193 33.5511 26.9526 33.3779 26.041 33.0315C25.1295 32.6851 24.4185 32.1108 23.908 31.3087C23.3975 30.4883 23.042 29.44 22.8415 28.1639C22.6592 26.8695 22.568 25.3107 22.568 23.4877C22.568 21.6281 22.6774 20.0512 22.8962 18.7568C23.1332 17.4624 23.5252 16.4141 24.0721 15.612C24.619 14.8098 25.3391 14.2355 26.2324 13.8891C27.1257 13.5245 28.2287 13.3422 29.5413 13.3422C30.6899 13.3422 31.6652 13.4881 32.4674 13.7798C33.2695 14.0715 33.9167 14.4908 34.409 15.0377C34.9194 15.5664 35.284 16.2136 35.5028 16.9793C35.7398 17.7267 35.8583 18.5745 35.8583 19.5225V20.753H30.936Z" fill="#394149"/>
<path fill-rule="evenodd" clip-rule="evenodd" d="M65.7551 16.9366L70.2133 21.5631L74.6715 16.9366H82.4172L74.0803 24.8678L82.4172 32.7989H74.6715L70.2133 28.1606L65.7551 32.7989H57.9976L66.3346 24.8678L57.9976 16.9366H65.7551ZM65.3253 24.8678L56.2578 16.2417H66.0515L70.2133 20.5606L74.3751 16.2417H83.8192V16.2299H99.8252C103.485 16.1925 106.583 19.2531 106.533 22.9254C106.532 24.2463 106.175 25.4639 105.46 26.5476C104.922 27.3679 104.24 28.0428 103.423 28.556L106.836 32.9381V30.0962C106.836 27.8696 108.5 26.4501 110.414 25.5087C112.347 24.5583 114.786 23.9645 116.817 23.4841L116.82 23.4834L116.843 23.4776C118.095 23.1697 119.161 22.9076 119.92 22.6249C120.304 22.4816 120.556 22.3519 120.7 22.2417C120.718 22.2277 120.733 22.2153 120.746 22.2046C120.702 22.1642 120.612 22.1039 120.435 22.0344C120.022 21.8727 119.317 21.7509 118.249 21.7506C117.108 21.7624 116.138 21.8552 115.476 22.0874C115.15 22.2019 114.953 22.3323 114.842 22.4547C114.748 22.5598 114.692 22.6845 114.697 22.8801L114.714 23.5917H107.084V22.8968C107.084 21.4702 107.364 20.2774 107.924 19.3001C108.487 18.3184 109.307 17.6016 110.307 17.0875C112.269 16.0788 114.972 15.8286 117.986 15.8286C121.072 15.8286 123.634 16.1847 125.448 17.1015C126.366 17.5661 127.112 18.1844 127.625 18.9885C128.139 19.7947 128.391 20.7437 128.391 21.8228C128.391 23.8197 127.186 25.0916 125.709 25.9206C124.275 26.7255 122.47 27.1826 120.971 27.5483H128.131V33.4703H107.25L107.259 33.4821H98.8952L95.9032 29.6109H91.4082V33.4821H84.1442L84.1572 33.4939H74.3746L70.2133 29.1645L66.052 33.4939H56.2578L65.3253 24.8678ZM83.8192 33.1721V16.5634L75.0895 24.8678L83.8192 33.1721ZM96.2462 28.916L99.2382 32.7871H105.836L102.371 28.3376C102.588 28.2371 102.795 28.1259 102.994 28.0043C103.752 27.5401 104.382 26.9234 104.878 26.166C105.517 25.1982 105.836 24.1124 105.836 22.9204C105.884 19.6393 103.105 16.8894 99.8292 16.9248H84.5152V32.7871H90.7112V28.916H96.2462ZM117.324 28.2432C117.541 27.9779 117.934 27.7523 118.456 27.5483C119.071 27.3075 119.863 27.0967 120.753 26.886C123.804 26.1424 127.695 25.1274 127.695 21.8228C127.695 17.9516 124.1 16.5235 117.986 16.5235C112.237 16.5235 108.16 17.4601 107.806 22.2018C107.789 22.425 107.78 22.6565 107.78 22.8968H114.001C114 22.8706 114 22.8448 114.001 22.8194C114.035 21.4095 115.981 21.0788 118.246 21.0556C120.457 21.0556 121.474 21.5513 121.474 22.2241C121.474 23.0545 119.512 23.5372 117.048 24.1431L116.981 24.1596C112.889 25.1274 107.532 26.4729 107.532 30.0962V32.7753H127.434V28.2432H117.324ZM120.785 22.2579C120.785 22.2579 120.781 22.2535 120.779 22.2433C120.785 22.2525 120.785 22.2579 120.785 22.2579ZM98.9322 22.9204C98.9322 22.5489 98.6402 22.2581 98.2682 22.2581H91.4082V23.5709H98.2682C98.4682 23.5709 98.6082 23.5102 98.7332 23.385C98.8762 23.2424 98.9322 23.0998 98.9322 22.9204ZM99.6282 22.9204C99.6282 22.165 99.0252 21.5631 98.2682 21.5631H90.7112V24.2658H98.2682C98.6462 24.2658 98.9662 24.136 99.2262 23.8764C99.4982 23.6049 99.6282 23.2863 99.6282 22.9204Z" fill="#394149"/>
<path d="M58.5713 44.2424H61.5392V40.1787L64.5126 44.2424H65.9965L68.97 40.1787V44.2424H71.9379V36.625H68.2281L65.2546 40.4337L62.2868 36.625H58.5713V44.2424Z" fill="#394149"/>
<path d="M78.1904 36.438C75.3248 36.4437 72.98 37.2711 72.9913 40.156V40.7114C72.98 43.5906 75.3248 44.4238 78.1904 44.4294C81.0504 44.4238 83.3954 43.5906 83.3844 40.7114V40.156C83.3844 37.2768 81.0564 36.438 78.1904 36.438ZM80.4164 40.5244C80.4334 41.7713 79.4024 41.998 78.1904 42.015C76.973 41.998 75.9421 41.7713 75.9591 40.5244V40.3374C75.9421 39.0961 76.973 38.8694 78.1904 38.8524C79.4024 38.8694 80.4334 39.0961 80.4164 40.3374V40.5244Z" fill="#394149"/>
<path d="M91.6984 40.4448C91.6984 41.2099 91.2624 41.839 90.4924 41.839H87.2414V39.0505H90.4924C91.2624 39.0505 91.6984 39.6739 91.6984 40.4448ZM84.2734 36.6361V44.2534H91.0474C93.1374 44.2818 94.6894 42.5135 94.6724 40.4448C94.6894 38.3647 93.1374 36.6077 91.0474 36.6361H84.2734Z" fill="#394149"/>
<path d="M102.935 40.5301C102.952 41.7826 101.922 41.998 100.709 42.015C99.4918 41.998 98.4668 41.7826 98.4778 40.5301V36.625H95.5098V40.7171C95.4988 43.5963 97.8548 44.4238 100.709 44.4294C103.564 44.4238 105.92 43.5963 105.909 40.7171V36.625H102.935V40.5301Z" fill="#394149"/>
<path d="M107.245 36.625V44.2424H116.155V41.828H110.213V36.625H107.245Z" fill="#394149"/>
<path d="M117.168 44.2535H126.078V42.2982H120.136V41.3233H126.078V39.5607H120.136V38.5858H126.078V36.6362H117.168V44.2535Z" fill="#394149"/>
<path d="M60.2792 7.60552V6.00022H64.6781C64.8912 6.00022 65.0767 6.07732 65.2279 6.23852C65.386 6.39282 65.4616 6.58202 65.4616 6.80632C65.4616 7.02372 65.386 7.21292 65.2279 7.37422C65.0767 7.52842 64.8912 7.60552 64.6781 7.60552H60.2792ZM56.6777 3.24532V12.6667H60.2792V10.3674H65.5785C67.4824 10.3955 69.0976 8.74812 69.0701 6.80632C69.0976 4.85762 67.4824 3.22422 65.5785 3.24532H56.6777Z" fill="#394149"/>
<path d="M76.2393 3C72.7615 3.007 69.916 4.0305 69.9297 7.5986V8.2856C69.916 11.8467 72.7615 12.8771 76.2393 12.8841C79.71 12.8771 82.556 11.8467 82.542 8.2856V7.5986C82.542 4.0375 79.717 3 76.2393 3ZM78.94 8.0542C78.961 9.5964 77.71 9.8768 76.2393 9.8979C74.7616 9.8768 73.5107 9.5964 73.5313 8.0542V7.8229C73.5107 6.2877 74.7616 6.0073 76.2393 5.9863C77.71 6.0073 78.961 6.2877 78.94 7.8229V8.0542Z" fill="#394149"/>
<path d="M96.5837 9.21111L94.4457 3.24561H90.3907L88.2467 9.21111L86.1087 3.24561H82.0537L86.1087 12.667H90.3907L92.4187 7.95631L94.4457 12.667H98.7277L102.784 3.24561H98.7277L96.5837 9.21111Z" fill="#394149"/>
<path d="M103.059 12.667H113.87V10.2486H106.66V9.04281H113.87V6.86271H106.66V5.65701H113.87V3.24561H103.059V12.667Z" fill="#394149"/>
<path d="M115.788 3.23848V12.66H119.389V10.3607H122.606L124.345 12.66H128.18L126.166 10.0172C126.771 9.72978 127.259 9.29518 127.623 8.72738C127.995 8.15258 128.18 7.50768 128.18 6.79958C128.208 4.85078 126.592 3.21748 124.689 3.23848H115.788ZM123.781 5.99348C124.221 5.99348 124.572 6.35098 124.572 6.79958C124.572 7.01688 124.496 7.20618 124.338 7.36738C124.187 7.52168 124.001 7.59878 123.781 7.59878H119.389V5.99348H123.781Z" fill="#394149"/>
</svg>
