<svg width="97" height="50" viewBox="0 0 97 50" fill="none" xmlns="http://www.w3.org/2000/svg">
<path d="M24.5781 24.5767L24.7767 24.5347H41.2949L47.5018 30.7416H30.7432L24.5781 24.5767Z" fill="black"/>
<path d="M19.2607 24.5342L2.50195 24.5343L8.70883 30.7412H19.2605L19.2607 24.5342Z" fill="black"/>
<path d="M53.2705 6.70459H55.8446V14.7031H60.2657V16.87H53.2705V6.70459Z" fill="black"/>
<path d="M64.9387 17.0881C64.0758 17.0881 63.3199 16.933 62.6698 16.6227C62.0203 16.3028 61.5162 15.8666 61.1574 15.3139C60.8083 14.7516 60.6338 14.1069 60.6338 13.3797C60.6338 12.6526 60.8083 12.0127 61.1574 11.4601C61.5162 10.8978 62.0203 10.4615 62.6698 10.1513C63.3199 9.83132 64.0758 9.67139 64.9387 9.67139C65.8016 9.67139 66.5581 9.83132 67.2076 10.1513C67.857 10.4615 68.3563 10.8978 68.7053 11.4601C69.0641 12.0127 69.2435 12.6526 69.2435 13.3797C69.2435 14.1069 69.0641 14.7516 68.7053 15.3139C68.3563 15.8666 67.857 16.3028 67.2076 16.6227C66.5581 16.933 65.8016 17.0881 64.9387 17.0881ZM64.9387 15.0958C65.4525 15.0958 65.86 14.9455 66.1604 14.645C66.4705 14.3347 66.6256 13.913 66.6256 13.3797C66.6256 12.8465 66.4705 12.4296 66.1604 12.129C65.86 11.8188 65.4525 11.6637 64.9387 11.6637C64.4248 11.6637 64.0132 11.8188 63.7024 12.129C63.402 12.4296 63.2518 12.8465 63.2518 13.3797C63.2518 13.913 63.402 14.3347 63.7024 14.645C64.0132 14.9455 64.4248 15.0958 64.9387 15.0958Z" fill="black"/>
<path d="M74.0513 20.2148C73.5861 20.2148 73.116 20.1712 72.6404 20.0839C72.1752 19.9967 71.7733 19.8803 71.434 19.7349V17.9607C72.1996 18.2903 73.0722 18.4552 74.0513 18.4552C74.7591 18.4552 75.2681 18.3097 75.5782 18.0188C75.8981 17.728 76.058 17.3015 76.058 16.7391V16.3173C75.7771 16.5597 75.4281 16.7488 75.0115 16.8845C74.6041 17.0203 74.1674 17.0881 73.7022 17.0881C72.9658 17.0881 72.3157 16.933 71.7539 16.6227C71.1913 16.3126 70.7505 15.8762 70.4299 15.3139C70.1198 14.7516 69.9648 14.1069 69.9648 13.3797C69.9648 12.6429 70.1198 11.9933 70.4299 11.431C70.7408 10.8687 71.1767 10.4373 71.7393 10.1367C72.3011 9.82652 72.9464 9.67139 73.673 9.67139C74.6722 9.67139 75.4962 9.97679 76.1456 10.5875V9.88952H78.6176V16.3901C78.6176 17.602 78.2449 18.5424 77.4981 19.2114C76.761 19.8803 75.6123 20.2148 74.0513 20.2148ZM74.3419 15.1103C74.7397 15.1103 75.0936 15.0085 75.4037 14.8049C75.7138 14.6013 75.9322 14.3299 76.058 13.9905V12.769C75.9224 12.4296 75.6992 12.163 75.3891 11.9691C75.079 11.7655 74.7299 11.6637 74.3419 11.6637C73.819 11.6637 73.397 11.8188 73.0771 12.129C72.7572 12.4296 72.5973 12.8417 72.5973 13.3652C72.5973 13.8984 72.7572 14.325 73.0771 14.645C73.397 14.9552 73.819 15.1103 74.3419 15.1103Z" fill="black"/>
<path d="M83.5714 17.0881C82.7085 17.0881 81.952 16.933 81.3025 16.6227C80.6531 16.3028 80.149 15.8666 79.7902 15.3139C79.4411 14.7516 79.2666 14.1069 79.2666 13.3797C79.2666 12.6526 79.4411 12.0127 79.7902 11.4601C80.149 10.8978 80.6531 10.4615 81.3025 10.1513C81.952 9.83132 82.7085 9.67139 83.5714 9.67139C84.4343 9.67139 85.1902 9.83132 85.8403 10.1513C86.4898 10.4615 86.989 10.8978 87.3381 11.4601C87.6969 12.0127 87.8763 12.6526 87.8763 13.3797C87.8763 14.1069 87.6969 14.7516 87.3381 15.3139C86.989 15.8666 86.4898 16.3028 85.8403 16.6227C85.1902 16.933 84.4343 17.0881 83.5714 17.0881ZM83.5714 15.0958C84.0853 15.0958 84.4921 14.9455 84.7931 14.645C85.1033 14.3347 85.2583 13.913 85.2583 13.3797C85.2583 12.8465 85.1033 12.4296 84.7931 12.129C84.4921 11.8188 84.0853 11.6637 83.5714 11.6637C83.0576 11.6637 82.6452 11.8188 82.3351 12.129C82.0347 12.4296 81.8845 12.8465 81.8845 13.3797C81.8845 13.913 82.0347 14.3347 82.3351 14.645C82.6452 14.9455 83.0576 15.0958 83.5714 15.0958Z" fill="black"/>
<path d="M53.2705 20.6113H55.8446V30.7767H53.2705V20.6113Z" fill="black"/>
<path d="M57.1475 23.7962H59.6195V24.4942C60.269 23.8835 61.0937 23.5781 62.0922 23.5781C62.8188 23.5781 63.4641 23.7332 64.0259 24.0435C64.5884 24.344 65.0244 24.7754 65.3352 25.3377C65.6454 25.8903 65.8004 26.5351 65.8004 27.2719C65.8004 27.999 65.6454 28.6486 65.3352 29.2206C65.0244 29.7829 64.5884 30.2193 64.0259 30.5294C63.4738 30.8397 62.8285 30.9948 62.0922 30.9948C61.6263 30.9948 61.1806 30.9221 60.7543 30.7767C60.3371 30.641 59.9881 30.4519 59.7072 30.2095V33.9616H57.1475V23.7962ZM61.4233 29.0025C61.9468 29.0025 62.3682 28.8474 62.6881 28.5371C63.0079 28.2269 63.1679 27.8051 63.1679 27.2719C63.1679 26.7387 63.0079 26.3218 62.6881 26.0212C62.3682 25.711 61.9468 25.5559 61.4233 25.5559C61.0353 25.5559 60.6862 25.6577 60.3761 25.8613C60.0659 26.0551 59.8427 26.3218 59.7072 26.6611V27.8972C59.8427 28.2366 60.0659 28.508 60.3761 28.7116C60.6862 28.9056 61.0353 29.0025 61.4233 29.0025Z" fill="black"/>
<path d="M69.616 30.9948C69.0534 30.9948 68.4666 30.9366 67.8561 30.8203C67.2456 30.7137 66.7602 30.5586 66.4021 30.355V28.479C66.7991 28.7116 67.2741 28.9056 67.8269 29.0607C68.3894 29.2061 68.9032 29.2788 69.3684 29.2788C69.7078 29.2788 69.9553 29.2545 70.1104 29.2061C70.2654 29.1576 70.3426 29.0607 70.3426 28.9152C70.3426 28.7989 70.2898 28.7068 70.1827 28.639C70.086 28.5614 69.9018 28.4838 69.6306 28.4062C69.3684 28.319 69.0632 28.2269 68.7141 28.1299C68.1224 27.9554 67.6572 27.776 67.3179 27.5918C66.9785 27.4076 66.7268 27.175 66.562 26.8938C66.3972 26.6127 66.3145 26.2587 66.3145 25.8321C66.3145 25.076 66.61 24.5136 67.2017 24.1453C67.8025 23.7671 68.6223 23.5781 69.6591 23.5781C70.1632 23.5781 70.6917 23.6314 71.2445 23.738C71.807 23.8447 72.2284 23.9853 72.51 24.1598V26.0067C72.2186 25.8128 71.8313 25.6528 71.3467 25.5268C70.8711 25.4008 70.4253 25.3377 70.0081 25.3377C69.6786 25.3377 69.422 25.3716 69.2377 25.4395C69.0534 25.4977 68.9617 25.6044 68.9617 25.7595C68.9617 25.9049 69.0534 26.0164 69.2377 26.0939C69.422 26.1715 69.7516 26.2685 70.2265 26.3848C70.5366 26.4623 70.668 26.4963 70.6193 26.4866C71.2396 26.6514 71.7194 26.8356 72.0587 27.0392C72.398 27.2429 72.6358 27.4852 72.7714 27.7664C72.9168 28.0378 72.9898 28.3868 72.9898 28.8134C72.9898 29.4824 72.6991 30.0157 72.1171 30.4131C71.5448 30.8009 70.7111 30.9948 69.616 30.9948Z" fill="black"/>
<path d="M76.812 30.995C75.8524 30.995 75.13 30.7284 74.6453 30.1952C74.1704 29.6619 73.9326 28.9591 73.9326 28.0865V23.7964H76.4922V27.7956C76.4922 28.6003 76.8558 29.0027 77.5825 29.0027C77.9127 29.0027 78.2131 28.9251 78.4843 28.77C78.7562 28.6149 78.9787 28.387 79.1532 28.0865V23.7964H81.7128V30.7769H79.2408V30.0206C78.9404 30.3406 78.5768 30.583 78.1498 30.7478C77.7236 30.9126 77.2772 30.995 76.812 30.995Z" fill="black"/>
<path d="M83.0234 23.7962H85.3938V24.5524C85.6844 24.2422 86.0189 24.0047 86.3972 23.8398C86.7754 23.6653 87.178 23.5781 87.6043 23.5781C88.1278 23.5781 88.5451 23.6556 88.8552 23.8107C89.175 23.9659 89.4316 24.1985 89.6256 24.5088C89.9163 24.2179 90.2702 23.9901 90.6874 23.8253C91.1039 23.6605 91.526 23.5781 91.9522 23.5781C92.8736 23.5781 93.5279 23.8156 93.9159 24.2906C94.3039 24.756 94.4979 25.4298 94.4979 26.3121V30.7767H92.0544V26.6757C92.0544 26.2879 91.9814 26.0067 91.8361 25.8321C91.6908 25.6577 91.4481 25.5704 91.1088 25.5704C90.6728 25.5704 90.3189 25.7256 90.0477 26.0357C90.0574 26.2006 90.0623 26.4527 90.0623 26.792V30.7767H87.6189V26.5739C87.6189 26.2151 87.5556 25.9582 87.4297 25.8031C87.3039 25.648 87.0807 25.5704 86.7608 25.5704C86.2664 25.5704 85.8395 25.8467 85.4814 26.3993V30.7767H83.0234V23.7962Z" fill="black"/>
<path d="M24.7774 24.5345L24.5787 24.5766L30.7435 30.7414V47.5H25.4676L19.2607 41.2931H24.5366V24.5344H19.2607V19.2587H24.5366V2.5L30.7435 8.70689V19.2586L24.5366 19.2587V24.5344L24.7774 24.5345Z" fill="#555555"/>
<path d="M41.2959 24.5347L47.5028 30.7416V25.4657L41.2959 19.2588V24.5347Z" fill="#555555"/>
<path d="M53.6338 35.5483H57.4003C58.4666 35.5483 59.2954 35.8004 59.8872 36.3046C60.4879 36.8087 60.789 37.5552 60.789 38.5441C60.789 39.5427 60.4928 40.2893 59.9018 40.7838C59.31 41.2782 58.4763 41.5254 57.4003 41.5254H54.7681V45.7137H53.6338V35.5483ZM57.3131 40.5656C58.0403 40.5656 58.6126 40.4202 59.0291 40.1293C59.4463 39.8288 59.6542 39.3004 59.6542 38.5441C59.6542 37.7782 59.4463 37.2498 59.0291 36.959C58.6126 36.6584 58.0403 36.5082 57.3131 36.5082H54.7681V40.5656H57.3131Z" fill="#555555"/>
<path d="M62.2402 34.9668H63.3597V45.7139H62.2402V34.9668Z" fill="#555555"/>
<path d="M68.2143 45.9321C67.2833 45.9321 66.5657 45.68 66.0615 45.1758C65.5671 44.6717 65.3203 43.9979 65.3203 43.1544V38.7334H66.4398V43.2126C66.4398 44.4342 67.0746 45.045 68.345 45.045C68.8784 45.045 69.3435 44.9286 69.7413 44.696C70.1481 44.4632 70.5117 44.0948 70.8316 43.5907V38.7334H71.9518V45.7139H70.8608V44.6668C70.2308 45.5103 69.3484 45.9321 68.2143 45.9321Z" fill="#555555"/>
<path d="M76.4137 45.9319C75.9576 45.9319 75.4681 45.864 74.9445 45.7283C74.4209 45.6022 74.0141 45.4423 73.7228 45.2483V44.3031C74.0913 44.5261 74.5134 44.7054 74.9883 44.8411C75.4729 44.9769 75.9381 45.0447 76.3845 45.0447C76.9853 45.0447 77.4171 44.9623 77.6786 44.7975C77.9504 44.623 78.086 44.3661 78.086 44.0268C78.086 43.765 78.0276 43.5614 77.9115 43.416C77.7947 43.2608 77.6014 43.1251 77.3295 43.0088C77.0583 42.8924 76.6363 42.7567 76.0647 42.6016C75.5022 42.4465 75.0516 42.2865 74.7122 42.1217C74.3827 41.9471 74.1302 41.729 73.9557 41.4672C73.7812 41.2055 73.6943 40.871 73.6943 40.4638C73.6943 39.8336 73.946 39.3537 74.4501 39.0241C74.964 38.6847 75.6426 38.5151 76.4861 38.5151C76.9415 38.5151 77.3684 38.5587 77.7662 38.6459C78.173 38.7235 78.5123 38.835 78.7842 38.9805V39.9257C78.5025 39.7706 78.1632 39.6494 77.7662 39.5621C77.3684 39.4652 76.9561 39.4167 76.5299 39.4167C75.9673 39.4167 75.5411 39.4991 75.2497 39.6639C74.9591 39.8288 74.8138 40.0954 74.8138 40.4638C74.8138 40.7159 74.8624 40.9098 74.9591 41.0455C75.0662 41.1812 75.2546 41.3073 75.5265 41.4236C75.8074 41.5303 76.2538 41.666 76.8643 41.8308C77.737 42.0732 78.3426 42.3592 78.6819 42.6889C79.031 43.0088 79.2055 43.4548 79.2055 44.0268C79.2055 44.6181 78.9733 45.0835 78.5074 45.4229C78.052 45.7622 77.3538 45.9319 76.4137 45.9319Z" fill="#555555"/>
</svg>
