<svg width="147" height="46" viewBox="0 0 147 46" fill="none" xmlns="http://www.w3.org/2000/svg">
<path fill-rule="evenodd" clip-rule="evenodd" d="M72.6753 7.40747C74.0631 6.01977 76.3132 6.01977 77.701 7.40747C79.0888 8.79527 79.0888 11.0453 77.701 12.4331L69.2401 20.894C66.8109 17.6384 67.0747 13.0082 70.0317 10.0512L72.6753 7.40747Z" fill="#4F9E91"/>
<path fill-rule="evenodd" clip-rule="evenodd" d="M84.7713 26.4967C86.1593 27.8844 86.1593 30.1345 84.7713 31.5222C83.3843 32.91 81.1339 32.91 79.7461 31.5222L71.2852 23.0614C74.5408 20.6322 79.171 20.896 82.128 23.853L84.7713 26.4967Z" fill="#EBE1C5"/>
<path fill-rule="evenodd" clip-rule="evenodd" d="M65.6826 38.5924C64.2949 39.9802 62.0448 39.9802 60.6571 38.5924C59.2693 37.2046 59.2693 34.9546 60.6571 33.5668L69.1179 25.106C71.5471 28.3616 71.2833 32.9918 68.3263 35.9487L65.6826 38.5924Z" fill="#EBCC6E"/>
<path fill-rule="evenodd" clip-rule="evenodd" d="M53.5867 19.503C52.1989 18.1152 52.1989 15.8652 53.5867 14.4774C54.9745 13.0896 57.2245 13.0896 58.6123 14.4774L67.0732 22.9383C63.8176 25.3675 59.1874 25.1036 56.2305 22.1467L53.5867 19.503Z" fill="#ED834E"/>
<path fill-rule="evenodd" clip-rule="evenodd" d="M70.7852 37.5563C72.8315 35.2811 73.7826 32.3698 73.6383 29.5034L77.7017 33.5668C77.7118 33.5769 77.722 33.587 77.7322 33.5971V36.4981C77.7322 38.4607 76.1412 40.0517 74.1786 40.0517C72.5845 40.0517 71.2356 39.0021 70.7852 37.5563Z" fill="#ED834E"/>
<path fill-rule="evenodd" clip-rule="evenodd" d="M54.6224 24.606C56.8975 26.6524 59.8088 27.6035 62.6752 27.4592L58.6119 31.5226C58.6017 31.5327 58.5916 31.5429 58.5816 31.553H55.6806C53.718 31.5531 52.127 29.962 52.127 27.9994C52.127 26.4054 53.1766 25.0564 54.6224 24.606Z" fill="#4F9E91"/>
<path fill-rule="evenodd" clip-rule="evenodd" d="M83.7352 21.3944C81.4603 19.348 78.549 18.3969 75.6826 18.5411L79.7459 14.4778C79.7561 14.4677 79.7661 14.4575 79.7762 14.4473H82.6773C84.6402 14.4473 86.2312 16.0384 86.2312 18.001C86.2312 19.5951 85.1812 20.944 83.7352 21.3944Z" fill="#EBCC6E"/>
<path fill-rule="evenodd" clip-rule="evenodd" d="M67.573 8.44374C65.5266 10.7189 64.5756 13.6302 64.7198 16.4967L60.6565 12.4333C60.6463 12.4232 60.6362 12.4131 60.626 12.403V9.50194C60.626 7.53934 62.217 5.94824 64.1796 5.94824C65.7737 5.94824 67.1226 6.99794 67.573 8.44374Z" fill="#EBE1C5"/>
<path fill-rule="evenodd" clip-rule="evenodd" d="M64.18 3.05713C60.6206 3.05713 57.7351 5.94263 57.7351 9.50203V10.7555C55.5937 10.196 53.2205 10.7552 51.5424 12.4333C49.0255 14.9502 49.0255 19.0309 51.5424 21.5478L52.4287 22.4341C50.5189 23.5527 49.2363 25.6262 49.2363 27.9993C49.2363 31.5587 52.1218 34.4442 55.6812 34.4442H56.9346C56.3751 36.5856 56.9343 38.9588 58.6124 40.6368C61.1293 43.1537 65.21 43.1537 67.7269 40.6368L70.3705 37.9932C72.7026 35.6611 73.7918 32.5567 73.6381 29.5033L77.7016 33.5667C80.2185 36.0836 84.2993 36.0836 86.8163 33.5667C89.3333 31.0498 89.3333 26.9691 86.8163 24.4523L85.9303 23.5661C87.8393 22.4475 89.1223 20.374 89.1223 18.0009C89.1223 14.4415 86.2363 11.556 82.6773 11.556H81.4238C81.9834 9.41453 81.4241 7.04133 79.746 5.36323C77.2292 2.84633 73.1485 2.84633 70.6316 5.36323L67.9879 8.00693C65.6558 10.339 64.5666 13.4433 64.7203 16.4967L60.6569 12.4333C60.6467 12.4232 60.6366 12.4131 60.6264 12.403V9.50203C60.6264 7.53943 62.2174 5.94843 64.18 5.94843C65.7741 5.94843 67.123 6.99803 67.5734 8.44383C67.7069 8.29543 67.8451 8.14973 67.9879 8.00693L69.7452 6.24953C68.6266 4.33973 66.5531 3.05713 64.18 3.05713ZM79.7763 14.4473C79.7662 14.4574 79.7562 14.4676 79.746 14.4777L75.6827 18.541C78.5492 18.3968 81.4604 19.3478 83.7353 21.3943C85.1813 20.9439 86.2313 19.5949 86.2313 18.0009C86.2313 16.0383 84.6403 14.4473 82.6773 14.4473H79.7763ZM58.582 31.5529C58.5921 31.5427 58.6022 31.5325 58.6124 31.5224L62.6757 27.459C59.8093 27.6033 56.8981 26.6522 54.623 24.6059C53.1772 25.0563 52.1275 26.4052 52.1275 27.9993C52.1275 29.9619 53.7186 31.5529 55.6812 31.5529H58.582ZM74.1785 42.9431C71.8053 42.9431 69.7318 41.6604 68.6132 39.7506L70.3705 37.9932C70.5134 37.8504 70.6515 37.7047 70.785 37.5563C71.2354 39.0021 72.5843 40.0518 74.1785 40.0518C76.1411 40.0518 77.7321 38.4608 77.7321 36.4982V33.5972C78.5649 34.4191 79.5659 34.9683 80.6234 35.2446V36.4982C80.6234 40.0576 77.7379 42.9431 74.1785 42.9431ZM77.7016 7.40763C76.3138 6.01993 74.0638 6.01993 72.676 7.40763L70.0323 10.0513C67.0754 13.0083 66.8115 17.6385 69.2407 20.8941L77.7016 12.4332C79.0894 11.0454 79.0894 8.79543 77.7016 7.40763ZM84.7713 31.5223C86.1593 30.1345 86.1593 27.8845 84.7713 26.4967L82.1279 23.853C79.171 20.8961 74.5407 20.6322 71.2851 23.0614L79.746 31.5223C81.1338 32.9101 83.3843 32.9101 84.7713 31.5223ZM65.6824 38.5924C64.2946 39.9802 62.0446 39.9802 60.6568 38.5924C59.2691 37.2046 59.2691 34.9546 60.6568 33.5668L69.1177 25.1059C71.5469 28.3615 71.283 32.9918 68.3261 35.9487L65.6824 38.5924ZM53.5868 14.4777C52.1991 15.8655 52.1991 18.1155 53.5868 19.5033L56.2305 22.147C59.1875 25.1039 63.8177 25.3678 67.0733 22.9386L58.6124 14.4777C57.2246 13.09 54.9746 13.09 53.5868 14.4777Z" fill="#3D3A2C"/>
<path d="M1.53223 16.0898H4.69283V25.911H10.1212V28.5716H1.53223V16.0898Z" fill="#3D3A2C"/>
<path d="M15.8598 28.8393C14.8003 28.8393 13.8717 28.6488 13.0741 28.2679C12.2765 27.875 11.6575 27.3393 11.217 26.6608C10.7885 25.9703 10.5742 25.1787 10.5742 24.2858C10.5742 23.393 10.7885 22.6073 11.217 21.9288C11.6575 21.2383 12.2765 20.7026 13.0741 20.3217C13.8717 19.9288 14.8003 19.7324 15.8598 19.7324C16.9193 19.7324 17.8478 19.9288 18.6454 20.3217C19.443 20.7026 20.0561 21.2383 20.4846 21.9288C20.9251 22.6073 21.1453 23.393 21.1453 24.2858C21.1453 25.1787 20.9251 25.9703 20.4846 26.6608C20.0561 27.3393 19.443 27.875 18.6454 28.2679C17.8478 28.6488 16.9193 28.8393 15.8598 28.8393ZM15.8598 26.3929C16.4907 26.3929 16.9907 26.2084 17.3597 25.8394C17.7407 25.4584 17.9311 24.9406 17.9311 24.2858C17.9311 23.6311 17.7407 23.1192 17.3597 22.7502C16.9907 22.3692 16.4907 22.1788 15.8598 22.1788C15.2288 22.1788 14.7229 22.3692 14.342 22.7502C13.9729 23.1192 13.7884 23.6311 13.7884 24.2858C13.7884 24.9406 13.9729 25.4584 14.342 25.8394C14.7229 26.2084 15.2288 26.3929 15.8598 26.3929Z" fill="#3D3A2C"/>
<path d="M27.049 32.6785C26.4776 32.6785 25.9002 32.6249 25.3169 32.5178C24.7455 32.4106 24.2513 32.2678 23.8347 32.0892V29.9107C24.7751 30.3154 25.8466 30.5178 27.049 30.5178C27.918 30.5178 28.543 30.3392 28.9239 29.9821C29.3168 29.625 29.5131 29.1012 29.5131 28.4107V27.8929C29.1679 28.1905 28.7393 28.4226 28.2274 28.5893C27.7274 28.756 27.1918 28.8393 26.6203 28.8393C25.7156 28.8393 24.9181 28.6488 24.2276 28.2679C23.5372 27.8869 22.9954 27.3512 22.6026 26.6608C22.2216 25.9703 22.0312 25.1787 22.0312 24.2858C22.0312 23.3811 22.2216 22.5835 22.6026 21.8931C22.9835 21.2026 23.5192 20.6728 24.2097 20.3038C24.9001 19.9229 25.6919 19.7324 26.5847 19.7324C27.8109 19.7324 28.8227 20.1074 29.6203 20.8574V20.0002H32.656V27.9822C32.656 29.4702 32.1976 30.625 31.281 31.4464C30.3763 32.2678 28.9656 32.6785 27.049 32.6785ZM27.406 26.4108C27.8941 26.4108 28.3287 26.2858 28.7096 26.0358C29.0906 25.7858 29.3583 25.4525 29.5131 25.0358V23.5359C29.3464 23.1192 29.0726 22.7918 28.6917 22.5537C28.3107 22.3038 27.8822 22.1788 27.406 22.1788C26.7632 22.1788 26.2454 22.3692 25.8526 22.7502C25.4597 23.1192 25.2633 23.6251 25.2633 24.268C25.2633 24.9227 25.4597 25.4465 25.8526 25.8394C26.2454 26.2203 26.7632 26.4108 27.406 26.4108Z" fill="#3D3A2C"/>
<path d="M38.7387 28.8393C37.6792 28.8393 36.7507 28.6488 35.9531 28.2679C35.1555 27.875 34.5364 27.3393 34.096 26.6608C33.6674 25.9703 33.4531 25.1787 33.4531 24.2858C33.4531 23.393 33.6674 22.6073 34.096 21.9288C34.5364 21.2383 35.1555 20.7026 35.9531 20.3217C36.7507 19.9288 37.6792 19.7324 38.7387 19.7324C39.7982 19.7324 40.7267 19.9288 41.5243 20.3217C42.3219 20.7026 42.935 21.2383 43.3636 21.9288C43.804 22.6073 44.0243 23.393 44.0243 24.2858C44.0243 25.1787 43.804 25.9703 43.3636 26.6608C42.935 27.3393 42.3219 27.875 41.5243 28.2679C40.7267 28.6488 39.7982 28.8393 38.7387 28.8393ZM38.7387 26.3929C39.3696 26.3929 39.8696 26.2084 40.2387 25.8394C40.6196 25.4584 40.8101 24.9406 40.8101 24.2858C40.8101 23.6311 40.6196 23.1192 40.2387 22.7502C39.8696 22.3692 39.3696 22.1788 38.7387 22.1788C38.1078 22.1788 37.6018 22.3692 37.2209 22.7502C36.8518 23.1192 36.6673 23.6311 36.6673 24.2858C36.6673 24.9406 36.8518 25.4584 37.2209 25.8394C37.6018 26.2084 38.1078 26.3929 38.7387 26.3929Z" fill="#3D3A2C"/>
<path d="M94.4316 16.0898H97.5926V28.5716H94.4316V16.0898Z" fill="#3D3A2C"/>
<path d="M99.1934 20.0002H102.229V20.8574C103.026 20.1074 104.038 19.7324 105.264 19.7324C106.157 19.7324 106.949 19.9229 107.639 20.3038C108.33 20.6728 108.865 21.2026 109.246 21.8931C109.627 22.5716 109.818 23.3633 109.818 24.268C109.818 25.1608 109.627 25.9584 109.246 26.6608C108.865 27.3512 108.33 27.8869 107.639 28.2679C106.961 28.6488 106.169 28.8393 105.264 28.8393C104.693 28.8393 104.145 28.75 103.622 28.5714C103.11 28.4048 102.681 28.1726 102.336 27.875V32.482H99.1934V20.0002ZM104.443 26.3929C105.086 26.3929 105.604 26.2025 105.996 25.8215C106.389 25.4406 106.586 24.9227 106.586 24.268C106.586 23.6132 106.389 23.1014 105.996 22.7323C105.604 22.3514 105.086 22.1609 104.443 22.1609C103.967 22.1609 103.538 22.2859 103.157 22.5359C102.776 22.774 102.503 23.1014 102.336 23.518V25.0358C102.503 25.4525 102.776 25.7858 103.157 26.0358C103.538 26.2739 103.967 26.3929 104.443 26.3929Z" fill="#3D3A2C"/>
<path d="M114.503 28.8393C113.813 28.8393 113.093 28.7679 112.343 28.625C111.593 28.4941 110.997 28.3036 110.557 28.0536V25.7501C111.045 26.0358 111.628 26.2739 112.307 26.4644C112.997 26.6429 113.628 26.7322 114.2 26.7322C114.616 26.7322 114.92 26.7024 115.11 26.6429C115.301 26.5834 115.396 26.4644 115.396 26.2858C115.396 26.1429 115.331 26.0298 115.2 25.9465C115.081 25.8513 114.854 25.756 114.521 25.6608C114.2 25.5537 113.825 25.4406 113.396 25.3215C112.67 25.1072 112.099 24.887 111.682 24.6608C111.265 24.4346 110.956 24.1489 110.753 23.8037C110.551 23.4585 110.45 23.024 110.45 22.5002C110.45 21.5716 110.813 20.8812 111.539 20.4288C112.277 19.9645 113.283 19.7324 114.557 19.7324C115.176 19.7324 115.825 19.7979 116.503 19.9288C117.194 20.0598 117.711 20.2324 118.057 20.4467V22.7145C117.7 22.4764 117.223 22.2799 116.628 22.1252C116.045 21.9704 115.497 21.8931 114.985 21.8931C114.581 21.8931 114.265 21.9347 114.039 22.018C113.813 22.0895 113.7 22.2204 113.7 22.4109C113.7 22.5895 113.813 22.7264 114.039 22.8216C114.265 22.9168 114.67 23.0359 115.253 23.1787C115.634 23.274 115.795 23.3156 115.735 23.3037C116.497 23.5061 117.086 23.7323 117.503 23.9823C117.92 24.2323 118.211 24.5299 118.378 24.8751C118.557 25.2084 118.646 25.637 118.646 26.1608C118.646 26.9822 118.289 27.6369 117.575 28.125C116.872 28.6012 115.848 28.8393 114.503 28.8393Z" fill="#3D3A2C"/>
<path d="M123.338 28.8396C122.16 28.8396 121.273 28.5122 120.678 27.8575C120.095 27.2027 119.803 26.3397 119.803 25.2683V20.0005H122.946V24.9111C122.946 25.8992 123.392 26.3932 124.285 26.3932C124.69 26.3932 125.059 26.298 125.392 26.1075C125.725 25.917 125.999 25.6373 126.213 25.2683V20.0005H129.356V28.5717H126.321V27.6432C125.952 28.036 125.505 28.3336 124.981 28.536C124.458 28.7384 123.91 28.8396 123.338 28.8396Z" fill="#3D3A2C"/>
<path d="M130.965 20.0002H133.876V20.9288C134.233 20.5479 134.644 20.2562 135.108 20.0538C135.572 19.8395 136.066 19.7324 136.59 19.7324C137.233 19.7324 137.745 19.8276 138.126 20.0181C138.519 20.2086 138.834 20.4943 139.072 20.8752C139.429 20.5181 139.864 20.2383 140.376 20.036C140.888 19.8336 141.406 19.7324 141.929 19.7324C143.06 19.7324 143.864 20.0241 144.34 20.6074C144.816 21.1788 145.054 22.0061 145.054 23.0894V28.5714H142.054V23.5359C142.054 23.0597 141.965 22.7145 141.786 22.5002C141.608 22.2859 141.31 22.1788 140.894 22.1788C140.358 22.1788 139.923 22.3692 139.59 22.7502C139.602 22.9525 139.608 23.2621 139.608 23.6787V28.5714H136.608V23.4109C136.608 22.9704 136.531 22.6549 136.376 22.4645C136.221 22.274 135.947 22.1788 135.555 22.1788C134.947 22.1788 134.424 22.518 133.983 23.1966V28.5714H130.965V20.0002Z" fill="#3D3A2C"/>
</svg>
