<svg width="32" height="32" viewBox="0 0 32 32" fill="none" xmlns="http://www.w3.org/2000/svg">
<path fill-rule="evenodd" clip-rule="evenodd" d="M2.13333 4.2666C0.955125 4.2666 0 5.22174 0 6.39994V25.5999C0 26.7782 0.955125 27.7333 2.13333 27.7333H29.8667C31.0449 27.7333 32 26.7782 32 25.5999V6.39994C32 5.22174 31.0449 4.2666 29.8667 4.2666H2.13333ZM2.13333 6.39994H29.8667V8.37314C29.6905 8.37297 29.5121 8.42129 29.3523 8.52271L16 16.9963L2.64772 8.52271C2.48791 8.42129 2.30955 8.37297 2.13333 8.37314V6.39994ZM2.13333 10.4703V25.5999H29.8667V10.4703L16.5144 18.9438C16.2004 19.1431 15.7996 19.1431 15.4856 18.9438L2.13333 10.4703Z" fill="#FFCD3A"/>
</svg>
