<svg width="72" height="72" viewBox="0 0 72 72" fill="none" xmlns="http://www.w3.org/2000/svg">
<rect width="72" height="72" rx="16" fill="#2557E6"/>
<path d="M62.6663 30.6668V44.0002C62.6663 57.3335 57.333 62.6668 43.9997 62.6668H27.9997C14.6663 62.6668 9.33301 57.3335 9.33301 44.0002V28.0002C9.33301 14.6668 14.6663 9.3335 27.9997 9.3335H41.333" stroke="#F6F8FE" stroke-width="3.5" stroke-linecap="round" stroke-linejoin="round"/>
<path d="M62.6663 30.6668H51.9997C43.9997 30.6668 41.333 28.0002 41.333 20.0002V9.3335L62.6663 30.6668Z" stroke="#F6F8FE" stroke-width="3.5" stroke-linecap="round" stroke-linejoin="round"/>
<path d="M21.6534 45.9466C20.7734 43.2 21.8134 39.8133 24.6667 38.88C26.1867 38.4 28.0534 38.8 29.0934 40.2666C30.0801 38.7466 32.0267 38.4 33.5201 38.88C36.4001 39.8133 37.4134 43.2 36.5601 45.9466C35.2001 50.2933 30.4267 52.5599 29.0934 52.5599C27.7867 52.5333 23.0667 50.3199 21.6534 45.9466Z" stroke="#F6F8FE" stroke-width="3.5" stroke-linecap="round" stroke-linejoin="round"/>
</svg>
