<svg width="72" height="72" viewBox="0 0 72 72" fill="none" xmlns="http://www.w3.org/2000/svg">
<rect width="72" height="72" rx="16" fill="#2557E6"/>
<path d="M27.9997 62.6668H43.9997C57.333 62.6668 62.6663 57.3335 62.6663 44.0002V28.0002C62.6663 14.6668 57.333 9.3335 43.9997 9.3335H27.9997C14.6663 9.3335 9.33301 14.6668 9.33301 28.0002V44.0002C9.33301 57.3335 14.6663 62.6668 27.9997 62.6668Z" stroke="#F6F8FE" stroke-width="3.5" stroke-linecap="round" stroke-linejoin="round"/>
<path d="M45.333 30C47.5421 30 49.333 28.2091 49.333 26C49.333 23.7909 47.5421 22 45.333 22C43.1239 22 41.333 23.7909 41.333 26C41.333 28.2091 43.1239 30 45.333 30Z" stroke="#F6F8FE" stroke-width="3.5" stroke-miterlimit="10" stroke-linecap="round" stroke-linejoin="round"/>
<path d="M26.667 30C28.8761 30 30.667 28.2091 30.667 26C30.667 23.7909 28.8761 22 26.667 22C24.4579 22 22.667 23.7909 22.667 26C22.667 28.2091 24.4579 30 26.667 30Z" stroke="#F6F8FE" stroke-width="3.5" stroke-miterlimit="10" stroke-linecap="round" stroke-linejoin="round"/>
<path d="M26.4 39.4668H45.6C46.9333 39.4668 48 40.5335 48 41.8668C48 48.5068 42.64 53.8668 36 53.8668C29.36 53.8668 24 48.5068 24 41.8668C24 40.5335 25.0667 39.4668 26.4 39.4668Z" stroke="#F6F8FE" stroke-width="3.5" stroke-miterlimit="10" stroke-linecap="round" stroke-linejoin="round"/>
</svg>
